<svg width="406" height="306" viewBox="0 0 324.06 336.43" xmlns="http://www.w3.org/2000/svg" xmlns:usvg="https://github.com/RazrFalcon/resvg" usvg:version="0.9.1">
    <defs>
        <linearGradient id="linear-gradient" x1="240.97" y1="36.92" x2="158.76" y2="160.8" gradientUnits="userSpaceOnUse">
            <stop offset="0" stop-color="#000000" stop-opacity="0"/>
            <stop offset="0.91" stop-color="#000000" stop-opacity="0.8"/>
            <stop offset="1" stop-color="#000000"/>
        </linearGradient>
        <linearGradient id="linear-gradient-2" x1="207.73" y1="120.88" x2="191.97" y2="279.68" gradientUnits="userSpaceOnUse">
            <stop offset="0" stop-color="#000000" stop-opacity="0"/>
            <stop offset="0.91" stop-color="#000000" stop-opacity="0.8"/>
            <stop offset="1" stop-color="#000000"/>
        </linearGradient>
        <linearGradient id="linear-gradient-3" x1="171.87" y1="102.56" x2="229.13" y2="102.56" gradientUnits="userSpaceOnUse">
            <stop offset="0" stop-color="#000000" stop-opacity="0"/>
            <stop offset="0.91" stop-color="#000000" stop-opacity="0.8"/>
            <stop offset="1" stop-color="#000000"/>
        </linearGradient>
        <linearGradient id="linear-gradient-4" x1="123.51" y1="178.52" x2="50.02" y2="243.28" gradientUnits="userSpaceOnUse">
            <stop offset="0" stop-color="#000000" stop-opacity="0"/>
            <stop offset="0.91" stop-color="#000000" stop-opacity="0.8"/>
            <stop offset="1" stop-color="#000000"/>
        </linearGradient>
        <linearGradient id="linear-gradient-5" x1="149.42" y1="222.57" x2="201.74" y2="222.57" gradientUnits="userSpaceOnUse">
            <stop offset="0" stop-color="#000000" stop-opacity="0"/>
            <stop offset="0.91" stop-color="#000000" stop-opacity="0.8"/>
            <stop offset="1" stop-color="#000000"/>
        </linearGradient>
        <linearGradient id="linear-gradient-6" x1="178.23" y1="163.1" x2="231.67" y2="163.1" gradientUnits="userSpaceOnUse">
            <stop offset="0" stop-color="#000000" stop-opacity="0"/>
            <stop offset="0.91" stop-color="#000000" stop-opacity="0.8"/>
            <stop offset="1" stop-color="#000000"/>
        </linearGradient>
        <linearGradient id="linear-gradient-7" x1="309.4" y1="140.84" x2="306.86" y2="171.81" gradientUnits="userSpaceOnUse">
            <stop offset="0" stop-color="#000000" stop-opacity="0"/>
            <stop offset="0.91" stop-color="#000000" stop-opacity="0.8"/>
            <stop offset="1" stop-color="#000000"/>
        </linearGradient>
        <linearGradient id="linear-gradient-8" x1="326.5" y1="124.09" x2="321.43" y2="167.45" gradientUnits="userSpaceOnUse">
            <stop offset="0" stop-color="#000000" stop-opacity="0"/>
            <stop offset="0.91" stop-color="#000000" stop-opacity="0.8"/>
            <stop offset="1" stop-color="#000000"/>
        </linearGradient>
        <linearGradient id="linear-gradient-9" x1="104.15" y1="200.43" x2="132.62" y2="200.43" gradientUnits="userSpaceOnUse">
            <stop offset="0" stop-color="#000000" stop-opacity="0"/>
            <stop offset="0.91" stop-color="#000000" stop-opacity="0.8"/>
            <stop offset="1" stop-color="#000000"/>
        </linearGradient>
        <linearGradient id="linear-gradient-10" x1="226.41" y1="249.05" x2="292.74" y2="249.05" gradientUnits="userSpaceOnUse">
            <stop offset="0" stop-color="#000000" stop-opacity="0"/>
            <stop offset="0.91" stop-color="#000000" stop-opacity="0.8"/>
            <stop offset="1" stop-color="#000000"/>
        </linearGradient>
        <linearGradient id="linear-gradient-11" x1="287.36" y1="142.78" x2="227.11" y2="170.94" gradientUnits="userSpaceOnUse">
            <stop offset="0" stop-color="#000000" stop-opacity="0"/>
            <stop offset="0.91" stop-color="#000000" stop-opacity="0.8"/>
            <stop offset="1" stop-color="#000000"/>
        </linearGradient>
        <linearGradient id="linear-gradient-12" x1="202.12" y1="97.41" x2="196.86" y2="114.49" gradientUnits="userSpaceOnUse">
            <stop offset="0" stop-color="#ecc4d7"/>
            <stop offset="0.42" stop-color="#efd4d1"/>
            <stop offset="1" stop-color="#f2eac9"/>
        </linearGradient>
        <linearGradient id="linear-gradient-13" x1="183.3" y1="68.38" x2="212.96" y2="75.89" gradientUnits="userSpaceOnUse">
            <stop offset="0" stop-color="#ecc4d7"/>
            <stop offset="0.42" stop-color="#efd4d1"/>
            <stop offset="1" stop-color="#f2eac9"/>
        </linearGradient>
        <linearGradient id="linear-gradient-14" x1="182.81" y1="81.6" x2="191.36" y2="81.6" gradientUnits="userSpaceOnUse">
            <stop offset="0" stop-color="#ecc4d7"/>
            <stop offset="0.42" stop-color="#efd4d1"/>
            <stop offset="1" stop-color="#f2eac9"/>
        </linearGradient>
        <linearGradient id="linear-gradient-15" x1="193.67" y1="123.13" x2="200.62" y2="99.85" gradientUnits="userSpaceOnUse">
            <stop offset="0" stop-color="#000000" stop-opacity="0"/>
            <stop offset="0.91" stop-color="#000000" stop-opacity="0.8"/>
            <stop offset="1" stop-color="#000000"/>
        </linearGradient>
        <linearGradient id="linear-gradient-16" x1="133.54" y1="74.1" x2="320.88" y2="29.97" gradientUnits="userSpaceOnUse" gradientTransform="matrix(0.9907478404714436 0.13571557243430438 -0.13571557243430438 0.9907478404714436 10.1 -24.25)">
            <stop offset="0" stop-color="#ffffff" stop-opacity="0"/>
            <stop offset="1" stop-color="#ffffff"/>
        </linearGradient>
        <linearGradient id="linear-gradient-17" x1="196.15" y1="8.4" x2="200.28" y2="45.76" gradientUnits="userSpaceOnUse" gradientTransform="matrix(0.9874689541733453 0.15781338518579363 -0.15781338518579363 0.9874689541733453 5.97 -30.91)">
            <stop offset="0" stop-color="#ffffff" stop-opacity="0"/>
            <stop offset="1" stop-color="#ffffff"/>
        </linearGradient>
    </defs>
    <g opacity="0.27" transform="matrix(1 0 0 1 -54.13 -2.96)">
        <path fill="#1a73e8" stroke="none" d="M 348.85 187.43 C 352.18 206.12 393.11 232.17 341.59 296.98 C 311.67 334.62 274.45 314.81 265.59 317.36 C 251.35 321.46 239.09 337.66 224.31 338.57 C 207.51 339.57 118.59 345.25 81.72 303.36 C 78.77521942788 300.03792955381 76.19389571347 296.4106668798 74.02 292.54 C 59.79 267.2 118.35 258.69 61.63 199.94 C 51.02 188.94 45.63 117.31 87.81 94.14 C 111.33 81.24 99 75.1 138 26.43 C 159.66 -0.57 211.36 -3.93 237.64 14.62 C 240.37333333333 16.55333333333 243.04 18.36 245.64 20.04 C 307 59.92 335.13 37.67 365.77 81.6 C 402.89 134.81 344.52 163.18 348.85 187.43 Z"/>
    </g>
    <g opacity="0.27" transform="matrix(1 0 0 1 -54.13 -2.96)">
        <path fill="#1a73e8" stroke="none" d="M 278.51 223.75 C 274.05 242.2 301.06 282.5 227.85 321.15 C 185.33 343.6 159.2 310.5 150.09 309.29 C 135.41 307.29 117.67 317.24 103.77 312.12 C 99.88 310.69 91.87 307.76 81.77 303.36 C 78.82521942788 300.03792955381 76.24389571347 296.4106668798 74.07 292.54 C 59.84 267.2 118.4 258.69 61.68 199.94 C 51.07 188.94 45.68 117.31 87.86 94.14 C 111.33 81.24 99 75.1 138 26.43 C 159.66 -0.57 211.36 -3.93 237.64 14.62 C 240.37333333333 16.55333333333 243.04 18.36 245.64 20.04 L 246.11 20.8 C 288.49 91.06 325.71 78.87 336.56 133.63 C 349.14 197.27 284.29 199.8 278.51 223.75 Z"/>
    </g>
    <g opacity="0.25" transform="matrix(1 0 0 1 -54.13 -2.96)">
        <path fill="url(#linear-gradient)" stroke="none" d="M 219.05 18.43 C 219.05 18.43 251.56 60.35 216.16 96.12 L 229.16 103.32 C 229.16 103.32 249.74 83.75 248.05 64 C 246.36 44.25 243.56 33.9 219.05 18.43 Z"/>
    </g>
    <g opacity="0.27" transform="matrix(1 0 0 1 -54.13 -2.96)">
        <path fill="#1a73e8" stroke="none" d="M 142.18 75.1 C 142.93 104.31 142.18 111.2 142.18 111.2 C 142.18 111.2 87.86 136.13 87.86 172.73 C 87.86 209.33 104.17 228.22 104.17 228.22 C 104.17 228.22 121.81 226.88 126.08 218.44 C 130.35 210 123.53 174.92 123.53 174.92 L 141.92 166.76 C 141.92 166.76 139.35 201.5 153.73 228.22 C 168.11 254.94 177.9 276.08 173 287.47 C 168.1 298.86 166.48 314.34 166.48 314.34 L 182.83 331.71 C 182.83 331.71 190.51 337.97 199.46 326.71 C 208.41 315.45 202.98 265.05 204.97 262.51 C 206.96 259.97 216.17 236.59 216.17 236.59 C 216.17 236.59 228.92 230.43 237.37 237.18 C 245.82 243.93 256.48 277.72 259.6 280.25 C 262.72 282.78 270.4 304.3 270.4 304.3 L 292.76 307.35 L 297.34 295.27 L 277 258.69 L 274.34 223.76 L 265.19 208.38 L 228.61 185.67 L 226.38 159.31 C 226.38 159.31 260.3 181.71 270.38 182.43 C 280.46 183.15 311.67 179.29 311.67 179.29 L 326.67 166.76 L 303.79 163.1 L 259.62 153.51 L 216.19 123.71 L 190.4 66.84 L 191.4 50.39 C 191.4 50.39 141.43 45.89 142.18 75.1 Z"/>
    </g>
    <path fill="#1a73e8" stroke="none" transform="matrix(1 0 0 1 -54.13 -2.96)" d="M 180.61 297 C 180.61 297 169.36 309.19 174.18 315.24 C 179 321.29 201.01 333.84 206.68 331.42 C 212.35 329 211.93 320.92 208.39 315.53 C 204.85 310.14 200.83 304.53 200.83 304.53 Z"/>
    <path fill="#1a73e8" stroke="none" transform="matrix(1 0 0 1 -54.13 -2.96)" d="M 282.68 280.46 C 282.68 280.46 282.46 291.54 286.93 296.98 C 291.4 302.42 325.57 289.98 326.52 285.34 C 327.47 280.7 322.05 275.52 313.11 275.4 C 308.04799642969 275.43558017639 303.034336193 274.41377442163 298.39 272.4 C 298.39 272.4 281.76 271.63 282.68 280.46 Z"/>
    <g opacity="0.49" transform="matrix(1 0 0 1 -54.13 -2.96)">
        <path fill="#1a73e8" stroke="none" d="M 251.84 61.93 C 251.84 89.0306126742 229.8706126742 111 202.77 111 C 175.6693873258 111 153.7 89.0306126742 153.7 61.93 C 153.7 34.8293873258 175.6693873258 12.86 202.77 12.86 C 215.78987032654 12.84138686163 228.28183434387 18.00526964443 237.48828234972 27.21171765028 C 246.69473035557 36.41816565613 251.85861313837 48.91012967346 251.84 61.93 Z"/>
    </g>
    <path fill="#1a73e8" stroke="none" transform="matrix(1 0 0 1 -54.13 -2.96)" d="M 229.13 103.32 C 211.31356198768 114.6350811731 188.25932208146 113.29837009227 171.87 100 C 171.87 100 183.87 93.56 202.87 94.13 C 218.51 94.64 229.13 100.62 229.13 103.32 Z"/>
    <path fill="#1a73e8" stroke="none" transform="matrix(1 0 0 1 -54.13 -2.96)" d="M 308.33 163.09 L 308.33 163.09 C 305.29171459047 167.53772945494 300.47881230872 170.45463992873 295.13 171.09 C 290.04212978935 171.67989456442 284.91170987852 171.81376070691 279.8 171.49 C 254.99 170.08 232.43 144.69 232.43 144.69 C 232.43 144.69 233.11 176.07 240.11 183.33 C 247.11 190.59 267.05 191.79 279.8 198.61 C 293.47 205.93 298.68 239.51 300.8 258.43 C 302.48 273.65 301.18 279.03 292.8 282.43 C 287.15 284.73 281.52 283.7 279.94 272.03 C 273.26 222.56 237.4 227.38 229.78 223.75 C 228.35 223.07 227.28 223.1 226.47 223.69 C 224.59 225.06 224.19 229.47 224.19 234.93 C 224.19 239.58 224.48 244.99 224.4 249.93 C 224.17 263.12 215.26 291.24 202.91 302.8 C 198.91 306.58 194.97 307.65 191.55 307.38 C 188.37173331685 307.03554113838 185.35911926008 305.78606987059 182.87 303.78 C 180.82928562471 302.2064715996 179.95044174243 299.55014617163 180.65 297.07 C 183.34 287.45 188.45 259.63 168.8 230.54 C 144.48 194.54 150.02 142.64 150.02 142.64 C 150.02 142.64 137.02 151.15 130.08 157.17 C 123.14 163.19 130.2 182.79 128.6 188.35 C 124.86 201.27 108.93 199.64 108.93 199.64 C 105.03713504547 199.51833370967 101.40390631238 197.65768020696 99.03 194.57 L 99.03 194.57 C 94.85 189.39 91.89 178.96 96.48 157.96 C 104.9 119.47 159.66 103.29 170.21 100.51 C 171.35 100.21 171.97 100.07 171.97 100.07 L 229.23 103.35 C 229.23 103.35 268.94 134.61 282.56 139.86 C 288.60348790058 142.11126448368 295.17417923117 142.54235745987 301.46 141.1 C 305.64481997484 140.16639479076 309.82160189848 142.69804508027 310.93 146.84 L 311.11 147.5 C 312.53238880727 152.85215877392 311.51468186132 158.55937146718 308.33 163.09 Z"/>
    <g opacity="0.25" transform="matrix(1 0 0 1 -54.13 -2.96)">
        <path fill="url(#linear-gradient-2)" stroke="none" d="M 308.33 163.09 L 308.33 163.09 C 305.29171459047 167.53772945494 300.47881230872 170.45463992873 295.13 171.09 C 290.04212978935 171.67989456442 284.91170987852 171.81376070691 279.8 171.49 C 254.99 170.08 232.43 144.69 232.43 144.69 C 232.43 144.69 233.11 176.07 240.11 183.33 C 247.11 190.59 267.05 191.79 279.8 198.61 C 293.47 205.93 298.68 239.51 300.8 258.43 C 302.48 273.65 301.18 279.03 292.8 282.43 C 287.15 284.73 281.52 283.7 279.94 272.03 C 273.26 222.56 237.4 227.38 229.78 223.75 C 228.35 223.07 227.28 223.1 226.47 223.69 C 224.59 225.06 224.19 229.47 224.19 234.93 C 224.19 239.58 224.48 244.99 224.4 249.93 C 224.17 263.12 215.26 291.24 202.91 302.8 C 198.91 306.58 194.97 307.65 191.55 307.38 C 188.37173331685 307.03554113838 185.35911926008 305.78606987059 182.87 303.78 C 180.82928562471 302.2064715996 179.95044174243 299.55014617163 180.65 297.07 C 183.34 287.45 188.45 259.63 168.8 230.54 C 144.48 194.54 150.02 142.64 150.02 142.64 C 150.02 142.64 137.02 151.15 130.08 157.17 C 123.14 163.19 130.2 182.79 128.6 188.35 C 124.86 201.27 108.93 199.64 108.93 199.64 C 105.03713504547 199.51833370967 101.40390631238 197.65768020696 99.03 194.57 L 99.03 194.57 C 94.85 189.39 91.89 178.96 96.48 157.96 C 104.9 119.47 159.66 103.29 170.21 100.51 C 171.35 100.21 171.97 100.07 171.97 100.07 L 229.23 103.35 C 229.23 103.35 268.94 134.61 282.56 139.86 C 288.60348790058 142.11126448368 295.17417923117 142.54235745987 301.46 141.1 C 305.64481997484 140.16639479076 309.82160189848 142.69804508027 310.93 146.84 L 311.11 147.5 C 312.53238880727 152.85215877392 311.51468186132 158.55937146718 308.33 163.09 Z"/>
    </g>
    <g opacity="0.25" transform="matrix(1 0 0 1 -54.13 -2.96)">
        <path fill="#ffffff" stroke="none" d="M 173 108.65 C 173 108.65 125.38 124.99 118.4 143.74 C 111.42 162.49 110.08 175.69 110.08 175.69 L 99 194.57 L 99 194.57 C 94.82 189.39 91.86 178.96 96.45 157.96 C 104.87 119.47 159.63 103.29 170.18 100.51 Z"/>
    </g>
    <g opacity="0.25" transform="matrix(1 0 0 1 -54.13 -2.96)">
        <path fill="url(#linear-gradient-3)" stroke="none" d="M 229.13 103.32 C 211.31356198768 114.6350811731 188.25932208146 113.29837009227 171.87 100 C 171.87 100 183.87 93.56 202.87 94.13 C 218.51 94.64 229.13 100.62 229.13 103.32 Z"/>
    </g>
    <path fill="url(#linear-gradient-4)" stroke="none" transform="matrix(1 0 0 1 -54.13 -2.96)" d="M 99 194.57 C 99 194.57 98.85 176.12 113.77 174.99 C 128.69 173.86 128.57 188.35 128.57 188.35 C 128.57 188.35 120.99 202.13 108.9 199.64 C 101.25 198.07 99 194.57 99 194.57 Z"/>
    <g opacity="0.25" transform="matrix(1 0 0 1 -54.13 -2.96)">
        <path fill="url(#linear-gradient-5)" stroke="none" d="M 191.49 307.38 C 188.38356572605 307.04620312773 185.43412509101 305.84355224599 182.98 303.91 C 180.83989623021 302.30729233083 179.89951939326 299.55758284556 180.61 296.98 C 183.31 287.29 188.33 259.55 168.74 230.54 C 144.42 194.54 149.96 142.64 149.96 142.64 C 149.96 142.64 166.1 133.48 169.5 140.27 C 172.9 147.06 162.87 151.49 170.3 180.5 C 177.73 209.51 186.68 226.96 196.47 244.84 C 206.26 262.72 201.19 304.49 191.49 307.38 Z"/>
    </g>
    <g opacity="0.25" transform="matrix(1 0 0 1 -54.13 -2.96)">
        <path fill="url(#linear-gradient-6)" stroke="none" d="M 189 135.86 C 189 135.86 213.86 132.93 220.62 134.92 C 227.38 136.91 227.38 173.53 231.21 182.92 C 231.21 182.92 233.41 184.41 228.69 185.69 C 223.97 186.97 199.69 193.99 195.24 191.43 C 190.79 188.87 186.11 175.68 183.44 167.17 C 180.77 158.66 176.51 141.62 179.06 138.64 C 181.61 135.66 189 135.86 189 135.86 Z"/>
    </g>
    <g opacity="0.25" transform="matrix(1 0 0 1 -54.13 -2.96)">
        <path fill="url(#linear-gradient-7)" stroke="none" d="M 308.08 142.64 C 308.08 142.64 303.83 142.07 302.41 147.82 C 300.99 153.57 302.26 161.6 303.75 163.1 C 305.24 164.6 305.25 165.22 308.33 163.1 C 311.41 160.98 315.03 153.54 315.03 153.54 C 315.03 153.54 315.67 141.47 308.08 142.64 Z"/>
    </g>
    <path fill="#1a73e8" stroke="none" transform="matrix(1 0 0 1 -54.13 -2.96)" d="M 308.08 142.64 C 308.43 146.71 305.8 155.48 308.08 158.31 C 310.36 161.14 333.56 158.57 339.52 142.64 C 345.48 126.71 336.96 128.09 334.94 128.3 C 332.92 128.51 319.94 137.03 319.94 137.03 C 319.94 137.03 326.65 131.71 323.67 129.58 C 320.69 127.45 307.73 138.56 308.08 142.64 Z"/>
    <g opacity="0.25" transform="matrix(1 0 0 1 -54.13 -2.96)">
        <path fill="url(#linear-gradient-8)" stroke="none" d="M 308.08 142.64 C 308.43 146.71 305.8 155.48 308.08 158.31 C 310.36 161.14 333.56 158.57 339.52 142.64 C 345.48 126.71 336.96 128.09 334.94 128.3 C 332.92 128.51 319.94 137.03 319.94 137.03 C 319.94 137.03 326.65 131.71 323.67 129.58 C 320.69 127.45 307.73 138.56 308.08 142.64 Z"/>
    </g>
    <path fill="#1a73e8" stroke="none" transform="matrix(1 0 0 1 -54.13 -2.96)" d="M 105.3 191.89 C 105.3 191.89 108.88 179.45 118.82 183.1 C 128.76 186.75 132.67 197.52 132.62 197.99 C 132.57 198.46 131.51 203.72 127.05 200.86 C 122.59 198 121.68 199.02 121.79 199.51 C 121.9 200 125.39 208.66 130.34 210 C 135.29 211.34 130.83 218.49 126.06 218.44 C 121.29 218.39 110.86 214.85 109.78 213.14 C 108.7 211.43 101.36 200.29 105.3 191.89 Z"/>
    <g opacity="0.25" transform="matrix(1 0 0 1 -54.13 -2.96)">
        <path fill="url(#linear-gradient-9)" stroke="none" d="M 105.3 191.89 C 105.3 191.89 108.88 179.45 118.82 183.1 C 128.76 186.75 132.67 197.52 132.62 197.99 C 132.57 198.46 131.51 203.72 127.05 200.86 C 122.59 198 121.68 199.02 121.79 199.51 C 121.9 200 125.39 208.66 130.34 210 C 135.29 211.34 130.83 218.49 126.06 218.44 C 121.29 218.39 110.86 214.85 109.78 213.14 C 108.7 211.43 101.36 200.29 105.3 191.89 Z"/>
    </g>
    <g opacity="0.25" transform="matrix(1 0 0 1 -54.13 -2.96)">
        <path fill="url(#linear-gradient-10)" stroke="none" d="M 292.74 282.44 C 287.09 284.74 281.46 283.71 279.88 272.04 C 273.2 222.57 237.34 227.39 229.72 223.76 C 228.29 223.08 227.22 223.11 226.41 223.7 C 226.41 223.7 228.54 216.18 236.48 215.04 C 244.42 213.9 270.12 215.04 274.37 223.76 C 278.62 232.48 292.37 259.17 292.74 282.44 Z"/>
    </g>
    <g opacity="0.25" transform="matrix(1 0 0 1 -54.13 -2.96)">
        <path fill="url(#linear-gradient-11)" stroke="none" d="M 308.33 163.09 L 308.33 163.09 C 305.29171459047 167.53772945494 300.47881230872 170.45463992873 295.13 171.09 C 290.04212978935 171.67989456442 284.91170987852 171.81376070691 279.8 171.49 C 254.99 170.08 232.43 144.69 232.43 144.69 C 232.11 138 235.1 134.24 235.1 134.24 C 235.1 134.24 256.49 153.03 273.67 159.4 C 290.85 165.77 309.14 152.46 308.33 163.09 Z"/>
    </g>
    <path fill="url(#linear-gradient-12)" stroke="none" transform="matrix(1 0 0 1 -54.13 -2.96)" d="M 190.11 86.46 C 190.11 86.46 196.43 101.58 187.11 104.35 C 177.79 107.12 200.03 112.35 207.11 110.99 C 214.19 109.63 214.11 108.61 214.11 108.61 C 211.98936049605 106.94751017273 211.32563957513 104.02546838253 212.52 101.61 C 214.35 97.12 190.11 86.46 190.11 86.46 Z"/>
    <path fill="url(#linear-gradient-13)" stroke="none" transform="matrix(1 0 0 1 -54.13 -2.96)" d="M 223.36 57.1 C 223.36 57.1 226.46 89 221.61 95 C 216.76 101 209.61 105.81 197.53 96.06 C 185.45 86.31 181.16 60.31 189.88 55.2 C 198.6 50.09 214.07 42.41 223.36 57.1 Z"/>
    <path fill="#001316" stroke="none" transform="matrix(1 0 0 1 -54.13 -2.96)" d="M 207.85 43.69 C 207.85 43.69 197.32 44.69 191.36 50.39 C 185.4 56.09 185.28 56.67 185.28 56.67 C 185.28 56.67 179.86 55.82 179.97 60.82 C 180.08 65.82 178.16 65.51 179.23 71.36 C 180.3 77.21 191.36 90 191.36 90 L 186.65 77.3 L 188.95 78.6 C 188.95 78.6 185.82 68.8 190.4 66.84 C 194.98 64.88 201.58 59.65 203.17 59.44 C 204.76 59.23 218.82 58.59 220.52 60.72 C 221.93196760535 62.78374327833 223.12507512047 64.98898132594 224.08 67.3 C 224.08 67.3 227.97 60.72 226.16 55.61 C 224.35 50.5 221.61 48.61 221.61 48.61 L 225.2 46.18 C 225.2 46.18 210.41 41.35 207.85 43.69 Z"/>
    <path fill="url(#linear-gradient-14)" stroke="none" transform="matrix(1 0 0 1 -54.13 -2.96)" d="M 189 78.6 C 189 78.6 182.94 74.34 182.86 78.6 C 182.78 82.86 186.78 85.92 190.16 86.46 C 193.54 87 189 78.6 189 78.6 Z"/>
    <path fill="#1a73e8" stroke="none" transform="matrix(1 0 0 1 -54.13 -2.96)" d="M 169.5 98.74 C 169.5 98.74 165.96 99.9 166.5 102.62 C 167.04 105.34 185 120.11 207.04 116.84 C 229.08 113.57 232.41 105.84 232.41 105.84 C 232.41 105.84 233.24 102.52 229.11 103.27 C 224.98 104.02 192.78 117 169.5 98.74 Z"/>
    <g opacity="0.25" transform="matrix(1 0 0 1 -54.13 -2.96)">
        <path fill="url(#linear-gradient-15)" stroke="none" d="M 169.5 98.74 C 169.5 98.74 165.96 99.9 166.5 102.62 C 167.04 105.34 185 120.11 207.04 116.84 C 229.08 113.57 232.41 105.84 232.41 105.84 C 232.41 105.84 233.24 102.52 229.11 103.27 C 224.98 104.02 192.78 117 169.5 98.74 Z"/>
    </g>
    <path fill="#ffffff" stroke="none" transform="matrix(1 0 0 1 -54.13 -2.96)" d="M 296.73 74.64 C 296.70272468561 74.82033998041 296.62664687004 74.98978602417 296.51 75.13 C 296.36418493007 75.25002061645 296.18736361957 75.32629647588 296 75.35 L 292.32 76.22 L 295.12 77.22 C 295.35263645272 77.28685216376 295.56321579489 77.41458061721 295.73 77.59 C 295.86681344735 77.81850312962 295.92642098906 78.08498390435 295.9 78.35 L 295.95 81.35 L 298.28 78.16 L 300.68 80.16 L 299.08 75.9 C 300.17197591819 75.64517939124 301.20872963549 75.19456421346 302.14 74.57 L 299.62 74.3 C 298.07 74.12 298.1 73.14 297.54 71.95 C 297.17893354819 72.81668400523 296.90751936153 73.71804716833 296.73 74.64 Z"/>
    <path fill="#ffffff" stroke="none" transform="matrix(1 0 0 1 -54.13 -2.96)" d="M 331 220.55 C 330.97514260721 220.72805914692 330.89865870281 220.89493312017 330.78 221.03 C 330.63534539873 221.15362816612 330.45842045098 221.23341784844 330.27 221.26 L 326.59 222.13 L 329.39 223.13 C 329.62429026428 223.19302896915 329.83584214767 223.32134732466 330 223.5 C 330.13681344735 223.72850312962 330.19642098906 223.99498390435 330.17 224.26 L 330.22 227.26 L 332.55 224.07 L 334.95 226.07 L 333.35 221.81 C 334.44054180535 221.55086109883 335.47655065358 221.10056967133 336.41 220.48 L 333.89 220.2 C 332.34 220.03 332.37 219.05 331.81 217.86 C 331.44893354819 218.72668400523 331.17751936153 219.62804716833 331 220.55 Z"/>
    <path fill="#ffffff" stroke="none" transform="matrix(1 0 0 1 -54.13 -2.96)" d="M 122.79 270.31 C 122.76514260721 270.48805914692 122.68865870281 270.65493312017 122.57 270.79 C 122.42534539873 270.91362816612 122.24842045098 270.99341784844 122.06 271.02 L 118.38 271.89 L 121.18 272.89 C 121.41263645272 272.95685216376 121.62321579489 273.08458061721 121.79 273.26 C 121.92681344735 273.48850312962 121.98642098906 273.75498390435 121.96 274.02 L 121.96 277.02 L 124.3 273.83 L 126.7 275.83 L 125.1 271.57 C 126.19197591819 271.31517939124 127.22872963549 270.86456421346 128.16 270.24 L 125.64 269.96 C 124.09 269.79 124.12 268.81 123.56 267.62 C 123.20810758512 268.48663096321 122.94997109946 269.38843245208 122.79 270.31 Z"/>
    <path fill="#ffffff" stroke="none" transform="matrix(1 0 0 1 -54.13 -2.96)" d="M 296.48 194.22 C 296.46716086969 194.32277014185 296.42556518526 194.41982673885 296.36 194.5 C 296.27400950861 194.57217060057 296.17054800221 194.62045263689 296.06 194.64 L 293.92 195.14 L 295.55 195.74 C 295.68497271943 195.77909699591 295.80624683511 195.85532644006 295.9 195.96 C 295.97832643907 196.09267977737 296.01328543126 196.24649934301 296 196.4 L 296 198.14 L 297.36 196.28 L 298.75 197.43 L 297.82 194.96 C 298.45459071954 194.8067135149 299.05715998892 194.54266630697 299.6 194.18 L 298.13 194.02 C 297.23 193.92 297.25 193.35 296.92 192.66 C 296.72437787311 193.16493136281 296.57705245533 193.68726693496 296.48 194.22 Z"/>
    <path fill="#ffffff" stroke="none" transform="matrix(1 0 0 1 -54.13 -2.96)" d="M 241.69 281.41 C 241.65596902885 281.58524669109 241.58053968583 281.74981980314 241.47 281.89 C 241.32257350771 282.01536789832 241.14193709666 282.09526477243 240.95 282.12 L 237.28 282.99 L 240.08 283.99 C 240.31323548845 284.05547763657 240.52415797243 284.18341422521 240.69 284.36 C 240.82681344735 284.58850312962 240.88642098906 284.85498390435 240.86 285.12 L 240.86 288.12 L 243.2 284.93 L 245.6 286.93 L 244 282.67 C 245.09054180535 282.41086109883 246.12655065358 281.96056967133 247.06 281.34 L 244.53 281.06 C 242.99 280.89 243.02 279.91 242.46 278.72 C 242.10810758512 279.58663096321 241.84997109946 280.48843245208 241.69 281.41 Z"/>
    <path fill="#ffffff" stroke="none" transform="matrix(1 0 0 1 -54.13 -2.96)" d="M 270.06 51.05 C 270.04889774511 51.11096360125 270.02504377492 51.1688946717 269.99 51.22 C 269.93500020349 51.25673461015 269.87412246086 51.28379138465 269.81 51.3 L 268.57 51.59 L 269.52 51.94 C 269.59736512134 51.96409094782 269.66657533234 52.00907758497 269.72 52.07 C 269.76564123801 52.14501263277 269.78662465863 52.23244355203 269.78 52.32 L 269.78 53.32 L 270.57 52.24 L 271.39 52.9 L 270.84 51.46 C 271.19661092611 51.36827992978 271.53484800268 51.21607324532 271.84 51.01 L 270.99 50.92 C 270.46 50.86 270.47 50.53 270.28 50.12 C 270.1789670916 50.42278702488 270.1053378746 50.73403780584 270.06 51.05 Z"/>
    <path fill="#ffffff" stroke="none" transform="matrix(1 0 0 1 -54.13 -2.96)" d="M 259.41 85.78 C 259.39764299572 85.83936266803 259.37007593185 85.89449679576 259.33 85.94 C 259.27959346356 85.97833106203 259.22166436139 86.00559181599 259.16 86.02 L 257.92 86.31 L 258.86 86.66 C 258.94144702808 86.68130698578 259.01461113791 86.72659905377 259.07 86.79 C 259.11444344923 86.86550139977 259.13533550932 86.95255165018 259.13 87.04 L 259.13 88.04 L 259.92 86.96 L 260.73 87.62 L 260.19 86.18 C 260.54742595771 86.09061645616 260.88605622392 85.93823283637 261.19 85.73 L 260.33 85.64 C 259.81 85.58 259.82 85.25 259.63 84.84 C 259.52287107807 85.14445020091 259.44910571621 85.45962947434 259.41 85.78 Z"/>
    <path fill="#ffffff" stroke="none" transform="matrix(1 0 0 1 -54.13 -2.96)" d="M 132.45 80.7 C 132.43575388444 80.7586887675 132.40840334467 80.81338984705 132.37 80.86 C 132.32197240651 80.90210503019 132.26305602478 80.92983038629 132.2 80.94 L 130.95 81.23 L 131.95 81.58 C 132.03144702808 81.60130698578 132.10461113791 81.64659905377 132.16 81.71 C 132.20103874053 81.79042772227 132.22164514689 81.87972214987 132.22 81.97 L 132.22 82.97 L 133 81.9 L 133.81 82.57 L 133.27 81.12 C 133.62742595771 81.03061645616 133.96605622392 80.87823283637 134.27 80.67 L 133.41 80.58 C 132.89 80.52 132.9 80.19 132.71 79.79 C 132.59064546757 80.08302647397 132.50346768513 80.38814871252 132.45 80.7 Z"/>
    <path fill="#ffffff" stroke="none" transform="matrix(1 0 0 1 -54.13 -2.96)" d="M 101.72 101.72 L 104.23 96.12 C 103.95394767313 97.52678463789 104.11084713987 98.98420635114 104.68 100.3 C 105.29536802876 101.62406174615 106.64058894908 102.45400798646 108.1 102.41 C 106.5 102.41 104.42 102.77 104.18 104.34 C 104.03 105.34 104.67 106.82 103.71 107.25 L 102.35 103.94 C 101.34278904689 104.52341849499 100.23833607292 104.9198019243 99.09 105.11 C 99.44478827346 104.44839024095 99.98299299235 103.90324094504 100.64 103.54 C 99.71901477217 102.55711984004 98.98983054819 101.41077440885 98.49 100.16 C 99.37283510024 100.67200031724 100.172091806 101.31612702947 100.86 102.07"/>
    <path fill="#ffffff" stroke="none" transform="matrix(1 0 0 1 -54.13 -2.96)" d="M 136.7 52.49 L 137.45 50.82 C 137.36009955061 51.23662637037 137.4056468606 51.67107763491 137.58 52.06 C 137.7606672717 52.44817810055 138.15186281176 52.69463129078 138.58 52.69 C 138.1 52.69 137.48 52.8 137.41 53.27 C 137.41 53.58 137.56 54.01 137.27 54.13 L 136.87 53.13 C 136.55963766602 53.30411175471 136.22119926625 53.42256519463 135.87 53.48 C 135.97181749329 53.28009046783 136.13232606007 53.11609258439 136.33 53.01 C 136.05848658209 52.717695478 135.84170847491 52.37897968552 135.69 52.01 C 135.94886441753 52.16629662507 136.1844984389 52.35817004247 136.39 52.58"/>
    <path fill="url(#linear-gradient-16)" stroke="none" transform="matrix(1 0 0 1 -54.13 -2.96)" d="M 179.83 99.53 C 183.08 99.96 184.68 97.53 185.45 94.53 C 186.52058806694 90.2869654875 185.71559145675 85.78845501878 183.24 82.18 C 178.59 75.29 170.69 59.63 180.85 43.33 C 194.46 21.5 177.38 23.92 171.85 29.79 C 139.88 63.92 172.24 98.53 179.83 99.53 Z"/>
    <path fill="url(#linear-gradient-17)" stroke="none" transform="matrix(0.9874689541733453 -0.15781338518579363 0.15781338518579363 0.9874689541733453 -55.14 28.51)" d="M 207.32 22.14 C 207.32 25.38191148151 202.99954783587 28.01 197.67 28.01 C 192.34045216413 28.01 188.02 25.38191148151 188.02 22.14 C 188.02 18.89808851849 192.34045216413 16.27 197.67 16.27 C 202.99954783587 16.27 207.32 18.89808851849 207.32 22.14 Z"/>
</svg>
