<svg width="1000" height="404.63" viewBox="0 0 1000 404.63" xmlns="http://www.w3.org/2000/svg" xmlns:usvg="https://github.com/RazrFalcon/resvg" usvg:version="0.9.1">
    <defs/>
    <path fill="#008373" stroke="none" transform="matrix(1 0 0 1 312 -795.67)" d="M -311.5 796.169 L -230.8727 824.533 L -230.8727 1108.341 L -117.3057 1042.7811 L -172.9853 1016.6565 L -208.1127 929.2258 L -29.1737 992.0903 L -29.1737 1083.4855 L -230.8277 1199.7955 L -311.501 1154.9205 Z"/>
    <path fill="#008373" stroke="none" transform="matrix(8.65306 0 0 8.65306 -2304.69 -12717.57)" d="M 313.016 1507.1 L 313.016 1479.0922 L 320.98475 1479.0922 C 323.40662 1479.0923 325.32719 1479.6847 326.74647 1480.8696 C 328.16573 1482.0545 328.87536 1483.5975 328.87538 1485.4985 C 328.87536 1487.087 328.44567 1488.4673 327.58632 1489.6391 C 326.72693 1490.811 325.54203 1491.6443 324.03163 1492.1391 L 324.03163 1492.2171 C 325.91963 1492.4385 327.43005 1493.1514 328.56288 1494.3558 C 329.69567 1495.5602 330.26208 1497.126 330.2621 1499.0531 C 330.26208 1501.4489 329.4027 1503.389 327.68397 1504.8734 C 325.96521 1506.3578 323.79724 1507.0999 321.18007 1507.0999 Z M 316.29725 1482.061 L 316.29725 1491.104 L 319.65663 1491.104 C 321.45349 1491.104 322.86625 1490.671 323.89491 1489.8051 C 324.92354 1488.9393 325.43786 1487.7186 325.43788 1486.143 C 325.43786 1483.4217 323.6475 1482.061 320.06679 1482.061 Z M 316.29725 1494.0532 L 316.29725 1504.1313 L 320.75038 1504.1313 C 322.67745 1504.1313 324.17159 1503.6756 325.2328 1502.7641 C 326.29398 1501.8527 326.82458 1500.6027 326.8246 1499.0141 C 326.82458 1495.7068 324.57198 1494.0532 320.06679 1494.0532 Z"/>
    <path fill="#008373" stroke="none" transform="matrix(8.65306 0 0 8.65306 -2304.69 -12717.57)" d="M 336.08 1482.65 C 335.50708 1482.65 335.0188 1482.4547 334.61516 1482.0641 C 334.21151 1481.6735 334.00969 1481.1787 334.00969 1480.5797 C 334.00969 1479.9808 334.21151 1479.4827 334.61516 1479.0856 C 335.0188 1478.6885 335.50708 1478.4899 336.08 1478.4899 C 336.66593 1478.4899 337.16398 1478.6885 337.57414 1479.0856 C 337.98429 1479.4827 338.18937 1479.9808 338.18938 1480.5797 C 338.18937 1481.1527 337.98429 1481.6409 337.57414 1482.0446 C 337.16398 1482.4482 336.66593 1482.65 336.08 1482.65 Z M 337.6425 1507.0974 L 334.43938 1507.0974 L 334.43938 1487.25 L 337.6425 1487.25 Z"/>
    <path fill="#008373" stroke="none" transform="matrix(8.65306 0 0 8.65306 -2304.69 -12717.57)" d="M 359.405 1507.1 L 356.20187 1507.1 L 356.20187 1495.8399 C 356.20187 1491.5951 354.77188 1489.4727 351.67294 1489.4727 C 350.07136 1489.4727 348.7465 1490.0749 347.69833 1491.2793 C 346.65014 1492.4838 346.12606 1494.004 346.12606 1495.8399 L 346.12606 1507.1 L 342.92294 1507.1 L 342.92294 1487.2527 L 346.12606 1487.2527 L 346.12606 1490.5049 L 346.20416 1490.5049 C 347.71457 1487.9788 349.86706 1486.7774 352.64716 1486.7774 C 354.83464 1486.7774 356.50782 1487.4838 357.66669 1488.8965 C 358.82552 1490.3093 359.40497 1492.3503 359.40497 1495.0196 Z"/>
    <path fill="#008373" stroke="none" transform="matrix(8.65306 0 0 8.65306 -2304.69 -12717.57)" d="M 381.852 1505.4 C 381.852 1512.7437 378.33636 1516.4156 371.3051 1516.4156 C 368.83114 1516.4156 366.79173 1515.9751 364.94278 1515.0376 L 365.78305 1512.2912 C 365.78305 1512.2912 367.95432 1513.7343 371.26604 1513.7343 C 376.1879 1513.7343 378.64885 1511.164 378.64885 1505.9297 L 378.64885 1503.7643 L 378.57075 1503.7643 C 377.0473 1506.3164 374.90168 1507.5595 371.8418 1507.5595 C 369.35481 1507.5595 367.35286 1506.8102 365.83594 1505.0329 C 364.31901 1503.2555 363.56055 1500.8695 363.56055 1497.8747 C 363.56055 1494.4763 364.3776 1491.7744 366.01172 1489.7692 C 367.64583 1487.764 369.88216 1486.7614 372.72071 1486.7614 C 375.41601 1486.7614 377.26865 1487.8421 378.57075 1490.0036 L 378.64885 1490.0036 L 378.64885 1487.2434 L 381.85198 1487.2434 Z M 378.64887 1498.0478 L 378.64887 1495.2579 C 378.64887 1493.6693 378.11175 1492.3087 377.03755 1491.1758 C 375.96331 1490.043 374.71836 1489.4766 373.11681 1489.4766 C 371.13764 1489.4766 369.58816 1490.196 368.46838 1491.6348 C 367.34858 1493.0736 366.78868 1495.0886 366.78869 1497.6797 C 366.78868 1499.9063 367.32579 1501.5276 368.40002 1502.8622 C 369.47423 1504.1969 370.89675 1504.8642 372.6676 1504.8642 C 374.46446 1504.8642 375.83311 1504.2262 376.95942 1502.9501 C 378.08571 1501.6741 378.64887 1500.04 378.64887 1498.0478 Z"/>
</svg>
