<svg width="1983" height="400" viewBox="0 0 1983 400" fill="none" xmlns="http://www.w3.org/2000/svg">
<path d="M180.488 122.7H109.688V306H75.7875V122.7H4.6875V93H180.488V122.7ZM321.851 307.5C304.851 307.5 290.451 304.6 278.651 298.8C267.051 293 257.651 285.1 250.451 275.1C243.451 265.1 238.251 253.7 234.851 240.9C231.651 228.1 230.051 214.8 230.051 201V93H263.651V201C263.651 210.8 264.651 220.3 266.651 229.5C268.651 238.5 271.851 246.6 276.251 253.8C280.651 261 286.551 266.7 293.951 270.9C301.551 275.1 310.851 277.2 321.851 277.2C333.051 277.2 342.351 275.1 349.751 270.9C357.351 266.5 363.251 260.7 367.451 253.5C371.851 246.1 375.051 237.9 377.051 228.9C379.051 219.9 380.051 210.6 380.051 201V93H413.951V201C413.951 215.6 412.151 229.4 408.551 242.4C405.151 255.2 399.751 266.5 392.351 276.3C385.151 285.9 375.751 293.5 364.151 299.1C352.551 304.7 338.451 307.5 321.851 307.5ZM650.037 251.1C650.037 262.5 647.037 272.3 641.037 280.5C635.237 288.7 627.337 295 617.337 299.4C607.337 303.8 596.337 306 584.337 306H482.637V93H592.437C602.437 93 611.037 95.7 618.237 101.1C625.637 106.3 631.237 113.1 635.037 121.5C639.037 129.7 641.037 138.3 641.037 147.3C641.037 157.7 638.337 167.5 632.937 176.7C627.737 185.7 620.237 192.4 610.437 196.8C622.637 200.4 632.237 207 639.237 216.6C646.437 226 650.037 237.5 650.037 251.1ZM615.537 244.8C615.537 238.8 614.237 233.4 611.637 228.6C609.237 223.6 605.837 219.6 601.437 216.6C597.237 213.4 592.237 211.8 586.437 211.8H516.237V276.9H584.337C590.337 276.9 595.637 275.5 600.237 272.7C605.037 269.7 608.737 265.8 611.337 261C614.137 256 615.537 250.6 615.537 244.8ZM516.237 122.1V184.8H578.037C583.637 184.8 588.637 183.5 593.037 180.9C597.437 178.1 600.937 174.4 603.537 169.8C606.137 165 607.437 159.6 607.437 153.6C607.437 147.4 606.237 142 603.837 137.4C601.437 132.6 598.137 128.9 593.937 126.3C589.937 123.5 585.237 122.1 579.837 122.1H516.237ZM855.178 276.3V306H709.078V93H852.478V122.7H742.678V183.3H837.778V211.2H742.678V276.3H855.178ZM896.531 198C896.531 185 898.831 172.3 903.431 159.9C908.031 147.3 914.731 135.9 923.531 125.7C932.531 115.3 943.431 107.1 956.231 101.1C969.031 94.9 983.531 91.8 999.731 91.8C1018.93 91.8 1035.53 96.2 1049.53 105C1063.53 113.6 1073.93 124.7 1080.73 138.3L1054.33 156C1050.33 147.4 1045.23 140.6 1039.03 135.6C1033.03 130.6 1026.43 127.1 1019.23 125.1C1012.23 123.1 1005.33 122.1 998.531 122.1C987.331 122.1 977.531 124.4 969.131 129C960.731 133.4 953.631 139.3 947.831 146.7C942.231 154.1 937.931 162.4 934.931 171.6C932.131 180.8 930.731 190 930.731 199.2C930.731 209.4 932.431 219.3 935.831 228.9C939.231 238.3 943.931 246.7 949.931 254.1C956.131 261.3 963.431 267 971.831 271.2C980.231 275.4 989.431 277.5 999.431 277.5C1006.23 277.5 1013.33 276.3 1020.73 273.9C1028.13 271.5 1034.93 267.8 1041.13 262.8C1047.53 257.6 1052.53 250.8 1056.13 242.4L1084.03 258.3C1079.63 268.9 1072.73 277.9 1063.33 285.3C1054.13 292.7 1043.73 298.3 1032.13 302.1C1020.73 305.9 1009.43 307.8 998.231 307.8C983.231 307.8 969.531 304.7 957.131 298.5C944.731 292.1 934.031 283.7 925.031 273.3C916.031 262.7 909.031 250.9 904.031 237.9C899.031 224.7 896.531 211.4 896.531 198ZM1197.68 93H1229.48L1312.28 306H1276.88L1254.38 248.1H1172.18L1149.98 306H1114.28L1197.68 93ZM1247.78 223.2L1213.58 129.9L1178.18 223.2H1247.78ZM1362.62 306V93H1455.32C1464.92 93 1473.72 95 1481.72 99C1489.72 103 1496.62 108.3 1502.42 114.9C1508.42 121.5 1513.02 128.9 1516.22 137.1C1519.62 145.3 1521.32 153.7 1521.32 162.3C1521.32 171.7 1519.62 180.7 1516.22 189.3C1512.82 197.9 1507.92 205.3 1501.52 211.5C1495.32 217.7 1488.02 222.2 1479.62 225L1529.72 306H1491.92L1445.72 231.9H1396.22V306H1362.62ZM1396.22 202.2H1455.02C1461.22 202.2 1466.72 200.4 1471.52 196.8C1476.32 193.2 1480.12 188.4 1482.92 182.4C1485.72 176.2 1487.12 169.5 1487.12 162.3C1487.12 154.9 1485.52 148.3 1482.32 142.5C1479.12 136.5 1474.92 131.7 1469.72 128.1C1464.72 124.5 1459.22 122.7 1453.22 122.7H1396.22V202.2ZM1584.96 306V93H1660.56C1683.56 93 1702.76 97.8 1718.16 107.4C1733.56 116.8 1745.06 129.6 1752.66 145.8C1760.46 161.8 1764.36 179.6 1764.36 199.2C1764.36 220.8 1760.06 239.6 1751.46 255.6C1743.06 271.6 1731.06 284 1715.46 292.8C1699.86 301.6 1681.56 306 1660.56 306H1584.96ZM1730.16 199.2C1730.16 184.2 1727.36 171 1721.76 159.6C1716.36 148 1708.46 139 1698.06 132.6C1687.86 126 1675.36 122.7 1660.56 122.7H1618.56V276.3H1660.56C1675.56 276.3 1688.16 272.9 1698.36 266.1C1708.76 259.3 1716.66 250.1 1722.06 238.5C1727.46 226.9 1730.16 213.8 1730.16 199.2ZM1949.41 143.1C1947.41 140.9 1944.51 138.6 1940.71 136.2C1936.91 133.6 1932.41 131.2 1927.21 129C1922.01 126.8 1916.41 125 1910.41 123.6C1904.41 122.2 1898.21 121.5 1891.81 121.5C1877.81 121.5 1867.41 124.1 1860.61 129.3C1853.81 134.5 1850.41 141.7 1850.41 150.9C1850.41 157.7 1852.31 163.1 1856.11 167.1C1859.91 170.9 1865.71 174.1 1873.51 176.7C1881.31 179.3 1891.11 182.1 1902.91 185.1C1917.31 188.5 1929.81 192.6 1940.41 197.4C1951.01 202 1959.11 208.2 1964.71 216C1970.31 223.8 1973.11 234.1 1973.11 246.9C1973.11 257.7 1971.11 267 1967.11 274.8C1963.11 282.6 1957.51 289 1950.31 294C1943.11 298.8 1934.81 302.4 1925.41 304.8C1916.01 307 1905.91 308.1 1895.11 308.1C1884.51 308.1 1873.91 307 1863.31 304.8C1852.91 302.6 1842.91 299.4 1833.31 295.2C1823.91 290.8 1815.21 285.5 1807.21 279.3L1822.51 250.5C1825.11 253.1 1828.81 256 1833.61 259.2C1838.61 262.2 1844.31 265.1 1850.71 267.9C1857.31 270.7 1864.41 273.1 1872.01 275.1C1879.81 276.9 1887.71 277.8 1895.71 277.8C1909.11 277.8 1919.31 275.5 1926.31 270.9C1933.51 266.1 1937.11 259.3 1937.11 250.5C1937.11 243.3 1934.81 237.6 1930.21 233.4C1925.61 229 1918.91 225.3 1910.11 222.3C1901.31 219.3 1890.81 216.3 1878.61 213.3C1864.61 209.5 1852.91 205.4 1843.51 201C1834.11 196.4 1827.01 190.6 1822.21 183.6C1817.61 176.4 1815.31 167.3 1815.31 156.3C1815.31 142.3 1818.71 130.5 1825.51 120.9C1832.31 111.1 1841.51 103.8 1853.11 99C1864.91 94 1878.11 91.5 1892.71 91.5C1902.31 91.5 1911.41 92.6 1920.01 94.8C1928.61 96.8 1936.61 99.6 1944.01 103.2C1951.61 106.8 1958.51 110.9 1964.71 115.5L1949.41 143.1Z" fill="#C62828"/>
</svg>
