<svg width="1330" height="470" viewBox="0 0 1330 470" xmlns="http://www.w3.org/2000/svg" xmlns:usvg="https://github.com/RazrFalcon/resvg" usvg:version="0.9.1">
    <defs/>
    <path fill="#c62828" stroke="none" d="M 200 158.8 C 197.333 155.867 193.467 152.8 188.4 149.6 C 183.333 146.133 177.333 142.933 170.4 140 C 163.733 137.067 156.267 134.667 148 132.8 C 140 130.933 131.733 130 123.2 130 C 104.267 130 90.2667 133.467 81.2 140.4 C 72.4 147.333 68 156.933 68 169.2 C 68 176.133 69.3333 181.867 72 186.4 C 74.9333 190.667 79.3333 194.533 85.2 198 C 91.0667 201.2 98.4 204.133 107.2 206.8 C 116 209.2 126.267 211.867 138 214.8 C 152.4 218.267 165.333 222.133 176.8 226.4 C 188.533 230.667 198.4 235.867 206.4 242 C 214.4 248.133 220.533 255.733 224.8 264.8 C 229.333 273.6 231.6 284.4 231.6 297.2 C 231.6 311.6 228.8 324 223.2 334.4 C 217.867 344.8 210.4 353.333 200.8 360 C 191.467 366.4 180.533 371.2 168 374.4 C 155.467 377.333 142 378.8 127.6 378.8 C 106 378.8 85.0667 375.6 64.8 369.2 C 44.8 362.533 26.6667 352.933 10.4 340.4 L 30.8 302 C 34.2667 305.467 39.2 309.333 45.6 313.6 C 52.2667 317.867 59.8667 321.867 68.4 325.6 C 77.2 329.067 86.6667 332.133 96.8 334.8 C 106.933 337.2 117.467 338.4 128.4 338.4 C 146 338.4 159.6 335.333 169.2 329.2 C 178.8 323.067 183.6 314 183.6 302 C 183.6 294.8 181.733 288.8 178 284 C 174.533 279.2 169.467 275.067 162.8 271.6 C 156.133 267.867 148 264.533 138.4 261.6 C 128.8 258.667 117.867 255.6 105.6 252.4 C 91.4667 248.667 79.0667 244.8 68.4 240.8 C 58 236.533 49.3333 231.467 42.4 225.6 C 35.4667 219.733 30.1333 212.933 26.4 205.2 C 22.9333 197.2 21.2 187.6 21.2 176.4 C 21.2 162.533 23.8667 150.267 29.2 139.6 C 34.5333 128.667 41.7333 119.6 50.8 112.4 C 60.1333 104.933 71.0667 99.3333 83.6 95.6 C 96.1333 91.8667 109.733 90 124.4 90 C 143.6 90 161.333 93.0667 177.6 99.2 C 193.867 105.333 208.133 112.933 220.4 122 L 200 158.8 Z M 308.531 376 L 308.531 92 L 427.731 92 C 440.531 92 452.265 94.6666 462.931 100 C 473.865 105.333 483.198 112.4 490.931 121.2 C 498.665 129.733 504.665 139.6 508.931 150.8 C 513.465 161.733 515.731 172.933 515.731 184.4 C 515.731 196.4 513.598 208 509.331 219.2 C 505.331 230.133 499.598 240 492.131 248.8 C 484.665 257.333 475.598 264.267 464.931 269.6 C 454.531 274.667 442.931 277.2 430.131 277.2 L 353.331 277.2 L 353.331 376 L 308.531 376 Z M 353.331 237.6 L 427.331 237.6 C 433.731 237.6 439.465 236.267 444.531 233.6 C 449.865 230.933 454.398 227.2 458.131 222.4 C 461.865 217.6 464.798 212 466.931 205.6 C 469.065 199.2 470.131 192.133 470.131 184.4 C 470.131 176.4 468.931 169.2 466.531 162.8 C 464.131 156.4 460.798 150.933 456.531 146.4 C 452.265 141.6 447.331 138 441.731 135.6 C 436.398 132.933 430.798 131.6 424.931 131.6 L 353.331 131.6 L 353.331 237.6 Z M 639.381 92 L 678.581 92 L 790.581 376 L 743.381 376 L 713.381 298.8 L 603.781 298.8 L 574.181 376 L 526.581 376 L 639.381 92 Z M 704.581 265.6 L 658.981 143.6 L 611.781 265.6 L 704.581 265.6 Z M 813.156 232 C 813.156 214.933 816.223 198 822.356 181.2 C 828.49 164.133 837.423 148.933 849.156 135.6 C 861.156 122 875.69 111.067 892.756 102.8 C 909.823 94.5333 929.156 90.4 950.756 90.4 C 976.623 90.4 998.756 96.1333 1017.16 107.6 C 1035.56 119.067 1049.42 134 1058.76 152.4 L 1023.56 176 C 1019.56 167.467 1014.76 160.267 1009.16 154.4 C 1003.56 148.533 997.423 143.867 990.756 140.4 C 984.09 136.933 977.156 134.533 969.956 133.2 C 962.756 131.6 955.823 130.8 949.156 130.8 C 934.223 130.8 921.156 133.867 909.956 140 C 898.756 145.867 889.29 153.733 881.556 163.6 C 874.09 173.467 868.356 184.533 864.356 196.8 C 860.623 209.067 858.756 221.333 858.756 233.6 C 858.756 247.467 861.023 260.667 865.556 273.2 C 870.09 285.733 876.356 296.8 884.356 306.4 C 892.623 316 902.356 323.733 913.556 329.6 C 924.756 335.2 937.023 338 950.356 338 C 957.29 338 964.356 337.2 971.556 335.6 C 979.023 333.733 986.09 330.933 992.756 327.2 C 999.69 323.2 1005.96 318.267 1011.56 312.4 C 1017.42 306.533 1022.22 299.467 1025.96 291.2 L 1063.16 312.4 C 1058.62 323.067 1052.22 332.533 1043.96 340.8 C 1035.69 348.8 1026.36 355.6 1015.96 361.2 C 1005.56 366.8 994.49 371.067 982.756 374 C 971.29 376.933 959.956 378.4 948.756 378.4 C 928.756 378.4 910.49 374.133 893.956 365.6 C 877.423 357.067 863.156 346 851.156 332.4 C 839.156 318.533 829.823 302.933 823.156 285.6 C 816.49 268 813.156 250.133 813.156 232 Z M 1315.39 336.4 L 1315.39 376 L 1120.59 376 L 1120.59 92 L 1311.79 92 L 1311.79 131.6 L 1165.39 131.6 L 1165.39 212.4 L 1292.19 212.4 L 1292.19 249.6 L 1165.39 249.6 L 1165.39 336.4 L 1315.39 336.4 Z"/>
</svg>
