<svg width="1983" height="400" viewBox="0 0 1983 400" fill="none" xmlns="http://www.w3.org/2000/svg">
<path d="M180.3 122.7H109.5V306H75.6V122.7H4.5V93H180.3V122.7ZM321.663 307.5C304.663 307.5 290.263 304.6 278.463 298.8C266.863 293 257.463 285.1 250.263 275.1C243.263 265.1 238.063 253.7 234.663 240.9C231.463 228.1 229.863 214.8 229.863 201V93H263.463V201C263.463 210.8 264.463 220.3 266.463 229.5C268.463 238.5 271.663 246.6 276.063 253.8C280.463 261 286.363 266.7 293.763 270.9C301.363 275.1 310.663 277.2 321.663 277.2C332.863 277.2 342.163 275.1 349.563 270.9C357.163 266.5 363.063 260.7 367.263 253.5C371.663 246.1 374.863 237.9 376.863 228.9C378.863 219.9 379.863 210.6 379.863 201V93H413.763V201C413.763 215.6 411.963 229.4 408.363 242.4C404.963 255.2 399.563 266.5 392.163 276.3C384.963 285.9 375.563 293.5 363.963 299.1C352.363 304.7 338.263 307.5 321.663 307.5ZM649.849 251.1C649.849 262.5 646.849 272.3 640.849 280.5C635.049 288.7 627.149 295 617.149 299.4C607.149 303.8 596.149 306 584.149 306H482.449V93H592.249C602.249 93 610.849 95.7 618.049 101.1C625.449 106.3 631.049 113.1 634.849 121.5C638.849 129.7 640.849 138.3 640.849 147.3C640.849 157.7 638.149 167.5 632.749 176.7C627.549 185.7 620.049 192.4 610.249 196.8C622.449 200.4 632.049 207 639.049 216.6C646.249 226 649.849 237.5 649.849 251.1ZM615.349 244.8C615.349 238.8 614.049 233.4 611.449 228.6C609.049 223.6 605.649 219.6 601.249 216.6C597.049 213.4 592.049 211.8 586.249 211.8H516.049V276.9H584.149C590.149 276.9 595.449 275.5 600.049 272.7C604.849 269.7 608.549 265.8 611.149 261C613.949 256 615.349 250.6 615.349 244.8ZM516.049 122.1V184.8H577.849C583.449 184.8 588.449 183.5 592.849 180.9C597.249 178.1 600.749 174.4 603.349 169.8C605.949 165 607.249 159.6 607.249 153.6C607.249 147.4 606.049 142 603.649 137.4C601.249 132.6 597.949 128.9 593.749 126.3C589.749 123.5 585.049 122.1 579.649 122.1H516.049ZM854.991 276.3V306H708.891V93H852.291V122.7H742.491V183.3H837.591V211.2H742.491V276.3H854.991ZM896.344 198C896.344 185 898.644 172.3 903.244 159.9C907.844 147.3 914.544 135.9 923.344 125.7C932.344 115.3 943.244 107.1 956.044 101.1C968.844 94.9 983.344 91.8 999.544 91.8C1018.74 91.8 1035.34 96.2 1049.34 105C1063.34 113.6 1073.74 124.7 1080.54 138.3L1054.14 156C1050.14 147.4 1045.04 140.6 1038.84 135.6C1032.84 130.6 1026.24 127.1 1019.04 125.1C1012.04 123.1 1005.14 122.1 998.344 122.1C987.144 122.1 977.344 124.4 968.944 129C960.544 133.4 953.444 139.3 947.644 146.7C942.044 154.1 937.744 162.4 934.744 171.6C931.944 180.8 930.544 190 930.544 199.2C930.544 209.4 932.244 219.3 935.644 228.9C939.044 238.3 943.744 246.7 949.744 254.1C955.944 261.3 963.244 267 971.644 271.2C980.044 275.4 989.244 277.5 999.244 277.5C1006.04 277.5 1013.14 276.3 1020.54 273.9C1027.94 271.5 1034.74 267.8 1040.94 262.8C1047.34 257.6 1052.34 250.8 1055.94 242.4L1083.84 258.3C1079.44 268.9 1072.54 277.9 1063.14 285.3C1053.94 292.7 1043.54 298.3 1031.94 302.1C1020.54 305.9 1009.24 307.8 998.044 307.8C983.044 307.8 969.344 304.7 956.944 298.5C944.544 292.1 933.844 283.7 924.844 273.3C915.844 262.7 908.844 250.9 903.844 237.9C898.844 224.7 896.344 211.4 896.344 198ZM1197.49 93H1229.29L1312.09 306H1276.69L1254.19 248.1H1171.99L1149.79 306H1114.09L1197.49 93ZM1247.59 223.2L1213.39 129.9L1177.99 223.2H1247.59ZM1362.43 306V93H1455.13C1464.73 93 1473.53 95 1481.53 99C1489.53 103 1496.43 108.3 1502.23 114.9C1508.23 121.5 1512.83 128.9 1516.03 137.1C1519.43 145.3 1521.13 153.7 1521.13 162.3C1521.13 171.7 1519.43 180.7 1516.03 189.3C1512.63 197.9 1507.73 205.3 1501.33 211.5C1495.13 217.7 1487.83 222.2 1479.43 225L1529.53 306H1491.73L1445.53 231.9H1396.03V306H1362.43ZM1396.03 202.2H1454.83C1461.03 202.2 1466.53 200.4 1471.33 196.8C1476.13 193.2 1479.93 188.4 1482.73 182.4C1485.53 176.2 1486.93 169.5 1486.93 162.3C1486.93 154.9 1485.33 148.3 1482.13 142.5C1478.93 136.5 1474.73 131.7 1469.53 128.1C1464.53 124.5 1459.03 122.7 1453.03 122.7H1396.03V202.2ZM1584.77 306V93H1660.37C1683.37 93 1702.57 97.8 1717.97 107.4C1733.37 116.8 1744.87 129.6 1752.47 145.8C1760.27 161.8 1764.17 179.6 1764.17 199.2C1764.17 220.8 1759.87 239.6 1751.27 255.6C1742.87 271.6 1730.87 284 1715.27 292.8C1699.67 301.6 1681.37 306 1660.37 306H1584.77ZM1729.97 199.2C1729.97 184.2 1727.17 171 1721.57 159.6C1716.17 148 1708.27 139 1697.87 132.6C1687.67 126 1675.17 122.7 1660.37 122.7H1618.37V276.3H1660.37C1675.37 276.3 1687.97 272.9 1698.17 266.1C1708.57 259.3 1716.47 250.1 1721.87 238.5C1727.27 226.9 1729.97 213.8 1729.97 199.2ZM1949.23 143.1C1947.23 140.9 1944.33 138.6 1940.53 136.2C1936.73 133.6 1932.23 131.2 1927.03 129C1921.83 126.8 1916.23 125 1910.23 123.6C1904.23 122.2 1898.03 121.5 1891.63 121.5C1877.63 121.5 1867.23 124.1 1860.43 129.3C1853.63 134.5 1850.23 141.7 1850.23 150.9C1850.23 157.7 1852.13 163.1 1855.93 167.1C1859.73 170.9 1865.53 174.1 1873.33 176.7C1881.13 179.3 1890.93 182.1 1902.73 185.1C1917.13 188.5 1929.63 192.6 1940.23 197.4C1950.83 202 1958.93 208.2 1964.53 216C1970.13 223.8 1972.93 234.1 1972.93 246.9C1972.93 257.7 1970.93 267 1966.93 274.8C1962.93 282.6 1957.33 289 1950.13 294C1942.93 298.8 1934.63 302.4 1925.23 304.8C1915.83 307 1905.73 308.1 1894.93 308.1C1884.33 308.1 1873.73 307 1863.13 304.8C1852.73 302.6 1842.73 299.4 1833.13 295.2C1823.73 290.8 1815.03 285.5 1807.03 279.3L1822.33 250.5C1824.93 253.1 1828.63 256 1833.43 259.2C1838.43 262.2 1844.13 265.1 1850.53 267.9C1857.13 270.7 1864.23 273.1 1871.83 275.1C1879.63 276.9 1887.53 277.8 1895.53 277.8C1908.93 277.8 1919.13 275.5 1926.13 270.9C1933.33 266.1 1936.93 259.3 1936.93 250.5C1936.93 243.3 1934.63 237.6 1930.03 233.4C1925.43 229 1918.73 225.3 1909.93 222.3C1901.13 219.3 1890.63 216.3 1878.43 213.3C1864.43 209.5 1852.73 205.4 1843.33 201C1833.93 196.4 1826.83 190.6 1822.03 183.6C1817.43 176.4 1815.13 167.3 1815.13 156.3C1815.13 142.3 1818.53 130.5 1825.33 120.9C1832.13 111.1 1841.33 103.8 1852.93 99C1864.73 94 1877.93 91.5 1892.53 91.5C1902.13 91.5 1911.23 92.6 1919.83 94.8C1928.43 96.8 1936.43 99.6 1943.83 103.2C1951.43 106.8 1958.33 110.9 1964.53 115.5L1949.23 143.1Z" fill="white"/>
</svg>
