<svg width="200" height="200" viewBox="0 0 200 200" fill="none" xmlns="http://www.w3.org/2000/svg">
<path d="M146 200H56C39.4315 200 26 186.569 26 170V30C26 13.4315 39.4315 0 56 0H121.9C124.523 0.0110462 127.037 1.05256 128.9 2.9L173.1 47.1C174.947 48.9626 175.989 51.4766 176 54.1V170C176 186.569 162.569 200 146 200Z" fill="#4CAF50"/>
<path d="M169 57.3997H133C124.715 57.3997 118 50.684 118 42.3997V6.39975C117.991 4.16841 119.331 2.15283 121.392 1.29773C123.453 0.442636 125.826 0.9175 127.4 2.49975L172.9 47.9997C174.482 49.5731 174.957 51.9465 174.102 54.0075C173.246 56.0685 171.231 57.4086 169 57.3997Z" fill="#B9F6CA"/>
<path d="M72.9 161.1C70.07 161.197 67.258 160.614 64.7 159.4C62.402 158.282 60.4877 156.507 59.2 154.3C57.836 151.894 57.1452 149.165 57.2 146.4C57.1351 143.634 57.8267 140.902 59.2 138.5C60.4633 136.298 62.3875 134.548 64.7 133.5C67.2494 132.251 70.0618 131.634 72.9 131.7C74.0624 131.559 75.2376 131.559 76.4 131.7C77.7104 131.894 78.9886 132.264 80.2 132.8C80.9946 133.105 81.6637 133.669 82.1 134.4C82.4773 135.105 82.6504 135.902 82.6 136.7C82.5334 137.445 82.2937 138.164 81.9 138.8C81.5366 139.449 80.9215 139.919 80.2 140.1C79.4716 140.443 78.6283 140.443 77.9 140.1C76.6818 139.517 75.3503 139.21 74 139.2C72.2473 139.096 70.5346 139.752 69.3 141C68.1516 142.481 67.5828 144.33 67.7 146.2C67.5637 148.072 68.1346 149.928 69.3 151.4C70.4923 152.721 72.2248 153.421 74 153.3H75.9L77.9 152.6C78.6283 152.257 79.4716 152.257 80.2 152.6C80.8896 152.794 81.4685 153.265 81.8 153.9C82.2365 154.515 82.4802 155.246 82.5 156C82.5881 156.801 82.4125 157.608 82 158.3C81.5637 159.031 80.8946 159.595 80.1 159.9C78.9021 160.377 77.6638 160.745 76.4 161L72.9 161.1Z" fill="#E8F5E9"/>
<path d="M98.8996 161.099C97.2029 161.248 95.4964 161.248 93.7996 161.099C92.1763 160.906 90.5917 160.467 89.0996 159.799C88.0499 159.508 87.1759 158.779 86.6996 157.799C86.4022 156.958 86.4022 156.04 86.6996 155.199C86.9611 154.354 87.5327 153.64 88.2996 153.199C89.1757 152.737 90.2235 152.737 91.0996 153.199C92.4497 153.757 93.8587 154.16 95.2996 154.399C96.5623 154.542 97.837 154.542 99.0996 154.399C100.136 154.482 101.175 154.274 102.1 153.799C102.669 153.471 103.015 152.857 103 152.199C103.033 151.692 102.807 151.203 102.4 150.899C102.005 150.5 101.527 150.192 101 149.999L94.6996 148.899C92.6351 148.717 90.6947 147.835 89.1996 146.399C87.8564 144.968 87.1369 143.061 87.1996 141.099C87.1996 139.26 87.7961 137.471 88.8996 135.999C90.1089 134.506 91.6978 133.366 93.4996 132.699C95.6696 131.871 97.9773 131.464 100.3 131.499C101.864 131.383 103.435 131.383 105 131.499C106.409 131.784 107.784 132.22 109.1 132.799C110.033 133.132 110.767 133.866 111.1 134.799C111.397 135.64 111.397 136.558 111.1 137.399C110.792 138.224 110.185 138.902 109.4 139.299C108.524 139.762 107.476 139.762 106.6 139.299C105.498 138.841 104.361 138.473 103.2 138.199C102.302 138.11 101.397 138.11 100.5 138.199C99.3561 138.123 98.2138 138.365 97.1996 138.899C96.5911 139.201 96.2043 139.82 96.1996 140.499C96.1996 141.499 96.8996 142.099 98.2996 142.399L104.7 143.499C106.77 143.697 108.728 144.536 110.3 145.899C111.657 147.281 112.381 149.164 112.3 151.099C112.422 153.96 111.061 156.681 108.7 158.299C105.839 160.304 102.388 161.29 98.8996 161.099Z" fill="#E8F5E9"/>
<path d="M129.4 161C126.832 161.049 124.526 159.432 123.7 157L115.5 138.3C114.802 136.881 114.802 135.218 115.5 133.8C116.47 132.354 118.173 131.58 119.9 131.8C120.943 131.746 121.97 132.065 122.8 132.7C123.815 133.523 124.549 134.641 124.9 135.9L129.7 148.3L134.8 135.8C135.186 134.61 135.875 133.542 136.8 132.7C137.742 132.064 138.864 131.749 140 131.8C140.98 131.758 141.94 132.079 142.7 132.7C143.431 133.298 143.898 134.16 144 135.1C144.171 136.192 143.996 137.311 143.5 138.3L135.1 157.1C134.265 159.512 131.951 161.096 129.4 161Z" fill="#E8F5E9"/>
</svg>
