<svg width="200" height="200" viewBox="0 0 200 200" fill="none" xmlns="http://www.w3.org/2000/svg">
<path d="M159.159 200H41.5682C34.1057 200 28 193.894 28 186.432V14.5682C28 7.10568 34.1057 1 41.5682 1H122.977L172.727 50.75V186.432C172.727 193.894 166.622 200 159.159 200Z" fill="#0DC54C"/>
<path d="M122.977 1L172.727 50.75H122.977V1Z" fill="#08962D"/>
<path d="M55.1362 79.0171V142.335H145.591V79.0171H55.1362ZM66.443 90.3239H94.7101V105.023H66.443V90.3239ZM66.443 116.33H94.7101V131.028H66.443V116.33ZM134.284 131.028H106.017V116.33H134.284V131.028ZM134.284 105.023H106.017V90.3239H134.284V105.023Z" fill="#FDFFFF"/>
</svg>
