<svg width="1024" height="1024" viewBox="0 0 1024 1024" fill="none" xmlns="http://www.w3.org/2000/svg">
<g filter="url(#filter0_d)">
<rect x="100" y="100" width="824" height="824" rx="184" fill="url(#paint0_linear)"/>
</g>
<g clip-path="url(#clip0)">
<rect x="100" y="100" width="824" height="824" rx="184" fill="url(#paint1_radial)"/>
<path fill-rule="evenodd" clip-rule="evenodd" d="M442.202 682.402V781.279L769.791 1099.11L1107.7 771.265L729.156 403.992L442.202 682.402Z" fill="url(#paint2_linear)"/>
<path fill-rule="evenodd" clip-rule="evenodd" d="M503.766 241.6L295 444.434V619.273L395.174 716.6L732.8 388.569L581.533 241.6H503.766Z" fill="url(#paint3_linear)"/>
<rect x="437.755" y="399.505" width="295.674" height="386.113" rx="15" fill="white"/>
<path fill-rule="evenodd" clip-rule="evenodd" d="M305.334 237.284C297.05 237.284 290.334 244 290.334 252.284V608.397C290.334 616.682 297.05 623.397 305.334 623.397H385.839V363.56C385.839 355.276 392.555 348.56 400.839 348.56H586.008V252.284C586.008 244 579.292 237.284 571.008 237.284H305.334Z" fill="white"/>
</g>
<defs>
<filter id="filter0_d" x="78" y="89" width="868" height="868" filterUnits="userSpaceOnUse" color-interpolation-filters="sRGB">
<feFlood flood-opacity="0" result="BackgroundImageFix"/>
<feColorMatrix in="SourceAlpha" type="matrix" values="0 0 0 0 0 0 0 0 0 0 0 0 0 0 0 0 0 0 127 0"/>
<feOffset dy="11"/>
<feGaussianBlur stdDeviation="11"/>
<feColorMatrix type="matrix" values="0 0 0 0 0 0 0 0 0 0 0 0 0 0 0 0 0 0 0.28 0"/>
<feBlend mode="normal" in2="BackgroundImageFix" result="effect1_dropShadow"/>
<feBlend mode="normal" in="SourceGraphic" in2="effect1_dropShadow" result="shape"/>
</filter>
<linearGradient id="paint0_linear" x1="512" y1="100" x2="512" y2="924" gradientUnits="userSpaceOnUse">
<stop stop-opacity="0"/>
<stop offset="1" stop-opacity="0.2"/>
</linearGradient>
<radialGradient id="paint1_radial" cx="0" cy="0" r="1" gradientUnits="userSpaceOnUse" gradientTransform="translate(100 100) rotate(45) scale(1165.31)">
<stop stop-color="#FF7B72"/>
<stop offset="0.723958" stop-color="#C62828"/>
</radialGradient>
<linearGradient id="paint2_linear" x1="563.748" y1="564.508" x2="922.98" y2="934.767" gradientUnits="userSpaceOnUse">
<stop stop-opacity="0.1"/>
<stop offset="1" stop-opacity="0"/>
</linearGradient>
<linearGradient id="paint3_linear" x1="391.653" y1="348.348" x2="577.382" y2="539.509" gradientUnits="userSpaceOnUse">
<stop stop-opacity="0.15"/>
<stop offset="1" stop-opacity="0"/>
</linearGradient>
<clipPath id="clip0">
<rect x="100" y="100" width="824" height="824" rx="184" fill="white"/>
</clipPath>
</defs>
</svg>
