<svg width="406" height="306" viewBox="0 0 379.89 314.71" xmlns="http://www.w3.org/2000/svg" xmlns:usvg="https://github.com/RazrFalcon/resvg" usvg:version="0.9.1">
    <defs>
        <linearGradient id="linear-gradient" x1="210.56" y1="183.59" x2="198.18" y2="24.3" gradientUnits="userSpaceOnUse">
            <stop offset="0.01" stop-color="#000000"/>
            <stop offset="0.13" stop-color="#000000" stop-opacity="0.69"/>
            <stop offset="0.25" stop-color="#000000" stop-opacity="0.32"/>
            <stop offset="1" stop-color="#000000" stop-opacity="0"/>
        </linearGradient>
        <linearGradient id="linear-gradient-2" x1="67.75" y1="200.54" x2="131.95" y2="219.06" gradientUnits="userSpaceOnUse">
            <stop offset="0.01" stop-color="#000000"/>
            <stop offset="0.13" stop-color="#000000" stop-opacity="0.69"/>
            <stop offset="0.25" stop-color="#000000" stop-opacity="0.32"/>
            <stop offset="1" stop-color="#000000" stop-opacity="0"/>
        </linearGradient>
        <linearGradient id="linear-gradient-3" x1="347.27" y1="194.23" x2="225.46" y2="275.21" gradientUnits="userSpaceOnUse" gradientTransform="matrix(0.9106115466114877 0.41326336781504636 -0.41326336781504636 0.9106115466114877 120.5 -102.76)">
            <stop offset="0.01" stop-color="#000000"/>
            <stop offset="0.13" stop-color="#000000" stop-opacity="0.69"/>
            <stop offset="0.25" stop-color="#000000" stop-opacity="0.32"/>
            <stop offset="1" stop-color="#000000" stop-opacity="0"/>
        </linearGradient>
        <linearGradient id="linear-gradient-4" x1="87.76" y1="97.83" x2="227.31" y2="32.91" gradientUnits="userSpaceOnUse">
            <stop offset="0.01" stop-color="#000000"/>
            <stop offset="0.13" stop-color="#000000" stop-opacity="0.69"/>
            <stop offset="0.25" stop-color="#000000" stop-opacity="0.32"/>
            <stop offset="1" stop-color="#000000" stop-opacity="0"/>
        </linearGradient>
    </defs>
    <g opacity="0.18" transform="matrix(1 0 0 1 -23.72 -5.99)">
        <path fill="#1a73e8" stroke="none" d="M 254.37 14.19 C 242.32 8.48 228.8 6.58 215.47 6.1 C 184.47 4.97 150.37 12.87 131.77 37.71 C 125.33 46.31 121.19 56.36 116.46 66 C 106.30977385436 86.6923061061 93.26559115919 105.83432433585 77.72 122.85 C 67.39 134.15 55.96 144.5 46.72 156.73 C 25.35 185.13 17.49 224 29 257.66 C 40.51 291.32 72.27 317.84 107.72 320.46 C 128.99 322.03 149.93 315.56 171.05 312.57 C 217.86 305.95 265.17 316.49 312.34 319.8 C 329.9 321.03 348.34 321.09 364.06 313.17 C 392.06 299.07 402.84 264.22 403.53 232.86 C 405.16 158.24 365.62 93.68 305.37 52.78 C 287.8 40.83 273.78 23.4 254.37 14.19 Z"/>
    </g>
    <path fill="#ffffff" stroke="none" transform="matrix(1 0 0 1 -23.72 -5.99)" d="M 301.2 104 C 301.208274507 109.10177368755 299.11386236274 113.98150077322 295.41 117.49 C 292.25276034274 120.47683223773 288.18693726504 122.32141344354 283.86 122.73 C 283.05345098782 122.82197222646 282.24155997485 122.85872449454 281.43 122.84 L 145.88 120.08 C 134.96 119.87 126.13 111.08 126.13 100.45 C 126.12657382861 95.36288826182 128.21695570155 90.49859134296 131.91 87 C 135.68542373913 83.43525038685 140.71942256922 81.51154369107 145.91 81.65 L 150.51 81.74 C 149.52901787808 78.38357971901 149.0207921453 74.90677718948 149 71.41 C 148.99082678278 61.35593768118 153.11686159934 51.74057696493 160.41 44.82 C 163.62958079468 41.77994274826 167.35121322557 39.32028204166 171.41 37.55 C 176.63616356048 35.26576601736 182.29793400312 34.14979318147 188 34.28 L 199.52 34.52 C 214.02105806994 34.78734225773 227.2444840002 42.87363743174 234.09 55.66 C 237.41266028792 54.08851075636 241.05529359602 53.31137000359 244.73 53.39 L 247.73 53.45 C 260.67 53.71 271.17 64.14 271.17 76.74 L 271.17 77.86 C 271.17238424752 79.98380119221 270.86240069552 82.09640648684 270.25 84.13 L 281.47 84.37 C 292.34 84.58 301.2 93.37 301.2 104 Z"/>
    <path fill="url(#linear-gradient)" stroke="none" transform="matrix(1 0 0 1 -23.72 -5.99)" d="M 283.86 122.73 C 283.05345098782 122.82197222646 282.24155997485 122.85872449454 281.43 122.84 L 145.88 120.08 C 134.96 119.87 126.13 111.08 126.13 100.45 C 126.12657382861 95.36288826182 128.21695570155 90.49859134296 131.91 87 C 126.58 120.46 161.51 115.68 161.51 115.68 L 249.58 115.68 Z"/>
    <path fill="#ffffff" stroke="none" transform="matrix(1 0 0 1 -23.72 -5.99)" d="M 107.34 180.6 L 107.21 180.52 L 107.58 180.59 Z"/>
    <path fill="#ffffff" stroke="none" transform="matrix(1 0 0 1 -23.72 -5.99)" d="M 111.28 181.25 L 107.58 180.59 L 111.58 180.36 C 111.38 180.93 111.28 181.25 111.28 181.25 Z"/>
    <path fill="#ffffff" stroke="none" transform="matrix(1 0 0 1 -23.72 -5.99)" d="M 129.55 130 L 127.37 140.76 L 124.37 141.76 L 117.3 163.11 C 115.96666666667 167.07 114.65333333333 171.03333333333 113.36 175 C 112.95 176.27 112.65 178.4 111.79 179.44 C 110.93 180.48 109.88 180.19 108.79 180.24 L 106.98 180.32 C 107.05191928074 180.37692691151 107.1289084479 180.42713723791 107.21 180.47 L 106.5 180.33 L 105.5 180.16 L 106.06 178.71 L 120.82 140.08 L 120.82 135.08 L 126.37 128.52 Z"/>
    <path fill="#ffbbab" stroke="none" transform="matrix(1 0 0 1 -23.72 -5.99)" d="M 71.22 271.13 C 69.87963805148 271.73856891536 68.68850386759 272.63277280126 67.73 273.75 C 66.92442272723 274.95311535345 66.50253386664 276.37219606635 66.52 277.82 C 66.44698144803 280.98220539904 67.60095207761 284.04990371866 69.74 286.38 C 69.9840760058 286.71209189767 70.33869197367 286.94613843647 70.74 287.04 C 71.05652249764 287.05779730784 71.37082501157 286.97747555428 71.64 286.81 C 73.03155230577 285.86847078299 74.02261771826 284.44247738372 74.42 282.81 C 74.79627879153 281.17632041987 75.4453812767 279.61779830703 76.34 278.2 C 78.25 275.71 85.44 273.32 82.01 269.09 C 79.18 265.53 74 269.64 71.22 271.13 Z"/>
    <path fill="#282328" stroke="none" transform="matrix(1 0 0 1 -23.72 -5.99)" d="M 94 232.27 C 96.1856487188 235.76838362106 98.15274040553 239.39865299878 99.89 243.14 C 102.89 249.7 102.97 255.26 97.95 260.74 C 93.36 265.74 88.71 270.81 83.05 274.56 C 81.72 275.44 80.17 276.28 78.6 275.98 C 76.29 275.52 75.13 272.67 75.6 270.36 C 76.07 268.05 77.72 266.17 79.23 264.36 C 81.81 261.29 88.6 255.04 87.23 251.09 C 85.35 245.82 79.83 241.89 77.06 237.09 C 76.70156688748 236.62034765837 76.55976765159 236.02042781422 76.67 235.44 C 76.81 235.01 75.16 231.69 75.53 231.44 C 79.13 228.88 85.07 229.77 89.18 228.15 C 89.58517313594 227.94661832427 90.03786594601 227.85677089632 90.49 227.89 C 91.12658989147 228.10041653996 91.65469814182 228.55308075454 91.96 229.15 C 92.62 230.15666666667 93.3 231.19666666667 94 232.27 Z"/>
    <path fill="#1a73e8" stroke="none" transform="matrix(1 0 0 1 -23.72 -5.99)" d="M 66.34 272.72 C 66.34 272.72 64.34 272.87 63.78 274.18 C 63.22 275.49 62.12 286.66 69.24 290.3 C 76.36 293.94 70.24 280.11 70.24 280.11 Z"/>
    <path fill="#ffffff" stroke="none" transform="matrix(1 0 0 1 -23.72 -5.99)" d="M 70.38 271.15 C 70.90931902807 271.55953817848 71.06201070231 272.2933065019 70.74 272.88 C 69.9995796925 274.66155036264 70.23016077604 276.69897993684 71.35 278.27 C 72.73 279.93 75.26 279.61 75.73 280.54 C 76.2 281.47 74.42 288.54 72.73 289.71 C 71.04 290.88 68.46 289.01 66.89 286.28 C 65.32 283.55 64.14 276.28 65.02 274.28 C 65.9 272.28 69.12 271 70.38 271.15 Z"/>
    <path fill="#ffbbab" stroke="none" transform="matrix(1 0 0 1 -23.72 -5.99)" d="M 104 273.87 C 103.73652153417 275.31439359459 103.79112279835 276.79886546444 104.16 278.22 C 104.68927587692 279.570921811 105.61701760617 280.72885509713 106.82 281.54 C 109.37833668874 283.39963658623 112.55637334954 284.19862438257 115.69 283.77 C 116.10981317653 283.74929168464 116.5093316284 283.58312029316 116.82 283.3 C 117.01465122855 283.05039324529 117.1265218062 282.74624511231 117.14 282.43 C 117.15877505693 280.74028227865 116.54120783765 279.10533553628 115.41 277.85 C 114.28523108878 276.60992834103 113.37599816413 275.19030816127 112.72 273.65 C 111.72 270.65 113.88 263.39 108.46 263.8 C 103.89 264.14 104.31 270.75 104 273.87 Z"/>
    <path fill="#473f47" stroke="none" transform="matrix(1 0 0 1 -23.72 -5.99)" d="M 85 233.05 C 89.11702193624 233.2493013716 93.21800662591 233.70014252233 97.28 234.4 C 104.41 235.64 109 238.77 110.65 246.02 C 112.15 252.64 113.65 259.35 113.53 266.14 C 113.53 267.73 113.3 269.49 112.16 270.6 C 110.46 272.25 107.46 271.6 105.84 269.86 C 104.22 268.12 103.6 265.74 102.97 263.46 C 101.91 259.59 100.65 250.46 96.6 249.36 C 89.72 247.51 82.6 251.73 75.83 249 C 73.41529800788 248.11216138293 71.12088743752 246.92632400176 69 245.47 C 66.88108875125 243.98876957621 65.26557838148 241.8952356197 64.37 239.47 C 63.97520327835 238.18953180918 63.76311143886 236.85974964099 63.74 235.52 C 63.67149797854 234.41479963086 63.71841831866 233.30546873216 63.88 232.21 C 64.11 230.95 64.32 231.1 65.61 231.13 C 67.77 231.13 69.93 231.37 72.09 231.62 C 76.4 232.14 80.66 232.85 85 233.05 Z"/>
    <path fill="#1a73e8" stroke="none" transform="matrix(1 0 0 1 -23.72 -5.99)" d="M 102.49 278.78 C 102.49 278.78 101.49 280.51 102.24 281.72 C 102.99 282.93 111.55 290.19 118.6 286.41 C 125.65 282.63 110.78 279.8 110.78 279.8 Z"/>
    <path fill="#ffffff" stroke="none" transform="matrix(1 0 0 1 -23.72 -5.99)" d="M 103.5 274.57 C 104.13934779002 274.36202868994 104.83428375499 274.65620403707 105.13 275.26 C 106.17994433802 276.88178943858 107.98813497651 277.85194600245 109.92 277.83 C 112.06 277.64 113.24 275.38 114.27 275.52 C 115.3 275.66 120.1 281.15 120.1 283.2 C 120.1 285.25 117.1 286.31 113.96 286.04 C 110.82 285.77 104.13 282.59 103.04 280.76 C 101.95 278.93 102.63 275.49 103.5 274.57 Z"/>
    <path fill="#ffffff" stroke="none" transform="matrix(1 0 0 1 -23.72 -5.99)" d="M 102.43 207.27 C 102.33 208.94 101.79 210.41 100.34 210.89 L 99.96 210.99 C 97.29 211.53 93.78 209.49 91.33 207.71 C 90.31388559939 206.9742183218 89.33907538553 206.18301962083 88.41 205.34 L 88.41 187.43 L 101.41 200.75 C 102.10039737369 202.85386224116 102.44487293436 205.05580406035 102.43 207.27 Z"/>
    <path fill="#ffffff" stroke="none" transform="matrix(1 0 0 1 -23.72 -5.99)" d="M 91.43 207.66 C 91.43 208.49 91.53 209.34 91.54 210.18 C 91.54 214.81 90.46 219.58 91.84 224.11 C 92.29046799389 225.07727169562 92.42684476489 226.16129218311 92.23 227.21 C 91.82629646953 228.04184746345 91.13810093137 228.70166380416 90.29 229.07 C 86.22 231.3 81.5 231.98 76.9 232.63 C 73.44 233.12 68.53 234.14 65.33 232.28 C 63.97 231.49 63.51 230.01 63.07 228.53 C 61.84544589466 223.75484115308 61.12154104313 218.8651319939 60.91 213.94 C 60.91 213.3 60.82 212.66 60.78 212.02 C 60.52 207.58666666667 60.43 203.15333333333 60.51 198.72 C 60.58 195.5 60.83 192.03 62.93 189.6 C 65.73 186.37 71.13 184.23 75.23 183.47 C 76.54601515957 183.20625544074 77.89299831486 183.1321713672 79.23 183.25 C 81.14907387231 183.55415828026 83.00227300434 184.18316382507 84.71 185.11 C 86.71 186.11 88.55 186.97 89.56 188.98 C 90.65431504849 191.30920088309 91.41834504121 193.7796767186 91.83 196.32 C 92.19822083145 198.69976508609 92.24195279989 201.1184793406 91.96 203.51 C 91.84 204.69 91.53 205.85 91.42 207.02 C 91.44 207.23 91.43 207.44 91.43 207.66 Z"/>
    <g opacity="0.1" transform="matrix(1 0 0 1 -23.72 -5.99)">
        <path fill="#020202" stroke="none" d="M 72.55 233.85 C 71.21 234.25 68.12 233.02 67.09 232.85 C 66.47 232.74 65.91 232.43 65.3 232.28 C 62.24 231.52 61.88 222.91 61.58 220.6 C 60.78 214.47 59.58 208.13 59.49 201.99 C 59.35694620792 199.62749214196 59.6309346016 197.25969120886 60.3 194.99 C 60.99857191366 192.69049725416 62.68451144681 190.82130342391 64.9 189.89 C 65.32380195372 189.70211970699 65.79529266376 189.64973185032 66.25 189.74 C 68.12 190.22 68.51 193.29 68.83 194.79 C 69.31 197.08 70.13 199.45 72.12 200.86 C 76.96 204.31 85.12 201.75 90.35 200.86 C 90.81788051122 200.73603229797 91.31199754923 200.75343078522 91.77 200.91 C 92.44504627662 201.32909746064 92.75302557676 202.15037559435 92.52 202.91 C 92.2693618994 203.64330067106 91.93374464306 204.34474073681 91.52 205 C 90.27 207.52 90.6 210.51 89.9 213.23 C 88.87717303424 216.47831141028 86.80117678373 219.29322158047 84 221.23 C 81.2091036667 223.14199814773 78.27356462197 224.83377805277 75.22 226.29 C 74.5357008125 226.60866192091 73.91285797616 227.04532890943 73.38 227.58 C 72.75728778778 228.36874916538 72.44114461033 229.35625257358 72.49 230.36 C 72.49 231 73.31 232.96 73.07 233.36 C 72.9782318453 233.59258456082 72.78762128752 233.77219835565 72.55 233.85 Z"/>
    </g>
    <path fill="#ffbbab" stroke="none" transform="matrix(1 0 0 1 -23.72 -5.99)" d="M 82 179.64 C 81.50719640021 180.16979623082 80.83951914453 180.50363485865 80.12 180.58 C 79.51457202229 180.63482595378 78.90542797771 180.63482595378 78.3 180.58 L 77.96 180.58 C 77.87950829581 180.54922322769 77.79049170419 180.54922322769 77.71 180.58 C 77.64067195263 180.65295666473 77.60139388947 180.74936645613 77.6 180.85 C 77.47165991579 182.06238442524 77.44823960681 183.28358625053 77.53 184.5 L 77.53 184.5 L 77.59 185.16 C 77.63625305353 185.38769542841 77.61540954489 185.62392185969 77.53 185.84 C 77.35813804686 186.09053124199 77.09696148823 186.26584153477 76.8 186.33 C 76.26632836083 186.50220131873 75.7106038058 186.59650609171 75.15 186.61 C 73.95392358796 186.49524543181 72.80395566783 186.09018210472 71.8 185.43 C 71.88049820978 183.35426136693 71.77003354067 181.27551713908 71.47 179.22 C 71.09 176.57 70.39 173.91 70.68 171.22 C 70.73771097065 170.16450489825 71.11819837527 169.15219895936 71.77 168.32 C 72.84402528001 167.30474634408 74.29623046575 166.78921350314 75.77 166.9 C 77.6819674087 166.86823629604 79.56295504566 167.38533437336 81.19 168.39 C 81.79 168.79 81.86 169.31 82 169.99 C 82.2 170.99 82.37 172.1 82.49 173.16 C 82.61 174.22 82.69 175.58 82.71 176.8 C 82.82709495864 177.80154237782 82.5746331413 178.81138964716 82 179.64 Z"/>
    <path fill="#473f47" stroke="none" transform="matrix(1 0 0 1 -23.72 -5.99)" d="M 79.78 168.89 C 79.42903643386 169.05412529832 79.05447220127 169.16210777979 78.67 169.21 C 77.67419568411 169.18537042776 76.68107215482 169.32386724647 75.73 169.62 C 73.92363886544 170.51581625396 73.06640529365 172.61603850485 73.73 174.52 C 73.21 174.71 73.12 173.77 72.73 173.39 C 72.34 173.01 71.42 173.52 71.36 174.17 C 71.42004454368 174.82325158599 71.63983302174 175.45170926545 72 176 C 72.4926032178 177.14698891402 72.5773074851 178.42814095687 72.24 179.63 C 72.16 179.91 71.95 180.25 71.67 180.17 C 71.39 180.09 71.19 179.62 71.01 179.41 C 70.73838854158 179.07679254449 70.43715822822 178.76886822417 70.11 178.49 C 69.28 177.76 68.99 177.22 67.76 177.38 C 67.19448701065 177.54039892667 66.59551298935 177.54039892667 66.03 177.38 C 65.49 177.15 65.16 176.38 65.59 175.97 C 64.51 175.83 64.04 174.48 64.19 173.41 C 64.27075792055 172.81096421461 64.46778231376 172.23347892416 64.77 171.71 C 64.99117536116 171.40060087709 65.17259644867 171.06463590022 65.31 170.71 C 65.40947214778 169.98673747606 65.40947214778 169.25326252394 65.31 168.53 C 65.42759078992 167.19839248951 66.27531492396 166.042405034 67.51 165.53 C 68.71991285965 165.05336176035 70.02593345041 164.87168435534 71.32 165 C 71.55156765949 165.03309727951 71.78776465043 164.99836242791 72 164.9 C 72.1636874042 164.77059720444 72.29684527344 164.60671059615 72.39 164.42 C 73.58280765286 162.52936556769 75.79658582827 161.54283340396 78 161.92 C 79.37000796164 162.26331295217 80.64715835617 162.90530299006 81.74 163.8 C 82.09905762695 164.02025614152 82.39796008244 164.32602991783 82.61 164.69 C 82.76340003769 165.08416611428 82.81832122751 165.50980533537 82.77 165.93 C 82.7318495509 166.62660447901 82.65842205311 167.32082809449 82.55 168.01 C 82.53644571296 168.29497213384 82.40181912367 168.56058675596 82.18 168.74 C 81.87 168.92 81.5 168.74 81.18 168.66 C 80.70073824692 168.58071762161 80.20870596533 168.66155149644 79.78 168.89 Z"/>
    <path fill="#e0a194" stroke="none" transform="matrix(1 0 0 1 -23.72 -5.99)" d="M 78.27 180.62 L 77.93 180.62 C 77.84950829581 180.58922322769 77.76049170419 180.58922322769 77.68 180.62 C 77.61067195263 180.69295666473 77.57139388947 180.78936645613 77.57 180.89 C 77.44165991579 182.10238442524 77.41823960681 183.32358625053 77.5 184.54 L 77.5 184.54 C 75.2952395658 183.8321112492 73.8915366562 181.67224695081 74.14 179.37 C 75.45991123943 179.91985681983 76.83419841781 180.32879105339 78.24 180.59 Z"/>
    <path fill="#ffffff" stroke="none" transform="matrix(1 0 0 1 -23.72 -5.99)" d="M 113.28 202.64 C 111.5719157458 205.06188065028 109.45734282547 207.16968693727 107.03 208.87 C 105.28570234734 210.06322075436 103.26478426079 210.78964957253 101.16 210.98 C 100.88339198944 211.00587300199 100.60441123632 210.97525316323 100.34 210.89 C 99.88883668719 210.75916219701 99.49231239257 210.48545516179 99.21 210.11 C 98.33334561442 209.06030665947 97.80555061406 207.76353881088 97.7 206.4 C 97.56 202.83 101.42 200.75 101.42 200.75 C 101.42 200.75 110.23 197.94 111.27 198.4 C 111.85 198.65 112.39 199.89 112.77 200.96 C 113.08 201.86 113.28 202.64 113.28 202.64 Z"/>
    <g opacity="0.1" transform="matrix(1 0 0 1 -23.72 -5.99)">
        <path fill="#020202" stroke="none" d="M 113.28 202.64 C 111.5719157458 205.06188065028 109.45734282547 207.16968693727 107.03 208.87 C 105.28570234734 210.06322075436 103.26478426079 210.78964957253 101.16 210.98 C 100.88339198944 211.00587300199 100.60441123632 210.97525316323 100.34 210.89 L 99.96 210.99 C 97.29 211.53 93.78 209.49 91.33 207.71 L 91.33 207.66 L 92.15 202.3 C 93.75427358391 203.95834988641 95.61886320496 205.34328058321 97.67 206.4 C 99.12011489517 207.16827421884 100.77141981124 207.47200260721 102.4 207.27 C 102.83907539326 207.19825796238 103.26633484592 207.06705230369 103.67 206.88 C 106.94055978482 205.31419333238 109.99021352361 203.32368063848 112.74 200.96 C 113.08 201.86 113.28 202.64 113.28 202.64 Z"/>
    </g>
    <path fill="#1a73e8" stroke="none" transform="matrix(1 0 0 1 -23.72 -5.99)" d="M 116.14 188.69 C 115.76 189.69 112.39 191.09 112.39 191.09 L 109.2 201 C 109.2 201 96.42 237.2 93.89 239 C 92.52 240 89.8 239.39 87.21 238.26 C 85.2456007402 237.45409292014 83.41478412102 236.35492861471 81.78 235 C 79.42 232.81 93.89 199.15 93.89 199.15 L 98.89 185.66 C 98.89 185.66 97.69 183.89 98.89 180.2 C 99.45 178.47 102.51 178.58 105.79 179.36 C 109.57 180.29 113.66 182.13 114.61 183.18 C 116.0058026988 184.64724669311 116.57945492139 186.71314456662 116.14 188.69 Z"/>
    <path fill="url(#linear-gradient-2)" stroke="none" transform="matrix(1 0 0 1 -23.72 -5.99)" d="M 103.07 193.92 C 102.88959818265 195.15334582377 102.4314049523 196.32960307183 101.73 197.36 C 100.95831015482 198.80889613319 99.94356729962 200.11453194021 98.73 201.22 C 98.10136387812 201.63770652315 97.52113106519 202.12402882301 97 202.67 C 96.47310465688 203.54836512736 96.07567825365 204.49814687066 95.82 205.49 C 95.07264610642 207.42167765786 93.57582803306 208.96899079875 91.67 209.78 C 88.37 215.28 88.15 222.01 87.03 228.33 C 86.57798736739 230.2997888144 86.32339611428 232.30971975994 86.27 234.33 C 86.27070165883 235.71797885127 86.59241877289 237.08698784727 87.21 238.33 C 85.24120652462 237.50256034028 83.41014770959 236.37964581836 81.78 235 C 79.42 232.81 93.89 199.15 93.89 199.15 L 98.89 185.66 C 98.89 185.66 97.69 183.89 98.89 180.2 C 99.45 178.47 102.51 178.58 105.79 179.36 L 105.47 180.2 L 106.47 180.37 L 102.99 180.53 C 102.57656629138 180.51459068693 102.16630096229 180.60767609773 101.8 180.8 C 101.55563300488 180.97816012458 101.36528641557 181.22041942006 101.25 181.5 C 100.55 183.12 101.76 184.97 103.25 185.95 C 104.74 186.93 106.5 187.41 107.86 188.56 L 102.51 188.01 C 102.31780902715 187.95066300366 102.11219097285 187.95066300366 101.92 188.01 C 101.77483009372 188.12666048874 101.66134649543 188.27797195312 101.59 188.45 C 101.4 188.85 101.2 189.24 101.01 189.64 C 100.92292696907 189.78072976198 100.88104860291 189.94475336278 100.89 190.11 C 100.89 190.42 101.29 190.56 101.56 190.7 C 102.66626483593 191.37093882164 103.26158986404 192.64043987496 103.07 193.92 Z"/>
    <path fill="#ffbbab" stroke="none" transform="matrix(1 0 0 1 -23.72 -5.99)" d="M 95.68 190.9 L 96.02 190.38 C 96.16 190.15 96.39 189.9 96.64 189.99 C 96.89 190.08 96.92 190.44 97.14 190.57 C 97.25231071757 190.62225533015 97.37769959054 190.6396704514 97.5 190.62 C 98.62470589454 190.56467605139 99.75207763411 190.60481985221 100.87 190.74 C 101.55730975388 190.78578385614 102.1622666061 191.20963897553 102.44 191.84 C 102.54514445291 192.29025324412 102.5243870006 192.76075549647 102.38 193.2 C 102.19975186628 194.33884410216 101.73162518161 195.41278179051 101.02 196.32 C 100.36974262037 196.93058937828 99.60966702255 197.41242301619 98.78 197.74 C 98.06020737383 198.02247743619 97.38622657831 198.41001639362 96.78 198.89 C 95.98 199.41 95.39 200.21 94.61 200.77 C 93.73522264464 201.54671086967 92.41454814974 201.53534339241 91.55327022081 200.7436897272 C 90.69199229188 199.95203606198 90.56960405909 198.63699558295 91.27 197.7 L 92.46 195.88 Z"/>
    <path fill="#ffffff" stroke="none" transform="matrix(0.942466581022128 -0.3343003793842608 0.3343003793842608 0.942466581022128 -88.16 28.94)" d="M 69.24 189.11 L 69.24 189.11 C 72.89060219638 189.11 75.85 192.06939780362 75.85 195.72 L 75.85 213.62 C 75.85 217.27060219638 72.89060219638 220.23 69.24 220.23 L 69.24 220.23 C 65.58939780362 220.23 62.63 217.27060219638 62.63 213.62 L 62.63 195.72 C 62.63 192.06939780362 65.58939780362 189.11 69.24 189.11 Z"/>
    <path fill="#ffffff" stroke="none" transform="matrix(1 0 0 1 -23.72 -5.99)" d="M 76.15 203.52 L 90.71 195.58 L 96.33 202 C 96.33 202 78 220.44 72.58 219.71 C 67.16 218.98 69.45 213.24 69.45 213.24 C 69.45 213.24 67.41 207.07 76.15 203.52 Z"/>
    <path fill="#ffbbab" stroke="none" transform="matrix(1 0 0 1 -23.72 -5.99)" d="M 110.24 193.79 C 109.21014242227 194.58140837845 108.80652017844 195.94565156259 109.24 197.17 C 109.30994171426 197.54479613495 109.43107569044 197.90819806348 109.6 198.25 C 109.8518274944 198.65041495993 110.16575038361 199.00821954333 110.53 199.31 L 111.37 200.07 C 111.46449796478 200.17830592175 111.58491775254 200.2608794905 111.72 200.31 C 112.00981126612 200.37352188623 112.30778459945 200.2446685529 112.46 199.99 C 112.60285902007 199.73777014801 112.69141936007 199.45846446033 112.72 199.17 C 112.97 197.65 113.88 195.17 113.45 193.66 C 112.9 191.87 111.06 192.86 110.24 193.79 Z"/>
    <path fill="#fc682d" stroke="none" transform="matrix(1 0 0 1 -23.72 -5.99)" d="M 317.24 178.77 C 318.43941045872 177.04908549535 320.2951926296 175.89871759995 322.37 175.59 C 326.51 175 329.82 177.99 331.49 181.51 C 332.49 183.57 332.99 185.92 334.55 187.59 C 335.88 189.02 337.78 189.74 339.55 190.54 C 343.78 192.43 347.81 195.08 350.4 198.91 C 351.21858438863 199.98361893037 351.70523454653 201.27324184881 351.8 202.62 C 351.8 204.55 350.51 206.34 350.65 208.27 C 350.81 210.43 352.65 212.03 353.6 213.98 C 354.87229718768 216.88949450319 354.3032901082 220.27606767283 352.15 222.61 C 349.93722722046 224.86260897845 346.76401905986 225.89296833412 343.65 225.37 C 340.56515314265 224.80988295828 337.80881329129 223.09744873155 335.94 220.58 C 331.94 215.39 331.69 207.73 326.74 203.47 C 325.4 202.32 323.68 201.36 323.15 199.66 C 322.77 198.47 323.09 197.19 323.04 195.94 C 322.91586624813 193.78346593433 321.69211678661 191.84208561575 319.8 190.8 C 316.85 189.22 313.35 189.89 312.61 185.64 C 312.26039103557 183.79079886313 313.15102118039 181.92857219668 314.81 181.04 C 315.21705940689 180.89539763125 315.60893897327 180.71118074107 315.98 180.49 C 316.39969852241 180.09922599944 316.73934413378 179.63051505577 316.98 179.11 C 317.0605366133 178.99210769495 317.14732749948 178.87861192071 317.24 178.77 Z"/>
    <path fill="#ffffff" stroke="none" transform="matrix(1 0 0 1 -23.72 -5.99)" d="M 288.25 197 C 288.29748625421 196.98075932357 288.34142438889 196.95372047147 288.38 196.92 L 288 197 Z"/>
    <path fill="#ffbbab" stroke="none" transform="matrix(1 0 0 1 -23.72 -5.99)" d="M 279.72 273 C 279.42342033351 274.45011428757 278.80863249462 275.81630948509 277.92 277 C 276.90930794071 278.02554747551 275.61289236656 278.72254509602 274.2 279 C 271.1271290573 279.74363212953 267.88587691179 279.2744564046 265.15 277.69 C 264.76945909704 277.51230129738 264.46208599814 277.20846122261 264.28 276.83 C 264.18544705293 276.52720988693 264.18544705293 276.20279011307 264.28 275.9 C 264.90437188472 274.32964859329 266.09667883971 273.05166688704 267.62 272.32 C 269.13065424369 271.59776092416 270.50971944127 270.62768319939 271.7 269.45 C 273.7 267.05 274.51 259.52 279.38 261.95 C 283.49 264 280.59 270 279.72 273 Z"/>
    <path fill="#282328" stroke="none" transform="matrix(1 0 0 1 -23.72 -5.99)" d="M 312.78 242.43 C 308.89792628548 241.04274966274 304.93367351109 239.89722421909 300.91 239 C 293.85 237.44 288.41 238.6 284.14 244.68 C 280.23 250.23 276.29 255.86 273.84 262.2 C 273.26 263.69 272.78 265.38 273.42 266.85 C 274.36 269.01 277.42 269.53 279.54 268.56 C 281.66 267.59 283.18 265.56 284.62 263.73 C 287.07 260.55 291.71 252.57 295.87 253.1 C 301.42 253.8 306.45 258.34 311.77 260.01 C 312.30794838068 260.24916680368 312.92205161932 260.24916680368 313.46 260.01 C 313.86 259.78 317.46 260.67 317.63 260.25 C 319.37 256.19 317.21 250.58 317.92 246.25 C 318.04059033223 245.81486705852 318.04059033223 245.35513294148 317.92 244.92 C 317.58704116557 244.33688527925 317.03102794573 243.91445965118 316.38 243.75 C 315.16 243.3 314 242.85 312.78 242.43 Z"/>
    <path fill="#1a73e8" stroke="none" transform="matrix(1 0 0 1 -23.72 -5.99)" d="M 279.22 278.09 C 279.22 278.09 279.51 280.09 278.35 280.91 C 277.19 281.73 266.52 285.22 261.43 279.04 C 256.34 272.86 271.17 275.89 271.17 275.89 Z"/>
    <path fill="#ffffff" stroke="none" transform="matrix(1 0 0 1 -23.72 -5.99)" d="M 279.89 273.81 C 279.38071953044 273.37353912909 278.62928046956 273.37353912909 278.12 273.81 C 276.53371817926 274.9080424014 274.49508695821 275.11568076651 272.72 274.36 C 270.81 273.36 270.57 270.83 269.57 270.57 C 268.57 270.31 262.04 273.57 261.26 275.47 C 260.48 277.37 262.86 279.47 265.86 280.47 C 268.86 281.47 276.27 281 277.97 279.72 C 279.67 278.44 280.35 275 279.89 273.81 Z"/>
    <path fill="#ffbbab" stroke="none" transform="matrix(1 0 0 1 -23.72 -5.99)" d="M 291.62 290.28 C 291.88302489699 291.72777210659 291.82843302343 293.21540066113 291.46 294.64 C 290.93886124895 296.00626975341 290.01023818958 297.17926730209 288.8 298 C 286.24112212146 299.85803291162 283.06243231921 300.6536012725 279.93 300.22 C 279.50804665546 300.20905075934 279.10525638621 300.04151852346 278.8 299.75 C 278.60367970093 299.50517414045 278.49146895312 299.20360775572 278.48 298.89 C 278.4606700752 297.19719059454 279.07814448491 295.55892033988 280.21 294.3 C 281.33658291353 293.06131741365 282.24602225642 291.6413749452 282.9 290.1 C 283.9 287.1 281.74 279.84 287.16 280.25 C 291.7 280.55 291.28 287.16 291.62 290.28 Z"/>
    <path fill="#473f47" stroke="none" transform="matrix(1 0 0 1 -23.72 -5.99)" d="M 310.62 249.47 C 306.50297806376 249.6693013716 302.40199337409 250.12014252233 298.34 250.82 C 291.21 252.05 286.62 255.19 284.97 262.43 C 283.47 269.06 281.97 275.76 282.09 282.55 C 282.09 284.15 282.32 285.9 283.46 287.01 C 285.16 288.66 288.16 288.01 289.78 286.28 C 291.4 284.55 292.02 282.15 292.65 279.88 C 293.71 276.01 294.97 266.88 299.03 265.77 C 305.9 263.92 313.08 268.15 319.79 265.42 C 322.18693976329 264.53025874579 324.46167084376 263.34081295187 326.56 261.88 C 328.67398607921 260.41522835373 330.28954293313 258.33908077688 331.19 255.93 C 331.59931504935 254.63578348465 331.81168942965 253.2873747208 331.82 251.93 C 331.88700248665 250.82509053621 331.84345290135 249.71625109508 331.69 248.62 C 331.46 247.36 331.24 247.5 329.96 247.53 C 327.79 247.53 325.63 247.78 323.47 248.02 C 319.19 248.56 314.93 249.26 310.62 249.47 Z"/>
    <path fill="#1a73e8" stroke="none" transform="matrix(1 0 0 1 -23.72 -5.99)" d="M 293.1 295.2 C 293.1 295.2 294.1 296.92 293.36 298.13 C 292.62 299.34 284.04 306.61 276.99 302.83 C 269.94 299.05 284.81 296.22 284.81 296.22 Z"/>
    <path fill="#ffffff" stroke="none" transform="matrix(1 0 0 1 -23.72 -5.99)" d="M 292.09 291 C 291.45065220998 290.79202868994 290.75571624501 291.08620403707 290.46 291.69 C 289.41625310911 293.31217162791 287.60871323006 294.28022645853 285.68 294.25 C 283.54 294.06 282.35 291.8 281.32 291.94 C 280.29 292.08 275.49 297.57 275.49 299.62 C 275.49 301.67 278.49 302.73 281.63 302.47 C 284.77 302.21 291.46 299.01 292.55 297.18 C 293.64 295.35 293 291.91 292.09 291 Z"/>
    <path fill="#ffffff" stroke="none" transform="matrix(1 0 0 1 -23.72 -5.99)" d="M 293.16 223.69 C 293.26 225.36 293.8 226.82 295.25 227.3 C 295.37339455524 227.34714856502 295.50050019365 227.38394230245 295.63 227.41 C 298.3 227.94 301.81 225.91 304.26 224.13 C 305.2750003335 223.3892041821 306.24972121469 222.59473990222 307.18 221.75 L 307.18 203.84 L 294.18 217.17 C 293.49486431217 219.27512493635 293.15052299336 221.47620866052 293.16 223.69 Z"/>
    <path fill="#ffffff" stroke="none" transform="matrix(1 0 0 1 -23.72 -5.99)" d="M 282.31 219.06 C 284.0180842542 221.48188065028 286.13265717453 223.58968693727 288.56 225.29 C 290.30889400887 226.47420182638 292.32741314145 227.1997683289 294.43 227.4 C 294.70728158085 227.42237508642 294.98622244288 227.38835790812 295.25 227.3 C 295.70116331281 227.16916219701 296.09768760743 226.89545516179 296.38 226.52 C 297.25955786107 225.4720541377 297.78774793671 224.17431560749 297.89 222.81 C 298.03 219.24 294.17 217.17 294.17 217.17 C 294.17 217.17 285.36 214.36 284.32 214.82 C 283.74 215.07 283.2 216.3 282.82 217.38 C 282.51 218.28 282.31 219.06 282.31 219.06 Z"/>
    <g opacity="0.1" transform="matrix(1 0 0 1 -23.72 -5.99)">
        <path fill="#020202" stroke="none" d="M 282.31 219.06 C 284.0180842542 221.48188065028 286.13265717453 223.58968693727 288.56 225.29 C 290.30889400887 226.47420182638 292.32741314145 227.1997683289 294.43 227.4 C 294.70728158085 227.42237508642 294.98622244288 227.38835790812 295.25 227.3 C 295.37339455524 227.34714856502 295.50050019365 227.38394230245 295.63 227.41 C 298.3 227.94 301.81 225.91 304.26 224.13 L 304.26 224.07 L 303.43 218.72 C 301.82402112885 220.37371332174 299.95966160546 221.75509564976 297.91 222.81 C 296.46272912956 223.58671154333 294.80977315501 223.89423823627 293.18 223.69 C 292.74092460674 223.61825796238 292.31366515408 223.48705230369 291.91 223.3 C 288.64154157715 221.73046016597 285.59235807095 219.74025439345 282.84 217.38 C 282.51 218.28 282.31 219.06 282.31 219.06 Z"/>
    </g>
    <path fill="#ffbbab" stroke="none" transform="matrix(1 0 0 1 -23.72 -5.99)" d="M 285.35 210.2 C 285.96238529615 210.77558251743 286.38157285197 211.52662688827 286.55 212.35 C 286.56419357159 212.76530248204 286.51358650187 213.18028045374 286.4 213.58 C 286.32208807851 213.95720119774 286.19781092394 214.3233149774 286.03 214.67 C 285.78059337257 215.06931624808 285.46627305978 215.42419402058 285.1 215.72 L 284.27 216.49 C 284.16473581198 216.59015884505 284.04294054467 216.67135568992 283.91 216.73 C 283.62018873388 216.79352188623 283.32221540055 216.6646685529 283.17 216.41 C 283.02714097993 216.15777014801 282.93858063993 215.87846446033 282.91 215.59 C 282.66 214.07 281.75 211.59 282.18 210.07 C 282.69 208.29 284.53 209.27 285.35 210.2 Z"/>
    <path fill="#ffffff" stroke="none" transform="matrix(1 0 0 1 -23.72 -5.99)" d="M 304.16 224.07 C 304.16 224.9 304.06 225.76 304.06 226.6 C 304.06 231.23 305.13 236 303.75 240.53 C 303.29887852103 241.49708332142 303.16247545459 242.5813128239 303.36 243.63 C 303.76370353047 244.46184746345 304.45189906863 245.12166380416 305.3 245.49 C 309.38 247.72 314.09 248.4 318.69 249.05 C 322.15 249.53 327.06 250.56 330.26 248.7 C 331.62 247.9 332.08 246.43 332.52 244.95 C 333.91 240.26 334.31 235.21 334.68 230.35 C 334.73 229.71 334.77 229.07 334.81 228.43 C 335.07 224 335.17 219.57 335.08 215.14 C 335.02 211.92 334.76 208.45 332.66 206.02 C 329.87 202.78 324.46 200.64 320.36 199.89 C 319.04461185805 199.6213559995 317.69691576269 199.54723271425 316.36 199.67 C 314.44451012212 199.9702238539 312.59449466939 200.59591463773 310.89 201.52 C 308.89 202.52 307.04 203.38 306.04 205.4 C 304.9380611975 207.72355863946 304.17045223109 210.19135413233 303.76 212.73 C 303.39185498276 215.11312845221 303.34812430785 217.53513506276 303.63 219.93 C 303.76 221.1 304.06 222.27 304.17 223.43 C 304.15 223.65 304.16 223.86 304.16 224.07 Z"/>
    <g opacity="0.1" transform="matrix(1 0 0 1 -23.72 -5.99)">
        <path fill="#020202" stroke="none" d="M 323 250.27 C 324.34 250.67 327.43 249.44 328.46 249.27 C 329.08 249.16 329.64 248.86 330.25 248.71 C 333.31 247.95 333.67 239.34 333.97 237.02 C 334.77 230.9 335.97 224.56 336.06 218.42 C 336.1918629379 216.05752739756 335.91789796208 213.68992884116 335.25 211.42 C 334.54867242765 209.12532893833 332.86837329959 207.25832990716 330.66 206.32 C 330.23011074497 206.14185978871 329.75837928747 206.08983058383 329.3 206.17 C 327.43 206.65 327.04 209.73 326.73 211.22 C 326.24 213.51 325.42 215.88 323.43 217.3 C 318.59 220.74 310.43 218.19 305.2 217.3 C 304.73500913864 217.1803772968 304.24534967003 217.19774110774 303.79 217.35 C 303.11681399761 217.7707907207 302.80614732968 218.58833458368 303.03 219.35 C 303.28491010176 220.0815481496 303.620300376 220.78251382276 304.03 221.44 C 305.28 223.95 304.95 226.95 305.66 229.67 C 306.67397872885 232.92004124357 308.74768553301 235.73662094363 311.55 237.67 C 314.33991826668 239.58355173558 317.2755815013 241.27540321248 320.33 242.73 C 321.01474405097 243.05221344345 321.63754647209 243.49223689315 322.17 244.03 C 322.79516708109 244.81744056103 323.11161381989 245.80589217211 323.06 246.81 C 323.06 247.45 322.24 249.41 322.48 249.86 C 322.59492998717 250.05778435256 322.78086069414 250.20438356383 323 250.27 Z"/>
    </g>
    <path fill="#1a73e8" stroke="none" transform="matrix(0.9106115466114877 -0.41326336781504636 0.41326336781504636 0.9106115466114877 -91.07 137.46)" d="M 288.69 182.04 L 307.09 182.04 L 307.09 272.78 L 288.69 272.78 Z"/>
    <path fill="url(#linear-gradient-3)" stroke="none" transform="matrix(0.9106115466114877 -0.41326336781504636 0.41326336781504636 0.9106115466114877 -90.97 137.38)" d="M 297.22 194.31 L 298.32 194.31 C 300.18672245443 194.31 301.7 195.82327754557 301.7 197.69 L 301.7 256.57 C 301.7 258.43672245443 300.18672245443 259.95 298.32 259.95 L 297.22 259.95 C 295.35327754557 259.95 293.84 258.43672245443 293.84 256.57 L 293.84 197.69 C 293.84 195.82327754557 295.35327754557 194.31 297.22 194.31 Z"/>
    <path fill="#ffbbab" stroke="none" transform="matrix(1 0 0 1 -23.72 -5.99)" d="M 313.62 196.05 C 314.11375819081 196.58563940021 314.78555134485 196.9233132078 315.51 197 C 316.11229759592 197.04999579607 316.71770240408 197.04999579607 317.32 197 L 317.66 197 C 317.74650106966 196.99036033444 317.83386042245 197.007832205 317.91 197.05 C 317.98207423863 197.1211520059 318.02183158304 197.2187382149 318.02 197.32 C 318.15323122954 198.52872831582 318.17666035808 199.7470429998 318.09 200.96 L 318.09 200.96 L 318.03 201.61 C 317.98918747594 201.84128380898 318.00987863873 202.07923218105 318.09 202.3 C 318.26145785658 202.55363877693 318.52849431975 202.7268516179 318.83 202.78 C 319.3576099215 202.96264877256 319.91167642351 203.05724549242 320.47 203.06 C 321.6670513783 202.94968407253 322.81806637576 202.54425192417 323.82 201.88 C 323.73977673156 199.80758743196 323.85024155414 197.73218773486 324.15 195.68 C 324.53 193.02 325.23 190.37 324.94 187.68 C 324.93919422018 186.41242910355 324.38679073877 185.20796097979 323.42668697584 184.38035153615 C 322.46658321291 183.5527420925 321.19384056595 183.1839342536 319.94 183.37 C 318.02563692808 183.33331481978 316.14098531985 183.84699518445 314.51 184.85 C 314.01434632466 185.23869490525 313.72043053628 185.83020042938 313.71 186.46 C 313.5 187.46 313.33 188.56 313.22 189.62 C 313.08 190.83 313.01 192.04 312.99 193.26 C 312.86097948461 194.2353526081 313.08438639411 195.22472606444 313.62 196.05 Z"/>
    <path fill="#e0a194" stroke="none" transform="matrix(1 0 0 1 -23.72 -5.99)" d="M 317.32 197 L 317.66 197 C 317.74650106966 196.99036033444 317.83386042245 197.007832205 317.91 197.05 C 317.98207423863 197.1211520059 318.02183158304 197.2187382149 318.02 197.32 C 318.15323122954 198.52872831582 318.17666035808 199.7470429998 318.09 200.96 L 318.09 200.96 C 320.29227436363 200.24886125878 321.69448381655 198.09129492795 321.45 195.79 C 320.13090087354 196.33982018092 318.75625689472 196.74550779418 317.35 197 Z"/>
    <path fill="#ffbbab" stroke="none" transform="matrix(1 0 0 1 -23.72 -5.99)" d="M 299.91 207.31 L 299.57 206.79 C 299.43 206.57 299.2 206.32 298.95 206.41 C 298.7 206.5 298.68 206.85 298.45 206.98 C 298.33741666429 207.03148127499 298.21319437972 207.05218498908 298.09 207.04 C 296.96553217021 206.98653800235 295.83858790662 207.02332253321 294.72 207.15 C 294.03273206269 207.20415310195 293.43022968208 207.63012612263 293.15 208.26 C 293.04537071327 208.71030097319 293.06612196086 209.1806625853 293.21 209.62 C 293.39230221274 210.75521224166 293.86030192285 211.82541746111 294.57 212.73 C 295.21850358479 213.34532916998 295.97887059809 213.83074204007 296.81 214.16 C 297.53048566726 214.43666253434 298.2048259015 214.82103646785 298.81 215.3 C 299.61 215.83 300.2 216.62 300.98 217.18 C 301.85507194919 217.93824241964 303.15951845544 217.92018421915 304.01326551731 217.13800876726 C 304.86701257918 216.35583331537 304.99892280003 215.05794792755 304.32 214.12 L 303.13 212.29 Z"/>
    <path fill="#ffffff" stroke="none" transform="matrix(-0.9424665810221279 -0.334300379384261 0.334300379384261 -0.9424665810221279 536.28 532.57)" d="M 326.35 205.53 L 326.35 205.53 C 330.00060219638 205.53 332.96 208.48939780362 332.96 212.14 L 332.96 230.04 C 332.96 233.69060219638 330.00060219638 236.65 326.35 236.65 L 326.35 236.65 C 322.69939780362 236.65 319.74 233.69060219638 319.74 230.04 L 319.74 212.14 C 319.74 208.48939780362 322.69939780362 205.53 326.35 205.53 Z"/>
    <path fill="#ffffff" stroke="none" transform="matrix(1 0 0 1 -23.72 -5.99)" d="M 319.44 219.93 L 304.88 212 L 299.27 218.37 C 299.27 218.37 317.61 236.86 323.01 236.13 C 328.41 235.4 326.14 229.67 326.14 229.67 C 326.14 229.67 328.18 223.49 319.44 219.93 Z"/>
    <path fill="#fc682d" stroke="none" transform="matrix(1 0 0 1 -23.72 -5.99)" d="M 318.36 187.28 C 319.43 187.76 320.65 187.86 321.68 188.42 C 322.71 188.98 323.51 190.32 322.89 191.32 C 323.33 190.98 324.04 191.43 324.08 191.99 C 324.05517168034 192.55627120475 323.69822367776 193.05442940616 323.17 193.26 L 324.28 195.53 C 324.36037318586 195.74652156672 324.50303097391 195.93441231197 324.69 196.07 C 324.88056610199 196.16904686401 325.09795699867 196.20410991186 325.31 196.17 C 326.30040731548 196.00464799352 327.16165043434 195.39736117894 327.65 194.52 C 328.12107994186 193.65167537237 328.43586917691 192.70730766722 328.58 191.73 C 328.93797683155 189.89113165883 329.17183819175 188.03026340694 329.28 186.16 C 329.38027582531 185.24368485126 329.3021716101 184.31662177506 329.05 183.43 C 328.63791524919 182.40523521455 327.9446039061 181.51779669539 327.05 180.87 C 325.1330548614 179.32141847288 322.69720572154 178.56312182435 320.24 178.75 C 318.42 178.95 315.4 180.24 314.87 182.25 C 314.34 184.26 316.82 186.59 318.36 187.28 Z"/>
    <path fill="#1a73e8" stroke="none" transform="matrix(1 0 0 1 -23.72 -5.99)" d="M 219 146.86 C 217.72762295018 146.88919854466 216.49758697746 146.40223415664 215.59 145.51 C 214.92 144.87 214.29 144.18 213.59 143.51 C 212.33428296376 142.17400698032 210.36459495067 141.79134775488 208.7 142.56 C 206.99234393752 143.21883751321 205.88340106734 144.88025011654 205.93 146.71 C 205.93 147.71 205.93 148.71 205.93 149.71 C 205.91167350431 150.96362904047 205.39322613715 152.15797368462 204.48994157288 153.02745550012 C 203.58665700861 153.89693731563 202.37341641849 154.36947733721 201.12 154.34 L 195.52 154.34 C 194.23324202407 154.36156521589 192.99214883539 153.86335840019 192.07745271042 152.95807272918 C 191.16275658545 152.05278705817 190.65174228232 150.81691217931 190.66 149.53 C 190.66 148.53 190.66 147.53 190.66 146.53 C 190.59747645565 144.77460668429 189.51488557354 143.21769825297 187.89108423528 142.5479340405 C 186.26728289702 141.87816982804 184.40188404426 142.21913023875 183.12 143.42 C 182.44 144.06 181.81 144.75 181.12 145.42 C 180.19967390016 146.34240498286 178.94749682791 146.8566146493 177.64452226783 146.84721367845 C 176.34154770776 146.8378127076 175.09692066286 146.30558858144 174.19 145.37 C 172.82 144.02 171.44 142.66 170.09 141.29 C 169.13446442324 140.39912887932 168.59186472318 139.15140713107 168.59186472318 137.845 C 168.59186472318 136.53859286893 169.13446442324 135.29087112068 170.09 134.4 C 170.72 133.75 171.38 133.14 172 132.49 C 173.29764173939 131.29047833249 173.69831816907 129.40329234871 173 127.78 C 172.41635434976 126.07009957135 170.80675296437 124.92325858426 169 124.93 C 168 124.93 167 124.93 166 124.93 C 164.66047228598 124.96639537233 163.3674133264 124.43766769027 162.43715073737 123.47316230656 C 161.50688814835 122.50865692284 161.02522753765 121.19733793387 161.11 119.86 C 161.11 118.09 161.11 116.32 161.11 114.55 C 161.04118072333 112.01183612413 163.00475636967 109.87982735237 165.54 109.74 C 166.54 109.65 167.59 109.74 168.62 109.74 C 170.51801239178 109.84516577521 172.26718996787 108.71405787381 172.95 106.94 C 173.70722524446 105.19785988347 173.23160036399 103.16527492416 171.78 101.94 C 171.17 101.33 170.54 100.73 169.95 100.1 C 169.07001907563 99.22528951622 168.57520547303 98.03575979049 168.57520547303 96.795 C 168.57520547303 95.55424020951 169.07001907563 94.36471048378 169.95 93.49 C 171.4 91.99 172.89 90.49 174.43 89.1 C 176.31886525369 87.36518790734 179.23423290965 87.40909404674 181.07 89.2 C 181.77 89.87 182.43 90.58 183.13 91.2 C 184.3599454467 92.46777799694 186.25640152417 92.82060703461 187.86 92.08 C 189.54823499269 91.47678111464 190.67106940052 89.87273196061 190.66 88.08 C 190.66 87.15 190.66 86.21 190.66 85.28 C 190.60707551846 83.92251080551 191.12947241173 82.60571927022 192.09862136321 81.65370654775 C 193.06777031469 80.70169382527 194.3936708642 80.20286901204 195.75 80.28 L 201 80.28 C 202.31796301136 80.23066613337 203.59857291288 80.72355065686 204.54336760801 81.64378068992 C 205.48816230315 82.56401072299 206.01460439734 83.83119484332 206 85.15 C 206 86.05 206 86.95 206 87.85 C 205.99148237853 89.68152984816 207.09627908821 91.33464489025 208.79177938843 92.02735902069 C 210.48727968866 92.72007315114 212.43357744114 92.31351421227 213.71 91 C 214.33 90.39 214.93 89.76 215.55 89.16 C 216.45959466429 88.25012300723 217.69343923763 87.73893569494 218.98 87.73893569494 C 220.26656076237 87.73893569494 221.50040533571 88.25012300723 222.41 89.16 C 223.85 90.55 225.26 91.95 226.66 93.37 C 227.57600161906 94.25386823535 228.09339517288 95.47209700936 228.09339517288 96.745 C 228.09339517288 98.01790299064 227.57600161906 99.23613176465 226.66 100.12 C 225.98 100.81 225.27 101.46 224.6 102.12 C 223.3895580201 103.264325569 222.99402431446 105.02840589615 223.6 106.58 C 224.07443174292 108.24578124273 225.53350156908 109.44174011663 227.26 109.58 C 228.31 109.69 229.38 109.58 230.44 109.64 C 231.68214848198 109.55957104617 232.9000468745 110.01023611272 233.79064411999 110.8798556929 C 234.68124136548 111.74947527308 235.16080330876 112.95628753656 235.11 114.2 C 235.17666666667 116.2 235.17666666667 118.22666666667 235.11 120.28 C 235.15940143856 121.55703811512 234.66105414264 122.79438412404 233.74034836081 123.68070670239 C 232.81964257898 124.56702928075 231.56423446907 125.0179457372 230.29 124.92 C 229.36 124.92 228.42 124.92 227.49 124.92 C 225.72749409639 124.96385687474 224.17899125055 126.10128808882 223.61 127.77 C 222.91327206131 129.3568877851 223.2895907628 131.21045755946 224.55 132.4 C 225.22 133.09 225.93 133.74 226.55 134.4 C 227.46399447238 135.28700680204 227.97980183525 136.50635681511 227.97980183525 137.78 C 227.97980183525 139.05364318489 227.46399447238 140.27299319796 226.55 141.16 C 225.16 142.59 223.74 143.99 222.32 145.39 C 221.44975451762 146.29759868527 220.25693639599 146.8257440584 219 146.86 Z M 182.89 117.26 C 182.87348129414 125.78464282171 189.76871386407 132.70965578522 198.29334871067 132.72987551486 C 206.81798355728 132.7500952445 213.74598947514 125.85786986076 213.76991022475 117.33324459608 C 213.79383097436 108.80861933141 206.90461407593 101.87762176507 198.38 101.85 C 194.27571505181 101.82336553207 190.33038214662 103.43514876352 187.41878229562 106.32797621058 C 184.50718244462 109.22080365764 182.86991357966 113.15562863238 182.87 117.26 Z"/>
    <path fill="#1a73e8" stroke="none" transform="matrix(1 0 0 1 -23.72 -5.99)" d="M 270.65 152.74 C 269.78829976332 152.76336235903 268.95424428751 152.43479505038 268.34 151.83 C 267.89 151.39 267.46 150.93 267 150.5 C 266.15466424759 149.58699981889 264.81474662186 149.32792209066 263.69 149.86 C 262.53708032276 150.30538022845 261.78581868782 151.4242805358 261.81 152.66 C 261.81 153.34 261.81 154.01 261.81 154.66 C 261.79692480335 155.50872944225 261.44507274629 156.31700603805 260.8327749712 156.9048870307 C 260.2204771961 157.49276802335 259.39855896259 157.81145492739 258.55 157.79 C 257.29 157.79 256.03 157.79 254.76 157.79 C 253.88952295302 157.80619028432 253.04937166415 157.47028954087 252.42999126962 156.85843960706 C 251.81061087509 156.24658967325 251.46445856589 155.41060996269 251.47 154.54 C 251.47 153.87 251.47 153.19 251.47 152.54 C 251.47527199087 151.32213799765 250.70872694265 150.23452696065 249.56 149.83 C 248.47737777502 149.33039015975 247.19712023938 149.57119095015 246.37 150.43 C 245.91 150.86 245.48 151.33 245.02 151.77 C 244.40155494093 152.39846501517 243.55672703621 152.75238759754 242.675 152.75238759754 C 241.79327296379 152.75238759754 240.94844505907 152.39846501517 240.33 151.77 C 239.4 150.86 238.47 149.94 237.55 149.01 C 236.90440672279 148.40502283737 236.53809848956 147.55975309939 236.53809848956 146.675 C 236.53809848956 145.79024690061 236.90440672279 144.94497716263 237.55 144.34 C 237.98 143.91 238.43 143.5 238.85 143.05 C 239.72160227172 142.23649422 239.98246361695 140.9602802541 239.5 139.87 C 239.10604859868 138.71493941364 238.02039397288 137.93889740334 236.8 137.94 C 236.13 137.94 235.45 137.94 234.8 137.94 C 233.89373820447 137.96421384973 233.0190193565 137.60645040521 232.38947997191 136.95408784052 C 231.75994058733 136.30172527582 231.43354127281 135.41482548852 231.49 134.51 C 231.49 133.31 231.49 132.11 231.49 130.91 C 231.44401466573 129.19091359725 232.77302106381 127.74672664466 234.49 127.65 C 235.18 127.65 235.88 127.65 236.58 127.65 C 237.86009806818 127.71047771359 239.03726324529 126.95114590993 239.51 125.76 C 240.02601873969 124.57970037635 239.70463317766 123.20059017978 238.72 122.37 C 238.3 121.95 237.88 121.55 237.47 121.12 C 236.87705306148 120.52734098555 236.54391472532 119.72335003389 236.54391472532 118.885 C 236.54391472532 118.04664996611 236.87705306148 117.24265901445 237.47 116.65 C 238.45 115.63 239.45 114.63 240.47 113.65 C 241.74810029056 112.46811854053 243.72927884744 112.49893687363 244.97 113.72 C 245.44 114.17 245.88 114.65 246.36 115.09 C 247.19120269644 115.94988589549 248.476793089 116.18691662412 249.56 115.68 C 250.70821756607 115.27259544032 251.46865495212 114.17820936092 251.45 112.96 C 251.45 112.33 251.45 111.7 251.45 111.07 C 251.42053843335 110.1534047133 251.77732623756 109.26656207895 252.43335319734 108.62574733852 C 253.08938015712 107.9849325981 253.98434800679 107.64904579663 254.9 107.7 L 258.42 107.7 C 259.31383181946 107.66153317485 260.18419177627 107.99209757929 260.8271262496 108.61423123142 C 261.47006072293 109.23636488355 261.82906040342 110.0953867164 261.82 110.99 C 261.82 111.6 261.82 112.21 261.82 112.82 C 261.75370406269 114.08754384549 262.49228225441 115.25963925217 263.66432017857 115.74686574555 C 264.83635810274 116.23409223893 266.18818601598 115.93099707128 267.04 114.99 L 268.29 113.75 C 268.90386393495 113.13199441876 269.7389317885 112.78445221257 270.61 112.78445221257 C 271.4810682115 112.78445221257 272.31613606505 113.13199441876 272.93 113.75 C 273.93 114.69 274.86 115.64 275.8 116.6 C 276.42154377234 117.19766046411 276.7728029219 118.02272702043 276.7728029219 118.885 C 276.7728029219 119.74727297957 276.42154377234 120.57233953589 275.8 121.17 C 275.35 121.63 274.86 122.07 274.41 122.54 C 273.60383705886 123.31435396547 273.33988178679 124.49624324339 273.74 125.54 C 274.07725552267 126.65286885274 275.06094288943 127.44616511626 276.22 127.54 C 276.93 127.62 277.66 127.54 278.37 127.54 C 279.2105537506 127.49186919132 280.0326476609 127.79916064791 280.63554140106 128.38683940409 C 281.23843514122 128.97451816028 281.56663479626 129.78849077841 281.54 130.63 C 281.58 132.00333333333 281.58 133.37333333333 281.54 134.74 C 281.58422684308 135.60875228614 281.24919270694 136.45392772587 280.62175093137 137.05642533299 C 279.9943091558 137.65892294011 279.13624474973 137.95941399045 278.27 137.88 C 277.64 137.88 277.01 137.88 276.38 137.88 C 275.1844316851 137.90546547224 274.13290274598 138.67711978878 273.75 139.81 C 273.27957812075 140.8836537804 273.5358895985 142.13717710129 274.39 142.94 C 274.84 143.41 275.32 143.85 275.78 144.32 C 276.39639000321 144.92046228356 276.74404514871 145.74448178984 276.74404514871 146.605 C 276.74404514871 147.46551821016 276.39639000321 148.28953771644 275.78 148.89 C 274.84 149.89 273.87 150.8 272.91 151.75 C 272.31929011134 152.36883380668 271.50538258843 152.72536851804 270.65 152.74 Z M 246.21 132.74 C 246.19898061927 138.51005531229 250.86661852211 143.19705952626 256.63667000037 143.20993088295 C 262.40672147863 143.22280223964 267.09522359207 138.55666893399 267.1099469234 132.78662188417 C 267.12467025472 127.01657483435 262.46004202696 122.32657530444 256.69 122.31 C 253.92033026045 122.29671106185 251.25910867765 123.38559663742 249.29314457554 125.33655337997 C 247.32718047344 127.28751012252 246.21793466336 129.94030974599 246.21 132.71 Z"/>
    <path fill="#1a73e8" stroke="none" d="M 170.44 74.24 L 169.26 74.24 L 169.26 51.94 L 147.09 51.94 L 147.09 50.75 L 170.44 50.75 L 170.44 74.24 Z"/>
    <path fill="#1a73e8" stroke="none" d="M 179.54 74.24 L 178.35 74.24 L 178.35 61.46 L 219.1 61.46 L 219.1 62.65 L 179.54 62.65 L 179.54 74.24 Z"/>
    <path fill="#1a73e8" stroke="none" d="M 231.81 101.66 L 230.62 101.66 L 230.62 84.73 L 211.45 84.73 L 211.45 83.55 L 231.81 83.55 L 231.81 101.66 Z"/>
    <path fill="#1a73e8" stroke="none" transform="matrix(1 0 0 1 -23.72 -5.99)" d="M 245.27 71.1 C 243.61314575051 71.1 242.27 69.75685424949 242.27 68.1 C 242.27 66.44314575051 243.61314575051 65.1 245.27 65.1 C 246.92685424949 65.1 248.27 66.44314575051 248.27 68.1 C 248.23807936535 69.74345071526 246.91345071526 71.06807936535 245.27 71.1 Z M 245.27 66.19 C 244.24275036531 66.19 243.41 67.02275036531 243.41 68.05 C 243.41 69.07724963469 244.24275036531 69.91 245.27 69.91 C 246.29724963469 69.91 247.13 69.07724963469 247.13 68.05 C 247.13 67.02275036531 246.29724963469 66.19 245.27 66.19 Z"/>
    <path fill="#1a73e8" stroke="none" transform="matrix(1 0 0 1 -23.72 -5.99)" d="M 168.36 60.39 C 166.70314575051 60.39 165.36 59.04685424949 165.36 57.39 C 165.36 55.73314575051 166.70314575051 54.39 168.36 54.39 C 170.01685424949 54.39 171.36 55.73314575051 171.36 57.39 C 171.32807936535 59.03345071526 170.00345071526 60.35807936535 168.36 60.39 Z M 168.36 55.48 C 167.33275036531 55.48 166.5 56.31275036531 166.5 57.34 C 166.5 58.36724963469 167.33275036531 59.2 168.36 59.2 C 169.38724963469 59.2 170.22 58.36724963469 170.22 57.34 C 170.22 56.31275036531 169.38724963469 55.48 168.36 55.48 Z"/>
    <path fill="#1a73e8" stroke="none" transform="matrix(1 0 0 1 -23.72 -5.99)" d="M 233.09 93.18 C 231.43970525209 93.17977077621 230.09947733944 91.84665973397 230.09046146608 90.19638959803 C 230.08144559273 88.5461194621 231.40702764366 87.19844437698 233.05722137618 87.18018368944 C 234.70741510869 87.16192300189 236.06249507135 88.47993445996 236.09 90.13 C 236.08488506947 91.79294376148 234.75263207587 93.14740097164 233.09 93.18 Z M 233.09 88.27 C 232.06971006166 88.29743713075 231.26212515489 89.14194241391 231.28029487054 90.16243945744 C 231.29846458618 91.18293650097 232.13560054572 91.99815790659 233.15622051914 91.98925710477 C 234.17684049256 91.98035630295 234.99963115382 91.15065871787 235 90.13 C 234.99743442828 89.62877276605 234.79375728938 89.14955721751 234.43466244318 88.79986275996 C 234.07556759698 88.45016830241 233.59111897701 88.25927185539 233.09 88.27 Z"/>
    <path fill="url(#linear-gradient-4)" stroke="none" transform="matrix(1 0 0 1 -23.72 -5.99)" d="M 160.32 85.45 L 150.48 81.7 C 149.51283811763 78.35502076157 149.01475020985 74.89196361893 149 71.41 C 148.99082678278 61.35593768118 153.11686159934 51.74057696493 160.41 44.82 C 163.62958079468 41.77994274826 167.35121322557 39.32028204166 171.41 37.55 C 144.17 60.92 160.32 85.45 160.32 85.45 Z"/>
    <path fill="#1a73e8" stroke="none" transform="matrix(1 0 0 1 -23.72 -5.99)" d="M 293.16 178.83 C 293.15742086167 186.72915469389 287.91241449486 193.66704681158 280.31323005306 195.82321177504 C 272.71404561127 197.97937673849 264.60690680612 194.8299737445 260.45614316434 188.10927342979 C 256.30537952256 181.38857311508 257.11942008223 172.72937125857 262.45 166.9 L 265.8 174.28 L 269.58 182.58 L 282.8 176.58 L 279 168.2 L 275.8 161.2 C 285.42660811424 161.35818745521 293.15038979486 169.20209707672 293.16 178.83 Z"/>
    <path fill="#1a73e8" stroke="none" transform="matrix(1 0 0 1 -23.72 -5.99)" d="M 339.12 277.35 C 339.14333551566 281.63460320832 337.59577222935 285.77922672222 334.77 289 L 327.35 272.61 L 314.12 278.61 L 321.58 295 L 321.45 295 C 314.2981988873 295.00404513702 307.84836089919 290.69901706948 305.10868173154 284.09277505324 C 302.36900256389 277.486533037 303.87915898028 269.8804102183 308.93481607492 264.82189197081 C 313.99047316956 259.76337372331 321.59574036848 258.24891422629 328.20353135793 260.98485533652 C 334.81132234737 263.72079644674 339.11999885601 270.16819774331 339.12 277.32 Z"/>
</svg>
