<svg width="200" height="200" viewBox="0 0 200 200" xmlns="http://www.w3.org/2000/svg" xmlns:usvg="https://github.com/RazrFalcon/resvg" usvg:version="0.9.1">
    <defs>
        <linearGradient id="paint0_linear" x1="17.776" y1="41.1986" x2="84.5496" y2="156.848" gradientUnits="userSpaceOnUse">
            <stop offset="0" stop-color="#18884f"/>
            <stop offset="0.5" stop-color="#117e43"/>
            <stop offset="1" stop-color="#0b6631"/>
        </linearGradient>
    </defs>
    <path fill="#185c37" stroke="none" d="M 125.581 94.3722 L 46.5117 80.4187 L 46.5117 183.521 C 46.5117 188.23 50.3287 192.047 55.0373 192.047 L 191.475 192.047 C 196.183 192.047 200 188.23 200 183.521 L 200 145.535 L 125.581 94.3722 Z"/>
    <path fill="#21a366" stroke="none" d="M 125.581 6 L 55.0373 6 C 50.3287 6 46.5117 9.81701 46.5117 14.5256 L 46.5117 52.5116 L 125.581 99.0233 L 167.442 112.977 L 200 99.0233 L 200 52.5116 L 125.581 6 Z"/>
    <path fill="#107c41" stroke="none" d="M 46.5117 52.5117 L 125.581 52.5117 L 125.581 99.0233 L 46.5117 99.0233 L 46.5117 52.5117 Z"/>
    <g opacity="0.1">
        <g opacity="0.1">
            <path fill="#000000" stroke="none" d="M 103.102 43.2092 L 46.5117 43.2092 L 46.5117 159.488 L 103.102 159.488 C 107.804 159.473 111.612 155.665 111.628 150.963 L 111.628 51.7348 C 111.612 47.0326 107.804 43.2245 103.102 43.2092 Z"/>
        </g>
    </g>
    <g opacity="0.2">
        <g opacity="0.2">
            <path fill="#000000" stroke="none" d="M 98.4513 47.8604 L 46.5117 47.8604 L 46.5117 164.139 L 98.4513 164.139 C 103.153 164.124 106.962 160.316 106.977 155.614 L 106.977 56.3859 C 106.962 51.6837 103.153 47.8756 98.4513 47.8604 Z"/>
        </g>
    </g>
    <g opacity="0.2">
        <g opacity="0.2">
            <path fill="#000000" stroke="none" d="M 98.4513 47.8604 L 46.5117 47.8604 L 46.5117 154.837 L 98.4513 154.837 C 103.153 154.822 106.962 151.014 106.977 146.312 L 106.977 56.3859 C 106.962 51.6837 103.153 47.8756 98.4513 47.8604 Z"/>
        </g>
    </g>
    <g opacity="0.2">
        <g opacity="0.2">
            <path fill="#000000" stroke="none" d="M 93.8001 47.8604 L 46.5117 47.8604 L 46.5117 154.837 L 93.8001 154.837 C 98.5023 154.822 102.31 151.014 102.326 146.312 L 102.326 56.3859 C 102.31 51.6837 98.5023 47.8756 93.8001 47.8604 Z"/>
        </g>
    </g>
    <path fill="url(#paint0_linear)" stroke="none" d="M 8.52556 47.8604 L 93.7999 47.8604 C 98.5085 47.8604 102.326 51.6774 102.326 56.3859 L 102.326 141.66 C 102.326 146.369 98.5085 150.186 93.7999 150.186 L 8.52556 150.186 C 3.81701 150.186 0 146.369 0 141.66 L 0 56.3859 C 0 51.6774 3.81701 47.8604 8.52556 47.8604 Z"/>
    <path fill="#ffffff" stroke="none" d="M 26.4043 126.735 L 44.3392 98.9441 L 27.9066 71.3069 L 41.1252 71.3069 L 50.0927 88.9813 C 50.9206 90.6604 51.488 91.9069 51.795 92.7301 L 51.9113 92.7301 C 52.5004 91.3906 53.1206 90.0898 53.7717 88.8278 L 63.3578 71.3162 L 75.4926 71.3162 L 58.6414 98.7907 L 75.9206 126.735 L 63.009 126.735 L 52.6508 107.335 C 52.1629 106.509 51.7489 105.642 51.4137 104.744 L 51.2602 104.744 C 50.9568 105.624 50.5542 106.467 50.0602 107.256 L 39.3951 126.735 L 26.4043 126.735 Z"/>
    <path fill="#33c481" stroke="none" d="M 191.475 6 L 125.582 6 L 125.582 52.5116 L 200 52.5116 L 200 14.5256 C 200 9.81701 196.183 6 191.475 6 Z"/>
    <path fill="#107c41" stroke="none" d="M 125.582 99.0232 L 200 99.0232 L 200 145.535 L 125.582 145.535 L 125.582 99.0232 Z"/>
</svg>
