<svg width="406" height="306" viewBox="0 0 823.64 597" xmlns="http://www.w3.org/2000/svg" xmlns:usvg="https://github.com/RazrFalcon/resvg" usvg:version="0.9.1">
    <defs>
        <linearGradient id="linear-gradient" x1="184.46" y1="411.38" x2="188.29" y2="421.79" gradientUnits="userSpaceOnUse" gradientTransform="matrix(1 0 0 -1 -0.33 598)">
            <stop offset="0.36" stop-color="#00272e"/>
            <stop offset="0.75" stop-color="#3f80a1" stop-opacity="0.25"/>
            <stop offset="1" stop-color="#69b9eb" stop-opacity="0"/>
        </linearGradient>
        <linearGradient id="linear-gradient-2" x1="444.69" y1="31.61" x2="323.69" y2="461.61" gradientUnits="userSpaceOnUse">
            <stop offset="0" stop-color="#000000" stop-opacity="0"/>
            <stop offset="0.91" stop-color="#000000" stop-opacity="0.8"/>
            <stop offset="1" stop-color="#000000"/>
        </linearGradient>
        <linearGradient id="linear-gradient-3" x1="405.84" y1="149.83" x2="332.84" y2="499.83" gradientUnits="userSpaceOnUse">
            <stop offset="0" stop-color="#000000" stop-opacity="0"/>
            <stop offset="0.91" stop-color="#000000" stop-opacity="0.8"/>
            <stop offset="1" stop-color="#000000"/>
        </linearGradient>
        <linearGradient id="linear-gradient-4" x1="412.49" y1="151.21" x2="339.49" y2="501.21" gradientUnits="userSpaceOnUse">
            <stop offset="0" stop-color="#000000" stop-opacity="0"/>
            <stop offset="0.91" stop-color="#000000" stop-opacity="0.8"/>
            <stop offset="1" stop-color="#000000"/>
        </linearGradient>
        <linearGradient id="linear-gradient-5" x1="420.97" y1="152.99" x2="347.97" y2="502.99" gradientUnits="userSpaceOnUse">
            <stop offset="0" stop-color="#000000" stop-opacity="0"/>
            <stop offset="0.91" stop-color="#000000" stop-opacity="0.8"/>
            <stop offset="1" stop-color="#000000"/>
        </linearGradient>
        <linearGradient id="linear-gradient-6" x1="683.34" y1="447.17" x2="704.34" y2="447.17" gradientUnits="userSpaceOnUse" gradientTransform="matrix(1 0 0 -1 -0.33 598)">
            <stop offset="0" stop-color="#ecc4d7"/>
            <stop offset="0.42" stop-color="#efd4d1"/>
            <stop offset="1" stop-color="#f2eac9"/>
        </linearGradient>
        <linearGradient id="linear-gradient-7" x1="694.49" y1="458.85" x2="690.16" y2="410.3" gradientUnits="userSpaceOnUse" gradientTransform="matrix(1 0 0 -1 -0.33 598)">
            <stop offset="0" stop-color="#ecc4d7"/>
            <stop offset="0.42" stop-color="#efd4d1"/>
            <stop offset="1" stop-color="#f2eac9"/>
        </linearGradient>
        <linearGradient id="linear-gradient-8" x1="664.58" y1="476.09" x2="709.1" y2="476.09" gradientUnits="userSpaceOnUse" gradientTransform="matrix(1 0 0 -1 -0.33 598)">
            <stop offset="0" stop-color="#ecc4d7"/>
            <stop offset="0.42" stop-color="#efd4d1"/>
            <stop offset="1" stop-color="#f2eac9"/>
        </linearGradient>
        <linearGradient id="linear-gradient-9" x1="764.44" y1="512.88" x2="823.98" y2="512.88" gradientUnits="userSpaceOnUse" gradientTransform="matrix(1 0 0 -1 -0.33 598)">
            <stop offset="0" stop-color="#ecc4d7"/>
            <stop offset="0.42" stop-color="#efd4d1"/>
            <stop offset="1" stop-color="#f2eac9"/>
        </linearGradient>
        <linearGradient id="linear-gradient-10" x1="810.28" y1="519.93" x2="804.26" y2="566.67" gradientUnits="userSpaceOnUse" gradientTransform="matrix(1 0 0 -1 -0.33 598)">
            <stop offset="0" stop-color="#ecc4d7"/>
            <stop offset="0.42" stop-color="#efd4d1"/>
            <stop offset="1" stop-color="#f2eac9"/>
        </linearGradient>
        <linearGradient id="linear-gradient-11" x1="619.54" y1="589.29" x2="679.08" y2="589.29" gradientUnits="userSpaceOnUse" gradientTransform="matrix(-0.8486025612164793 -0.5290308999452031 0.5290308999452031 -0.8486025612164793 868.81 888.98)">
            <stop offset="0" stop-color="#ecc4d7"/>
            <stop offset="0.42" stop-color="#efd4d1"/>
            <stop offset="1" stop-color="#f2eac9"/>
        </linearGradient>
        <linearGradient id="linear-gradient-12" x1="665.61" y1="596.46" x2="659.59" y2="643.2" gradientUnits="userSpaceOnUse" gradientTransform="matrix(-0.8486025612164793 -0.5290308999452031 0.5290308999452031 -0.8486025612164793 868.81 888.98)">
            <stop offset="0" stop-color="#ecc4d7"/>
            <stop offset="0.42" stop-color="#efd4d1"/>
            <stop offset="1" stop-color="#f2eac9"/>
        </linearGradient>
        <linearGradient id="linear-gradient-13" x1="533.17" y1="127.89" x2="540.88" y2="95.77" gradientUnits="userSpaceOnUse" gradientTransform="matrix(1 0 0 -1 -0.33 598)">
            <stop offset="0" stop-color="#68e1fd"/>
            <stop offset="0.01" stop-color="#67ddf9"/>
            <stop offset="0.12" stop-color="#5cb3ce"/>
            <stop offset="0.24" stop-color="#538ea9"/>
            <stop offset="0.37" stop-color="#4c718b"/>
            <stop offset="0.5" stop-color="#465a73"/>
            <stop offset="0.63" stop-color="#424a63"/>
            <stop offset="0.79" stop-color="#404059"/>
            <stop offset="0.99" stop-color="#3f3d56"/>
        </linearGradient>
        <linearGradient id="linear-gradient-14" x1="723.22" y1="106.25" x2="736.07" y2="88.27" gradientUnits="userSpaceOnUse" gradientTransform="matrix(1 0 0 -1 -0.33 598)">
            <stop offset="0" stop-color="#68e1fd"/>
            <stop offset="0.01" stop-color="#67ddf9"/>
            <stop offset="0.12" stop-color="#5cb3ce"/>
            <stop offset="0.24" stop-color="#538ea9"/>
            <stop offset="0.37" stop-color="#4c718b"/>
            <stop offset="0.5" stop-color="#465a73"/>
            <stop offset="0.63" stop-color="#424a63"/>
            <stop offset="0.79" stop-color="#404059"/>
            <stop offset="0.99" stop-color="#3f3d56"/>
        </linearGradient>
        <linearGradient id="linear-gradient-15" x1="691.29" y1="111.67" x2="834.32" y2="428.15" gradientUnits="userSpaceOnUse">
            <stop offset="0" stop-color="#000000" stop-opacity="0"/>
            <stop offset="0.91" stop-color="#000000" stop-opacity="0.8"/>
            <stop offset="1" stop-color="#000000"/>
        </linearGradient>
    </defs>
    <g opacity="0.18">
        <path fill="#428bea" stroke="none" d="M 131.3 125 C 106.96 130.16 81.66 135.76 62.12 151.17 C 45.62 164.17 19.91 188.17 12.12 207.67 C -20.88 290.04 16.43 390.27 88.85 441.53 C 122.91 465.64 165.36 477.31 195.97 505.69 C 215.33 523.64 228.89 547.4 249.49 563.9 C 279.59 587.99 320.23 593.32 358.69 595.9 C 385.41 597.71 413.17 598.49 437.96 588.33 C 455.88 580.99 471.06 568.4 485.96 555.99 L 584.67 473.56 C 600.53 460.33 615.36 439.26 636.01 439.4 C 821.87 440.73 834.4 222 549.15 125.12 C 524.01 116.58 506.77 92.84 483.15 80.67 C 434.36 55.52 378.21 63.67 329 81.07 C 266.52 103.22 196.14 111.21 131.3 125 Z"/>
    </g>
    <g opacity="0.05">
        <path fill="#000405" stroke="none" d="M 779.07 477.86 C 786.85 477.99 796.87 479.93 798.07 487.61 C 798.72 491.61 796.43 495.5 793.95 498.73 C 778.44 519 752.74 529.25 727.38 532 C 702.02 534.75 676.46 530.9 651.14 527.78 C 614.54666666667 523.26 577.81333333333 520.26 540.94 518.78 C 514.72 517.72 487.14 517.06 464.56 503.7 C 460.37 501.23 456.25 498.14 454.24 493.7 C 450.24 484.87 456.56 474.12 465.24 469.83 C 473.92 465.54 484.12 465.96 493.8 466.48 C 588.86 471.6 683.85 477.86 779.07 477.86 Z"/>
    </g>
    <path fill="#428bea" stroke="none" d="M 779.4 126.4 C 779.4 126.4 745.57 170.15 739.15 177.48 C 727.44 190.8 719.89 208.27 719.89 208.27 L 702.89 280.61 L 683.89 275.54 L 642.58 264.54 C 642.58 264.54 657.26 225 650.15 213 C 640.67 197 648.87 187 651.03 180.13 C 655.03 167.4 634.6 144.13 634.6 144.13 L 621.51 85.5 L 641.27 82.86 L 655.61 130.39 L 680.18 152.32 L 697.68 153.25 C 697.68 153.25 710.88 155.97 720.48 151.53 C 729.66 147.27 762.09 110.7 762.09 110.7 L 775.32 122.7 Z"/>
    <path fill="#428bea" stroke="none" d="M 617.33 200.59 L 617.33 461.15 C 617.32447826311 474.87979934134 606.18979934045 486.00552395847 592.46 486 L 202.77 486 C 189.04020111921 486 177.91 474.86979888079 177.91 461.14 L 177.91 461.14 L 177.91 200.59 C 177.90447030078 186.86800421637 189.01801309228 175.73655801321 202.74 175.72 L 592.46 175.72 C 599.05674739061 175.71734590698 605.38407140116 178.33671821642 610.04867659237 183.00132340763 C 614.71328178358 187.66592859884 617.33265409302 193.99325260939 617.33 200.59 Z"/>
    <path fill="#428bea" stroke="none" d="M 610.59 183.67 L 184 183.67 L 187.46 181.02 C 187.61981529468 180.88144709981 187.78670592285 180.75127240984 187.96 180.63 L 390.88 25.07 L 397.29 20.16 L 603.76 178.44 Z"/>
    <path fill="#428bea" stroke="none" d="M 617.33 200.59 L 612.14 204.34 L 612.14 204.34 L 574.35 231.71 L 390.88 364.6 L 214.43 228.71 L 177.91 200.59 L 178.38 195.76 C 179.26859570793 191.23127805591 181.40969911962 187.04261458547 184.56 183.67 C 185.44405041787 182.70752877203 186.40744220108 181.82107452706 187.44 181.02 C 187.59981529468 180.88144709981 187.76670592285 180.75127240984 187.94 180.63 C 192.22196481681 177.43204496478 197.4256551402 175.70917783816 202.77 175.72 L 592.46 175.72 C 605.26061454033 175.73135339372 615.96542892513 185.45002730186 617.21 198.19 C 617.29 198.99 617.33 199.79 617.33 200.59 Z"/>
    <g opacity="0.61">
        <path fill="url(#linear-gradient)" stroke="none" d="M 187.44 181 C 186.41201353719 181.80646695194 185.44904461977 182.69253210165 184.56 183.65 L 184 183.65 Z"/>
    </g>
    <path fill="url(#linear-gradient-2)" stroke="none" d="M 617.33 200.59 L 612.14 204.35 L 612.14 204.35 L 574.35 231.71 L 390.88 364.6 L 214.43 228.72 L 177.91 200.59 L 178.38 195.77 C 179.53602926363 189.92143475878 182.75047870801 184.6811016138 187.44 181 L 187.94 180.62 L 390.88 25.07 L 397.29 20.16 L 603.76 178.44 C 611.32734989056 182.29333649731 616.40063103623 189.74672203177 617.21 198.2 C 617.29011859002 198.99414535612 617.33016937293 199.79182344909 617.33 200.59 Z"/>
    <path fill="#ffffff" stroke="none" d="M 574.35 181.34 L 574.35 231.72 L 506.64 280.72 L 491.11 292 L 390.88 364.6 L 296.61 292 L 282 280.76 L 214.41 228.76 L 214.41 181.34 C 214.41 173.182754245 221.022754245 166.57 229.18 166.57 L 559.59 166.57 C 567.74105446939 166.58102799313 574.34449253329 173.18893993106 574.35 181.34 Z"/>
    <path fill="url(#linear-gradient-3)" stroke="none" d="M 524.73 225.51 L 257.73 225.51 C 254.62615970595 225.51 252.11 222.99384029405 252.11 219.89 L 252.11 219.89 C 252.11 216.78615970595 254.62615970595 214.27 257.73 214.27 L 524.73 214.27 C 527.83384029405 214.27 530.35 216.78615970595 530.35 219.89 L 530.35 219.89 C 530.35 222.99384029405 527.83384029405 225.51 524.73 225.51 Z"/>
    <path fill="url(#linear-gradient-4)" stroke="none" d="M 524.73 258.76 L 257.73 258.76 C 254.62615970595 258.76 252.11 256.24384029405 252.11 253.14 L 252.11 253.14 C 252.11 250.03615970595 254.62615970595 247.52 257.73 247.52 L 524.73 247.52 C 527.83384029405 247.52 530.35 250.03615970595 530.35 253.14 L 530.35 253.14 C 530.35 256.24384029405 527.83384029405 258.76 524.73 258.76 Z"/>
    <path fill="url(#linear-gradient-5)" stroke="none" d="M 506.64 280.76 L 491.11 292 L 296.61 292 L 282.01 280.76 L 506.64 280.76 Z"/>
    <g opacity="0.05">
        <path fill="#000405" stroke="none" d="M 390.88 364.6 L 228.02 486.02 L 557.1 486.02 L 390.88 364.6 Z"/>
    </g>
    <path fill="#428bea" stroke="none" d="M 250.4 90.2 C 242.2 72.61 211.4 75.5 211.4 75.5 C 230.4 64.29 226.76 35.82 226.53 34.14 L 226.53 34.14 C 234.84 58.96 263.53 53.48 266.1 52.94 C 247.05 57.64 250.4 90.2 250.4 90.2 Z"/>
    <path fill="#428bea" stroke="none" d="M 197 126.29 C 191.79 115.11 172.2 116.95 172.2 116.95 L 172.2 116.95 C 184.6 109.58 181.79 90.61 181.79 90.61 L 181.79 90.72 C 187.11 106.41 205.31 102.93 206.93 102.59 C 194.87 105.59 197 126.29 197 126.29 Z"/>
    <path fill="#3f3d56" stroke="none" d="M 721.56 92.7 C 723.97513053675 90.76091057747 727.0293799588 89.79753751211 730.12 90 C 732.38227557546 89.90806756363 734.59608725409 90.67218965915 736.32 92.14 C 737.64814488837 93.63038617679 738.49208731034 95.48915192436 738.74 97.47 C 739.22782316431 99.92480335702 739.4125371645 102.43019688684 739.29 104.93 C 739.07 109.52 737.88 114.38 739.86 118.53 C 740.33022896909 119.51748351168 740.96608480065 120.41715186911 741.74 121.19 C 742.63536724866 122.19141336642 743.8811317426 122.81071583036 745.22 122.92 C 746.59544132372 122.9812871163 747.80995136075 122.03006247191 748.08 120.68 C 746.92317167124 123.256835348 744.78746831602 125.26666675404 742.14519445028 126.26502591353 C 739.50292058454 127.26338507303 736.57178510409 127.16801265889 734 126 C 733.17067131397 125.62079942142 732.39142355481 125.14048722504 731.68 124.57 L 733.42 128.1 C 731.97867462589 127.73035668693 730.58330364946 127.20038405646 729.26 126.52 C 725.01 124.21 722.63 119.52 721.5 114.78 C 720.5 110.43 720.3 105.94 719.36 101.57 C 718.67 98.24 718.85 95.12 721.56 92.7 Z"/>
    <path fill="#428bea" stroke="none" d="M 720.28 97.5 C 721.14363234168 97.46956169979 722.00528286021 97.60186236996 722.82 97.89 C 724.19741291695 98.46249917386 725.14184449855 99.75386480585 725.27 101.24 C 725.34854433267 102.73780845647 724.53175361064 104.13970407073 723.19 104.81 C 722.33431996381 105.15917795488 721.41333826749 105.31949699091 720.49 105.28 C 719.65 105.28 718.8 105.28 717.96 105.2 C 717.41782306041 105.24895747125 716.92265255527 104.89038572614 716.8 104.36 C 716.25158380759 103.27113631079 715.83851219571 102.11923742563 715.57 100.93 C 714.88 97.25 717.36 97.47 720.28 97.5 Z"/>
    <path fill="url(#linear-gradient-6)" stroke="none" d="M 704 132.61 C 704 132.61 703.84 135.5 703.64 139.26 C 703.47 142.43 703.26 146.26 703.09 149.44 C 702.80037323654 154.81967069194 700.48950285071 159.89144186331 696.62 163.64 C 694.36 165.95 688.97 170.26 684.86 168.73 C 682.86 167.99 682.79 165.47 683.21 163.96 C 684.13713527975 161.20748951264 684.65269700807 158.33314863512 684.74 155.43 C 684.80573428092 153.08001918947 684.5942757456 150.73047990814 684.11 148.43 C 681.54 142 704 132.61 704 132.61 Z"/>
    <path fill="url(#linear-gradient-7)" stroke="none" d="M 704 132.61 C 704 132.61 703.84 135.5 703.64 139.26 C 702.06 142.78 700.58 145.65 699.77 147.08 C 698.14 149.97 691.44 154.52 684.77 155.43 C 684.83573428092 153.08001918947 684.6242757456 150.73047990814 684.14 148.43 C 681.54 142 704 132.61 704 132.61 Z"/>
    <path fill="url(#linear-gradient-8)" stroke="none" d="M 684.44 94.32 C 672.59366020072 95.03831527827 663.57239270212 105.22361729281 664.29 117.07 C 664.29 117.58 664.37 118.07 664.44 118.59 C 665.10832495274 127.32699577814 667.3510758497 135.87113137047 671.06 143.81 C 678.06 155.81 695.8 145.94 698.61 141 C 701.42 136.06 712.2 113.78 707.67 107.47 C 704.55 103.21 695.9 93.86 684.44 94.32 Z"/>
    <path fill="#3f3d56" stroke="none" d="M 678.14 82.13 C 685.66652895619 79.93281858295 693.69453588826 80.16728957879 701.08 82.8 C 708.35 85.56 714.62 91.24 717.39 98.51 C 719.76912604466 105.24781716804 719.54082198383 112.63202663574 716.75 119.21 C 713.93520343451 125.73356517214 709.45139261764 131.40041222761 703.75 135.64 C 702.28 131.14 706.81 127.14 708.57 122.75 C 708.98006258581 121.93924314731 709.06933422244 121.00367639546 708.82 120.13 C 708.18 118.5 705.74 118.32 704.35 119.38 C 702.96 120.44 702.35 122.23 701.84 123.9 C 703.19 116.75 704.19 108.35 699.13 103.11 C 696.13 100.01 691.6 98.85 687.28 98.81 C 679.26091293819 98.78631164231 671.5899766525 102.08419883262 666.09 107.92 C 664.5 109.63 662.24 111.73 660.22 110.55 C 659.59168998412 110.1202033022 659.09907021043 109.5200397751 658.8 108.82 C 652.83 97 668.51 84.77 678.14 82.13 Z"/>
    <path fill="#3f3d56" stroke="none" d="M 687.8 95.34 C 682.8 93.14 677.55 91.34 672.12 91.34 C 666.69 91.34 661.06 93.18 657.47 97.26 C 655.59526452466 99.53342868275 654.23111915543 102.18328106247 653.47 105.03 C 652.86914551153 106.81141381947 652.63113216335 108.69511946075 652.77 110.57 C 652.98743740437 111.92966012107 653.32201647629 113.26797640876 653.77 114.57 C 654.71 117.81 655.11 121.57 653.06 124.29 C 652.28925720568 125.38766656408 651.05901171866 126.0727733323 649.72 126.15 C 648.35021777343 126.17419821567 647.17621951976 125.17587123353 646.98 123.82 C 646.1 126.31 647.54 129.23 649.83 130.54 C 652.21674385166 131.75213110721 655.0076640378 131.88676480589 657.5 130.91 C 658.53626341624 130.58488518424 659.49803316601 130.05812083366 660.33 129.36 C 661.15323129165 128.568108557 661.83027724138 127.63717037611 662.33 126.61 C 664.42 122.82 665.47 118.61 667.03 114.52 C 668.59 110.43 670.85 106.52 674.54 104.22 C 677.46330516836 102.62281807729 680.74911216118 101.80653269228 684.08 101.85 C 687.39 101.74 690.72 102.01 694.02 101.71 C 697.32 101.41 694.93 99.45 693.51 98.42 C 691.71679175907 97.20111519267 689.80347861894 96.16906537278 687.8 95.34 Z"/>
    <path fill="url(#linear-gradient-9)" stroke="none" d="M 822.11 59.49 C 822.96 60.15 815 66.35 815 66.35 C 815 66.35 811.28 72.76 807.5 74.54 C 803.72 76.32 775.32 122.69 775.32 122.69 L 764.11 112.53 L 788.29 80 C 788.29 80 796.29 64.67 795.4 58 C 795.4 58 795.88 50.12 798.29 53.78 C 799.99 56.39 798.9 60.5 800.91 60.94 C 801.13260108561 60.95941911224 801.3558375618 60.91058613307 801.55 60.8 C 803.21783393677 59.7887333297 804.74728848188 58.56516969362 806.1 57.16 C 810.1 53.35 814.88 48.05 814.88 48.05 C 814.88 48.05 817.5 46.94 817.17 48.05 C 816.84 49.16 812.03 56.65 811.76 57.05 C 812.21 56.64 819.59 50.05 820.76 50.56 C 821.93 51.07 815.04 58.66 814.64 59.1 C 815.07 58.8 822.94 53.32 823.53 53.81 C 824.64 54.74 817.53 60.91 816.94 61.38 C 817.39 61.14 821.3 58.85 822.11 59.49 Z"/>
    <path fill="url(#linear-gradient-10)" stroke="none" d="M 813.67 64.24 C 813.07362389179 64.43435951138 812.43989790906 64.48574269917 811.82 64.39 C 809.80376095705 64.23672677819 807.7801984252 64.2033346572 805.76 64.29 C 804.4 64.35 801.59 65.29 801.52 63.18 C 801.52 62.62 801.66 62.07 801.63 61.51 C 801.61635734554 61.26767452337 801.58291245857 61.02687133717 801.53 60.79 C 803.19783393677 59.7787333297 804.72728848188 58.55516969362 806.08 57.15 C 806.69265251987 57.35466530933 807.27210807734 57.64776201572 807.8 58.02 L 811.74 60.57 C 812.44 61.03 813.14 61.49 813.81 61.99 C 814.10627478509 62.17560712093 814.3424553041 62.44304682628 814.49 62.76 C 814.61903621766 63.38804487489 814.27090383496 64.01638137049 813.67 64.24 Z"/>
    <path fill="url(#linear-gradient-11)" stroke="none" d="M 618.4 7.42 C 617.32 7.54 620.82 17 620.82 17 C 620.82 17 620.6 24.41 622.82 27.91 C 625.04 31.41 624.82 85.06 624.82 85.06 L 639.7 83.06 L 636.32 42.65 C 636.32 42.65 637.61 25.41 641.88 20.22 C 641.88 20.22 645.62 13.27 641.65 15.11 C 638.83 16.43 637.58 20.49 635.65 19.81 C 635.44595231977 19.71404095805 635.28032446975 19.55193710483 635.18 19.35 C 634.27110673881 17.61754787671 633.59845477578 15.77111823819 633.18 13.86 C 631.77 8.51 630.53 1.49 630.53 1.49 C 630.53 1.49 628.93 -0.81 628.67 0.3 C 628.41 1.41 628.5 10.3 628.51 10.81 C 628.34 10.24 625.51 0.72 624.26 0.55 C 623.01 0.38 624.85 10.45 624.97 11.03 C 624.75 10.55 620.97 1.75 620.19 1.85 C 618.76 2.06 621.6 11.08 621.81 11.75 C 621.53 11.31 619.42 7.32 618.4 7.42 Z"/>
    <path fill="url(#linear-gradient-12)" stroke="none" d="M 623 15.91 C 623.4162409962 16.38963813194 623.94070341579 16.76327475766 624.53 17 C 626.32189107482 17.93913452779 628.05810902851 18.9808653 629.73 20.12 C 630.86 20.89 632.73 23.19 633.92 21.41 C 634.24 20.95 634.39 20.41 634.71 19.94 C 634.85568227545 19.74120322098 635.01260469484 19.55089305278 635.18 19.37 C 634.27110673881 17.63754787671 633.59845477578 15.79111823819 633.18 13.88 C 632.55140860295 13.73217158688 631.90438932202 13.67825331347 631.26 13.72 L 626.57 13.81 C 625.72850067154 13.79173420204 624.88670705465 13.82847916151 624.05 13.92 C 623.69417370033 13.91779898918 623.34585442772 14.02229477097 623.05 14.22 C 622.61503664834 14.69237378954 622.59372411325 15.41273747559 623 15.91 Z"/>
    <path fill="url(#linear-gradient-13)" stroke="none" d="M 565.67 479.21 C 561.67 487.38 558.76 493.73 558.76 493.73 L 508.43 496.13 C 508.43 496.13 516.77 474.06 530.34 479.76 C 534.93 481.68 551.56 478.07 551.56 478.07 L 552.08 476.4 Z"/>
    <path fill="#3f3d56" stroke="none" d="M 744.05 481.68 L 736.34 486 L 670.34 416.62 L 663.06 324 L 602.88 378.59 C 602.88 378.59 604.49 416.18 583.45 445.59 C 579.68 450.86 572.01 466.17 566.21 478.13 C 566.03 478.5 565.85 478.88 565.68 479.25 L 564.55 479.02 L 560.62 478.2 L 552.09 476.44 L 579.75 364.64 L 642.6 264.58 L 683.91 275.58 L 702.91 280.65 C 702.91 280.65 715.73 306.34 702.91 372.83 L 694.41 410.89 C 694.41 410.89 728.67 429.16 739.23 465.3 L 744 481.66 Z"/>
    <path fill="url(#linear-gradient-14)" stroke="none" d="M 744.05 481.68 L 751.88 489.87 L 732 510.59 L 706 510.59 C 706 510.59 711.54 501.44 722.62 499.99 C 733.7 498.54 736.35 485.99 736.35 485.99 Z"/>
    <g opacity="0.22">
        <path fill="#ffffff" stroke="none" d="M 215.81 74.06 L 211.42 75.5 C 230.42 64.29 226.78 35.82 226.55 34.14 C 226.85 35.49 231.27 54.28 228.86 60.45 C 225.85 68.16 215.81 74.06 215.81 74.06 Z"/>
    </g>
    <g opacity="0.22">
        <path fill="#ffffff" stroke="none" d="M 184.41 108.44 C 182.09 111.65 172.87 116.6 172.24 116.93 C 184.64 109.56 181.83 90.59 181.83 90.59 L 181.83 90.7 C 182.32 92 186.67 105.3 184.41 108.44 Z"/>
    </g>
    <g opacity="0.22">
        <path fill="#ffffff" stroke="none" d="M 178.65 214.27 L 382.32 370.98 L 390.88 364.6 L 177.91 200.59 L 178.65 214.27 Z"/>
    </g>
    <g opacity="0.22">
        <path fill="#ffffff" stroke="none" d="M 397.62 369.97 L 617.33 211.83 L 617.33 201.04 L 390.88 365.04 L 397.62 369.97 Z"/>
    </g>
    <g opacity="0.22">
        <path fill="#ffffff" stroke="none" d="M 617.21 198.64 L 616.61 200.32 L 612.14 204.79 C 615.28 199.37 606.41 186.79 606.41 186.79 L 602.87 184.14 L 592.24 176.14 L 390.88 25.52 L 397.29 20.61 L 603.76 178.88 C 611.32351058413 182.73769420498 616.39516887742 190.188695534 617.21 198.64 Z"/>
    </g>
    <path fill="url(#linear-gradient-15)" stroke="none" d="M 779.4 126.4 C 779.4 126.4 745.57 170.15 739.15 177.48 C 727.44 190.8 719.89 208.27 719.89 208.27 L 702.89 280.61 L 683.89 275.54 C 683.89 275.54 701.63 209.21 708.76 195.13 C 715.89 181.05 775.3 122.69 775.3 122.69 Z"/>
    <path fill="#25233a" stroke="none" d="M 744 481.66 C 743.65 480.66 732.36 449.3 715.41 436.15 C 698.2 422.79 688.2 404.35 688.2 404.35 C 684.2 368.95 683.87 275.54 683.87 275.54 L 702.87 280.61 C 702.87 280.61 715.69 306.3 702.87 372.79 L 694.37 410.85 C 694.37 410.85 728.63 429.16 739.19 465.3 Z"/>
    <path fill="#25233a" stroke="none" d="M 602.88 378.57 C 602.88 378.57 604.49 416.16 583.45 445.57 C 579.68 450.84 572.01 466.15 566.21 478.11 L 564.55 479 L 560.62 478.18 L 560.62 478.18 L 593.24 375.29 C 593.24 375.29 632.75 328.48 640 324 C 647.25 319.52 663.08 324 663.08 324 Z"/>
</svg>
