<svg width="406" height="306" viewBox="0 0 377.09 321.74" xmlns="http://www.w3.org/2000/svg" xmlns:usvg="https://github.com/RazrFalcon/resvg" usvg:version="0.9.1">
    <defs>
        <linearGradient id="linear-gradient" x1="299.79" y1="226.53" x2="287.88" y2="205.51" gradientUnits="userSpaceOnUse" gradientTransform="matrix(0.99 -0.16 0.16 0.99 -97.9 -42)">
            <stop offset="0" stop-color="#000000" stop-opacity="0"/>
            <stop offset="0.95" stop-color="#000000"/>
        </linearGradient>
        <linearGradient id="linear-gradient-2" x1="281.36" y1="211.21" x2="296.99" y2="211.21" gradientUnits="userSpaceOnUse" gradientTransform="matrix(0.99 -0.16 0.16 0.99 -97.9 -42)">
            <stop offset="0" stop-color="#000000" stop-opacity="0"/>
            <stop offset="0.95" stop-color="#000000"/>
        </linearGradient>
        <linearGradient id="linear-gradient-3" x1="330.22" y1="199.3" x2="314.44" y2="172.37" gradientUnits="userSpaceOnUse" gradientTransform="matrix(0.99 -0.16 0.16 0.99 -97.9 -42)">
            <stop offset="0.02" stop-color="#ffffff" stop-opacity="0"/>
            <stop offset="0.32" stop-color="#ffffff" stop-opacity="0.39"/>
            <stop offset="0.68" stop-color="#ffffff" stop-opacity="0.68"/>
            <stop offset="1" stop-color="#ffffff"/>
        </linearGradient>
        <linearGradient id="linear-gradient-4" x1="293.41" y1="178.45" x2="271.65" y2="217.35" gradientUnits="userSpaceOnUse" gradientTransform="matrix(0.99 -0.16 0.16 0.99 -97.9 -42)">
            <stop offset="0.02" stop-color="#ffffff" stop-opacity="0"/>
            <stop offset="0.32" stop-color="#ffffff" stop-opacity="0.39"/>
            <stop offset="0.68" stop-color="#ffffff" stop-opacity="0.68"/>
            <stop offset="1" stop-color="#ffffff"/>
        </linearGradient>
        <linearGradient id="linear-gradient-5" x1="66.67" y1="218.73" x2="274.71" y2="218.73" gradientUnits="userSpaceOnUse">
            <stop offset="0.02" stop-color="#ffffff" stop-opacity="0"/>
            <stop offset="0.32" stop-color="#ffffff" stop-opacity="0.39"/>
            <stop offset="0.68" stop-color="#ffffff" stop-opacity="0.68"/>
            <stop offset="1" stop-color="#ffffff"/>
        </linearGradient>
        <linearGradient id="linear-gradient-6" x1="189.87" y1="267.26" x2="104.95" y2="122.3" gradientUnits="userSpaceOnUse">
            <stop offset="0.02" stop-color="#ffffff" stop-opacity="0"/>
            <stop offset="0.32" stop-color="#ffffff" stop-opacity="0.39"/>
            <stop offset="0.68" stop-color="#ffffff" stop-opacity="0.68"/>
            <stop offset="1" stop-color="#ffffff"/>
        </linearGradient>
        <linearGradient id="linear-gradient-7" x1="347.38" y1="199.78" x2="344.66" y2="172.04" gradientUnits="userSpaceOnUse" gradientTransform="matrix(0.99 -0.16 0.16 0.99 -127.91 -42.47)">
            <stop offset="0.02" stop-color="#ffffff" stop-opacity="0"/>
            <stop offset="0.32" stop-color="#ffffff" stop-opacity="0.39"/>
            <stop offset="0.68" stop-color="#ffffff" stop-opacity="0.68"/>
            <stop offset="1" stop-color="#ffffff"/>
        </linearGradient>
        <linearGradient id="linear-gradient-8" x1="347.17" y1="197.69" x2="344.9" y2="174.51" gradientUnits="userSpaceOnUse" gradientTransform="matrix(0.99 -0.16 0.16 0.99 -127.91 -42.47)">
            <stop offset="0.02" stop-color="#ffffff" stop-opacity="0"/>
            <stop offset="0.32" stop-color="#ffffff" stop-opacity="0.39"/>
            <stop offset="0.68" stop-color="#ffffff" stop-opacity="0.68"/>
            <stop offset="1" stop-color="#ffffff"/>
        </linearGradient>
        <linearGradient id="linear-gradient-9" x1="338.61" y1="223.6" x2="291.78" y2="140.67" gradientUnits="userSpaceOnUse">
            <stop offset="0.02" stop-color="#ffffff" stop-opacity="0"/>
            <stop offset="0.32" stop-color="#ffffff" stop-opacity="0.39"/>
            <stop offset="0.68" stop-color="#ffffff" stop-opacity="0.68"/>
            <stop offset="1" stop-color="#ffffff"/>
        </linearGradient>
        <linearGradient id="linear-gradient-10" x1="73.23" y1="152.79" x2="124.01" y2="99.9" gradientUnits="userSpaceOnUse">
            <stop offset="0.02" stop-color="#ffffff" stop-opacity="0"/>
            <stop offset="0.32" stop-color="#ffffff" stop-opacity="0.39"/>
            <stop offset="0.66" stop-color="#ffffff" stop-opacity="0.68"/>
            <stop offset="1" stop-color="#ffffff"/>
        </linearGradient>
    </defs>
    <g opacity="0.24" transform="matrix(1 0 0 1 -30.01 -0.47)">
        <path fill="#448cea" stroke="none" d="M 372.42 312.46 C 366.29 330.03 323.27 318.67 310.55 317.81 C 298.61 317.00333333333 286.66333333333 316.40333333333 274.71 316.01 C 241.91 314.91 209.04 315.32 176.28 317.24 C 168.51333333333 317.68666666667 160.75 318.22333333333 152.99 318.85 C 137.53 320.08 121.87 321.66 106.58 319.38 C 105.37 319.2 104.15 319 102.93 318.76 C 89 316.09 75.24 309.32 66.67 298.29 C 65.10156148257 296.27608200881 63.71922007289 294.12391366396 62.54 291.86 C 54.38 276.11 57.13 257.1 53.3 239.79 C 49.88 224.33 41.3 210.55 36.03 195.61 C 26.21376794449 167.82693193067 28.26759781038 137.22812129622 41.70871696906 111.0061152922 C 55.14983612775 84.78410928818 78.79276360446 65.25163863821 107.08 57 C 133.32 49.33 161.77 51.87 187.88 43.82 C 215.44 35.3 238.39 15.61 265.71 6.32 C 289.80207328725 -1.772723195 315.93648934895 -1.38813411026 339.78 7.41 C 367.57 17.76 392.71 46.57 383.83 74.87 C 380.15 86.57 371.1 96.54 369.9 108.75 C 367.57 132.57 395.06 149.43 398.8 173.07 C 403.02 199.76 376.95 219.97 360.67 241.54 C 356.18 247.47 352.23 254.12 351.05 261.46 C 347.94 280.89 377 299.36 372.42 312.46 Z"/>
    </g>
    <path fill="#448cea" stroke="none" transform="matrix(1 0 0 1 -30.01 -0.47)" d="M 224.32 123.64 C 224.32 123.64 234.43 126.26 233.32 129.07 C 232.21 131.88 227.56 134.75 221.1 138.07 L 221.33 141.28 C 221.33 141.28 238.4 136.11 240.42 129.14 C 241.5896666885 125.01257047864 240.7688643854 120.57580127269 238.2 117.14 Z"/>
    <path fill="url(#linear-gradient)" stroke="none" transform="matrix(1 0 0 1 -30.01 -0.47)" d="M 224.32 123.64 C 224.32 123.64 234.43 126.26 233.32 129.07 C 232.21 131.88 227.56 134.75 221.1 138.07 L 221.33 141.28 C 221.33 141.28 238.4 136.11 240.42 129.14 C 241.5896666885 125.01257047864 240.7688643854 120.57580127269 238.2 117.14 Z"/>
    <path fill="#448cea" stroke="none" transform="matrix(1 0 0 1 -30.01 -0.47)" d="M 221.68 112.9 C 221.68 112.9 214.78 116.98 213.68 117.9 C 212.58 118.82 212.6 121.82 215.21 124.98 C 219.14 129.72 222.39 128.51 222.39 128.51 L 229.04 121.61 Z"/>
    <path fill="url(#linear-gradient-2)" stroke="none" transform="matrix(1 0 0 1 -30.01 -0.47)" d="M 221.68 112.9 C 221.68 112.9 214.78 116.98 213.68 117.9 C 212.58 118.82 212.6 121.82 215.21 124.98 C 219.14 129.72 222.39 128.51 222.39 128.51 L 229.04 121.61 Z"/>
    <path fill="#448cea" stroke="none" transform="matrix(1 0 0 1 -30.01 -0.47)" d="M 216.21 117.24 C 222.4805253323 106.71020096195 230.82618107351 97.56502255496 240.74 90.36 C 257.46 78.07 282.16 68.96 290.4 71.56 C 298.64 74.16 288.19 93.71 253.9 112.45 C 253.17 112.84 248.25 115.55 247.49 115.88 L 223.64 125.88 C 223.64 125.88 219.16 125.66 216.21 117.24 Z"/>
    <path fill="url(#linear-gradient-3)" stroke="none" transform="matrix(1 0 0 1 -30.01 -0.47)" d="M 216.21 117.24 C 222.4805253323 106.71020096195 230.82618107351 97.56502255496 240.74 90.36 C 257.46 78.07 282.16 68.96 290.4 71.56 C 298.64 74.16 288.19 93.71 253.9 112.45 C 253.17 112.84 248.25 115.55 247.49 115.88 L 223.64 125.88 C 223.64 125.88 219.16 125.66 216.21 117.24 Z"/>
    <path fill="#448cea" stroke="none" transform="matrix(1 0 0 1 -30.01 -0.47)" d="M 230.11 99.53 C 230.11 99.53 222.7 92.18 214.39 95.82 C 206.08 99.46 194.15 117.21 194.15 117.21 L 198.27 117.44 C 198.27 117.44 212.02 104.38 214.5 105.44 C 216.98 106.5 217.18 115.51 217.18 115.51 C 217.18 115.51 222.93 114.77 227.02 108.06 C 231.11 101.35 230.11 99.53 230.11 99.53 Z"/>
    <path fill="url(#linear-gradient-4)" stroke="none" transform="matrix(1 0 0 1 -30.01 -0.47)" d="M 230.11 99.53 C 230.11 99.53 222.7 92.18 214.39 95.82 C 206.08 99.46 194.15 117.21 194.15 117.21 L 198.27 117.44 C 198.27 117.44 212.02 104.38 214.5 105.44 C 216.98 106.5 217.18 115.51 217.18 115.51 C 217.18 115.51 222.93 114.77 227.02 108.06 C 231.11 101.35 230.11 99.53 230.11 99.53 Z"/>
    <path fill="url(#linear-gradient-5)" stroke="none" transform="matrix(1 0 0 1 -30.01 -0.47)" d="M 274.71 316 C 241.91 314.9 209.04 315.31 176.28 317.23 C 168.51333333333 317.67666666667 160.75 318.21333333333 152.99 318.84 C 137.53 320.07 121.87 321.65 106.58 319.37 C 105.37 319.19 104.15 318.99 102.93 318.75 C 89 316.08 75.24 309.31 66.67 298.28 C 70.83 251.22 97.72 220.84 109.27 205.65 C 128.67 180.17 206.88 119.98 214.86 117.71 L 214.86 117.71 C 222.77 115.48 220.81 118.71 220.81 118.71 L 222.38 128.51 L 222.38 128.51 C 220.82 129.58 97.98 214.44 155.18 267.42 C 185.27 295.29 232.46 309.16 274.71 316 Z"/>
    <path fill="url(#linear-gradient-6)" stroke="none" transform="matrix(1 0 0 1 -30.01 -0.47)" d="M 116.23 242.86 C 101.1 280.02 131.85 301.81 176.28 317.24 C 168.51333333333 317.68666666667 160.75 318.22333333333 152.99 318.85 C 137.53 320.08 121.87 321.66 106.58 319.38 C 98.18 300.59 94.58 283.38 95.07 271.2 C 97.6 204.13 213.07 119.04 214.86 117.72 L 214.86 117.72 L 222.38 128.49 L 222.38 128.49 C 221.07 128.93 152.82 152.93 116.23 242.86 Z"/>
    <path fill="url(#linear-gradient-7)" stroke="none" d="M 248.95 87.53 C 248.95 90.58413466656 246.47413466656 93.06 243.42 93.06 C 240.36586533344 93.06 237.89 90.58413466656 237.89 87.53 C 237.89 84.47586533344 240.36586533344 82 243.42 82 C 246.47413466656 82 248.95 84.47586533344 248.95 87.53 Z"/>
    <path fill="url(#linear-gradient-8)" stroke="none" d="M 248.04 87.53 C 248.04 90.08155554422 245.97155554422 92.15 243.42 92.15 C 240.86844445578 92.15 238.8 90.08155554422 238.8 87.53 C 238.8 84.97844445578 240.86844445578 82.91 243.42 82.91 C 245.97155554422 82.91 248.04 84.97844445578 248.04 87.53 Z"/>
    <path fill="url(#linear-gradient-9)" stroke="none" transform="matrix(1 0 0 1 -30.01 -0.47)" d="M 314.75 164.3 C 304.75 159.65 293.13 158.16 282.59 161.3 C 272.05 164.44 262.87 172.62 259.51 183.1 C 258.58 186 258.05 189.1 256.26 191.6 C 253.95 194.78 250.01 196.26 246.94 198.73 C 237.38 206.42 239.05 222.87 248.19 231.06 C 257.33 239.25 271.11 240.28 282.97 237.14 C 295.4 251.09 316.24 256.88 334.09 251.34 C 337.57 256.61 345.19 257.75 351.14 255.62 C 357.09 253.49 361.76 248.88 366.22 244.4 L 379.83 230.75 C 387.44 223.12 395.13 215.37 400.52 206.04 C 405.91 196.71 408.79 185.44 406.04 175.04 C 403.43031616359 165.18631711022 396.14325620824 157.24528363479 386.54958666955 153.80042935623 C 376.95591713085 150.35557507766 366.28182078235 151.84719251975 358 157.79 C 356.26 146.64 347 145.06 336.39 147.27 C 333.75 147.81 310.55 162.34 314.75 164.3 Z"/>
    <path fill="url(#linear-gradient-10)" stroke="none" transform="matrix(1 0 0 1 -30.01 -0.47)" d="M 95.48 108.06 C 100.59 105.25 106.48 103.24 112.22 104.41 C 117.96 105.58 123.09 110.8 122.52 116.61 C 127.74251721722 116.06158695246 132.63985596019 119.23152155821 134.27802038736 124.22069586509 C 135.91618481454 129.20987017196 133.85111735152 134.66586765559 129.32 137.32 C 135.42 141.89 135.18 151.93 130.16 157.66 C 125.14 163.39 116.88 165.31 109.28 164.75 C 101.68 164.19 94.43 161.5 87.1 159.42 C 85.1401180124 158.70668670284 83.0339994297 158.49023405894 80.97 158.79 C 78.73 159.31 76.97 160.95 75.13 162.36 C 66.76148875002 168.78465357881 56.0139849464 171.25530216117 45.68 169.13 C 42.37295457799 168.54993832636 39.27238308886 167.12367544136 36.68 164.99 C 33.19 161.86 31.6 157.09 31.07 152.43 C 29.64 139.88 36.07 126.08 47.86 121.43 C 47.86 121.43 49.44 114.88 49.86 114.12 C 51.17549483647 111.6211659119 53.00978445078 109.43229243162 55.24 107.7 C 59.24 104.59 64.43 102.95 69.18 101.41 C 78.4 98.39 92.84 94.16 95.48 108.06 Z"/>
</svg>
