<svg width="406" height="306" viewBox="0 0 538.05 434.89" xmlns="http://www.w3.org/2000/svg" xmlns:usvg="https://github.com/RazrFalcon/resvg" usvg:version="0.9.1">
    <defs>
        <linearGradient id="linear-gradient" x1="320.77" y1="182.33" x2="298.92" y2="397.3" gradientUnits="userSpaceOnUse">
            <stop offset="0" stop-color="#010101" stop-opacity="0"/>
            <stop offset="0.95" stop-color="#010101"/>
        </linearGradient>
        <linearGradient id="linear-gradient-2" x1="417.47" y1="192.15" x2="395.63" y2="407.12" gradientUnits="userSpaceOnUse">
            <stop offset="0" stop-color="#010101" stop-opacity="0"/>
            <stop offset="0.95" stop-color="#010101"/>
        </linearGradient>
        <linearGradient id="linear-gradient-3" x1="244.82" y1="339.43" x2="119.45" y2="208.68" gradientUnits="userSpaceOnUse">
            <stop offset="0" stop-color="#010101" stop-opacity="0"/>
            <stop offset="0.95" stop-color="#010101"/>
        </linearGradient>
        <linearGradient id="linear-gradient-4" x1="227.2" y1="327.83" x2="99.67" y2="284.24" gradientUnits="userSpaceOnUse">
            <stop offset="0" stop-color="#010101" stop-opacity="0"/>
            <stop offset="0.95" stop-color="#010101"/>
        </linearGradient>
        <linearGradient id="linear-gradient-5" x1="204.09" y1="200.01" x2="189.03" y2="393.71" gradientUnits="userSpaceOnUse">
            <stop offset="0" stop-color="#010101" stop-opacity="0"/>
            <stop offset="0.95" stop-color="#010101"/>
        </linearGradient>
        <linearGradient id="linear-gradient-6" x1="236.57" y1="168.89" x2="242.31" y2="329.24" gradientUnits="userSpaceOnUse">
            <stop offset="0" stop-color="#010101" stop-opacity="0"/>
            <stop offset="0.95" stop-color="#010101"/>
        </linearGradient>
        <linearGradient id="linear-gradient-7" x1="320.61" y1="169.62" x2="404.94" y2="165.25" gradientUnits="userSpaceOnUse">
            <stop offset="0" stop-color="#ffffff" stop-opacity="0"/>
            <stop offset="0.95" stop-color="#ffffff"/>
        </linearGradient>
        <linearGradient id="linear-gradient-8" x1="374.52" y1="327.37" x2="379.77" y2="151.73" gradientUnits="userSpaceOnUse">
            <stop offset="0" stop-color="#010101" stop-opacity="0"/>
            <stop offset="0.95" stop-color="#010101"/>
        </linearGradient>
        <linearGradient id="linear-gradient-9" x1="375.31" y1="301.44" x2="378.5" y2="194.31" gradientUnits="userSpaceOnUse">
            <stop offset="0" stop-color="#010101" stop-opacity="0"/>
            <stop offset="0.95" stop-color="#010101"/>
        </linearGradient>
        <linearGradient id="linear-gradient-10" x1="381.9" y1="84.53" x2="341.71" y2="77.54" gradientUnits="userSpaceOnUse">
            <stop offset="0" stop-color="#010101" stop-opacity="0"/>
            <stop offset="0.95" stop-color="#010101"/>
        </linearGradient>
    </defs>
    <g opacity="0.24" transform="matrix(1 0 0 1 -12.95 -19.35)">
        <path fill="#1976d2" stroke="none" d="M 188.15 26.44 C 151.29 41.05 129.9 78.59 102 106.79 C 86 123 67.45 136.38 51 152.12 C 34.55 167.86 20 186.72 15 208.92 C 5.49 251 32 292.1 38.94 334.68 C 41.15 348.28 41.38 362.31 45.79 375.35 C 49.28 385.67 55.28 395 62.22 403.35 C 90.33 437.41 135.32 456.82 179.39 453.9 C 208.46 451.97 236.39 441.02 265.54 439.81 C 309.47 437.98 353.81 458.38 396.42 447.57 C 416.07 442.57 433.47 431.32 450.19 419.86 C 483.37 397.11 517.91 369.21 525.62 329.72 C 531.28 300.72 521.2 270.15 528.23 241.46 C 532.31 224.81 541.9 210.02 546.96 193.64 C 557.71 158.91 546.23 119.4 521.74 92.53 C 497.25 65.66 461.31 50.82 425.09 47.67 C 401.34 45.6 377.44 48.21 353.6 47.75 C 295.42 46.69 248.52 2.51 188.15 26.44 Z"/>
    </g>
    <g opacity="0.24" transform="matrix(1 0 0 1 -12.95 -19.35)">
        <path fill="#1976d2" stroke="none" d="M 138.42 372.6 C 135.94 373.1 133.3 373.75 131.63 375.6 C 129.28 378.28 129.81 382.6 131.96 385.45 C 134.11 388.3 137.46 389.92 140.78 391.19 C 156.42 397.19 173.6 397.24 190.34 397.26 C 224.13 397.26 259.2 397.06 289.8 382.71 C 265.07 373.16 242.04 373.63 216.3 371.81 C 189.52 370 165.21 367.12 138.42 372.6 Z"/>
    </g>
    <path fill="#1976d2" stroke="none" d="M 328.63 197.09 L 312.73 205.8 L 290.19 261.47 L 337.91 235.34 L 328.63 197.09 Z"/>
    <path fill="#1976d2" stroke="none" d="M 397.18 197.09 L 413.08 205.8 L 435.62 261.47 L 387.9 235.34 L 397.18 197.09 Z"/>
    <path fill="url(#linear-gradient)" stroke="none" d="M 328.63 197.09 L 312.73 205.8 L 290.19 261.47 L 337.91 235.34 L 328.63 197.09 Z"/>
    <path fill="url(#linear-gradient-2)" stroke="none" d="M 397.18 197.09 L 413.08 205.8 L 435.62 261.47 L 387.9 235.34 L 397.18 197.09 Z"/>
    <path fill="#606161" stroke="none" transform="matrix(1 0 0 1 -12.95 -19.35)" d="M 221.52 369 C 220.88552974439 371.22601506953 221.86185883512 373.59650900592 223.88 374.73 C 224.85480104076 375.16581778633 225.87898619993 375.4814682944 226.93 375.67 C 230.15531076087 376.46071260632 233.14067258858 378.02202252771 235.63 380.22 C 236.45373203069 380.76314514485 236.93793021244 381.69371352539 236.91 382.68 C 236.68 383.79 235.38 384.26 234.28 384.52 C 231.96719469517 385.14805460354 229.60546260417 385.57958922073 227.22 385.81 C 222.37 386.14 217.57 384.81 212.89 383.46 C 211.11 382.95 208.43 382.18 208.02 380.11 C 207.93724126548 378.68358856006 208.00427441071 377.25243090955 208.22 375.84 L 208.53 368.64"/>
    <path fill="#606161" stroke="none" transform="matrix(1 0 0 1 -12.95 -19.35)" d="M 193.89 377.59 C 193.45545244097 378.71260092898 193.72184084145 379.98578078424 194.57 380.84 C 195.41139065632 381.6629009805 196.37222317809 382.35402612774 197.42 382.89 C 200.1858828091 384.5681420136 202.62519814596 386.73303437506 204.62 389.28 C 205.54 390.45 206.4 391.98 205.82 393.35 C 205.5112138307 393.98533631937 205.02039521158 394.51444575274 204.41 394.87 C 202.41384506305 396.03120802998 200.11298995868 396.5611019328 197.81 396.39 C 192 396.24 183.41 392.61 181.73 386.32 C 181.2 384.37 181.78 381.7 181.86 379.69 L 182.07 374.84"/>
    <path fill="#606161" stroke="none" transform="matrix(1 0 0 1 -12.95 -19.35)" d="M 226.82 257.77 L 222.3 370.77 C 220.55568373512 372.05151618003 218.46344155464 372.7733397323 216.3 372.84 C 212.13 373.08 211.38 373.38 208.38 370.65 L 195.28 252.14 L 226.82 251.48 Z"/>
    <path fill="url(#linear-gradient-3)" stroke="none" transform="matrix(1 0 0 1 -12.95 -19.35)" d="M 226.82 257.77 L 222.3 370.77 C 220.55568373512 372.05151618003 218.46344155464 372.7733397323 216.3 372.84 C 212.13 373.08 211.38 373.38 208.38 370.65 L 195.28 252.14 L 226.82 251.48 Z"/>
    <path fill="#606161" stroke="none" transform="matrix(1 0 0 1 -12.95 -19.35)" d="M 209 267.92 L 196 377.82 C 196 377.82 194.12 379.75 189 379.82 C 183.19 379.89 182.66 379.1 181.36 376.16 L 178.79 250.1 L 208.64 255.19 Z"/>
    <path fill="url(#linear-gradient-4)" stroke="none" transform="matrix(1 0 0 1 -12.95 -19.35)" d="M 209 267.92 L 196 377.82 C 196 377.82 194.12 379.75 189 379.82 C 183.19 379.89 182.66 379.1 181.36 376.16 L 178.79 250.1 L 208.64 255.19 Z"/>
    <path fill="#f2fbff" stroke="none" transform="matrix(1 0 0 1 -12.95 -19.35)" d="M 213.05 256.92 C 208.97671074521 258.29756265124 204.78090846891 259.28205257082 200.52 259.86 C 194.87 260.44 188.95 257.71 184.52 257.48 C 178.61 257.18 178.45 256.99 178.45 253.14 C 178.45 251.2 227.59 246.55 227.59 246.55 C 227.59 246.55 227.36 250.1 227.37 253.38 C 227.37 255.84 226.32 255.7 221.85 255.96 C 217.38 256.22 216.52 254.86 213.05 256.92 Z"/>
    <path fill="#1976d2" stroke="none" transform="matrix(1 0 0 1 -12.95 -19.35)" d="M 193.66 170.16 C 193.66 170.16 185.42 172.3 179.54 176.58 C 175.91 179.22 178.42 253.14 178.42 253.14 C 178.78 253.08 194.57 259.48 209.84 256.85 C 222.84 254.61 227.53 248.51 227.53 248.51 C 227.53 248.51 228.7 177.58 226.17 174.67 C 225.05 173.37 212.68 168.8 212.68 168.8 C 212.68 168.8 207.28 176.92 193.66 170.16 Z"/>
    <path fill="url(#linear-gradient-5)" stroke="none" transform="matrix(1 0 0 1 -12.95 -19.35)" d="M 193.66 170.16 C 193.66 170.16 185.42 172.3 179.54 176.58 C 175.91 179.22 178.42 253.14 178.42 253.14 C 178.78 253.08 194.57 259.48 209.84 256.85 C 222.84 254.61 227.53 248.51 227.53 248.51 C 227.53 248.51 228.7 177.58 226.17 174.67 C 225.05 173.37 212.68 168.8 212.68 168.8 C 212.68 168.8 207.28 176.92 193.66 170.16 Z"/>
    <path fill="#c8a59c" stroke="none" transform="matrix(1 0 0 1 -12.95 -19.35)" d="M 196.36 153.74 L 193.66 170.16 C 193.66 170.16 199.66 179 207.33 177.68 C 215 176.36 213.07 172.8 213.07 172.8 L 212.07 158.93 C 212.07 158.93 205.18 160.14 196.36 153.74 Z"/>
    <path fill="#b58b81" stroke="none" transform="matrix(1 0 0 1 -12.95 -19.35)" d="M 195.41 159.5 L 196.41 153.74 C 205.23 160.14 209.81 157.42 209.81 157.42 L 211.94 164.87 C 210.74168873113 166.12398417558 209.12788686486 166.89889344176 207.4 167.05 C 203.12 167.35 198.84 164 195.41 159.5 Z"/>
    <path fill="#f2fbff" stroke="none" transform="matrix(1 0 0 1 -12.95 -19.35)" d="M 194 168.18 L 186 171.94 C 186 171.94 198.6 185.26 202.44 185 C 202.44 185 206.07 178.26 209.44 177.2 Z"/>
    <path fill="#f2fbff" stroke="none" transform="matrix(1 0 0 1 -12.95 -19.35)" d="M 212.53 170.47 C 211.86922488304 172.85679459739 210.83656682025 175.12459269607 209.47 177.19 C 210.22 177.48 215.11 180.89 215.19 183.19 C 215.19 183.19 220.05 172.19 218.04 170.46 C 216.35913825101 169.60417307232 214.63329284066 168.8397270395 212.87 168.17 Z"/>
    <path fill="#1976d2" stroke="none" transform="matrix(1 0 0 1 -12.95 -19.35)" d="M 182.79 174.63 C 182.79 174.63 170.42 178.63 169.02 198.38 C 167.74 216.38 164.52 229.45 167.14 234.78 C 170.55 241.73 194.4 242.88 194.4 242.88 C 194.97671785604 239.42085586904 194.83030586843 235.87972872697 193.97 232.48 L 180.9 227.26 C 180.9 227.26 183 177.71 182.79 174.63 Z"/>
    <path fill="#c8a59c" stroke="none" transform="matrix(1 0 0 1 -12.95 -19.35)" d="M 189.45 141.78 C 190.1 150.89 199.45 166.99 208.55 166.34 C 217.65 165.69 220.3 146.84 219.65 137.73 C 219 128.62 213.89 123.45 204.77 124.1 C 200.39371384282 124.41240158784 196.32085331676 126.45076875173 193.44768201502 129.7665434655 C 190.57451071327 133.08231817927 189.13646584505 137.40379483852 189.45 141.78 Z"/>
    <path fill="#b58b81" stroke="none" transform="matrix(1 0 0 1 -12.95 -19.35)" d="M 210.9 241.45 C 210.68 239.71 211.5 238.04 211.74 235.08 C 211.98 232.12 210.06 231.35 207.25 231.08 C 206.48 230.99 205.88 230.9 205.37 230.82 C 202.75 231.45 204.84 234.63 204.98 236.82 C 205.12 239.01 204.63 242.15 205.39 242.82 C 205.71 243.11 208.12 242.98 210.91 242.62 C 210.95489628647 242.23107818972 210.95153747792 241.83809759007 210.9 241.45 Z"/>
    <path fill="#c8a59c" stroke="none" transform="matrix(1 0 0 1 -12.95 -19.35)" d="M 212.63 156.93 C 212.63 156.93 212.38 156.7 210.47 156.84 C 208.20221245351 156.95569986413 205.92877703143 156.79451094204 203.7 156.36 C 202.23 155.99 201.53 156.22 201.7 158.19 C 201.87 160.16 203.41 161.91 207.27 162.12 C 211.6 162.35 213.42 160.72 213.76 158.77 C 214 157.36 213.11 156.89 212.63 156.93 Z"/>
    <path fill="#c8a59c" stroke="none" transform="matrix(1 0 0 1 -12.95 -19.35)" d="M 196 232.79 C 197.62328239894 232.44461050093 199.22313290414 231.9970531571 200.79 231.45 C 202.85 230.67 203.5 231.13 206.52 231.45 C 209.54 231.77 211.61 232.54 211.35 235.57 C 211.09 238.6 210.22 240.3 210.45 242.07 C 210.68 243.84 210.13 245.36 207.45 245.42 C 204.77 245.48 196 242.78 196 242.78"/>
    <path fill="#f2fbff" stroke="none" transform="matrix(1 0 0 1 -12.95 -19.35)" d="M 193.08 232 L 197.67 232 C 197.67 232 199.67 238.62 197.07 243.21 L 192 243 C 192 243 193.72 236.56 193.08 232 Z"/>
    <path fill="#d2e8ec" stroke="none" d="M 183.46 214.79 C 183.46 215.38094468232 183.00780759733 215.86 182.45 215.86 C 181.89219240267 215.86 181.44 215.38094468232 181.44 214.79 C 181.44 214.19905531768 181.89219240267 213.72 182.45 213.72 C 183.00780759733 213.72 183.46 214.19905531768 183.46 214.79 Z"/>
    <path fill="#292f67" stroke="none" transform="matrix(1 0 0 1 -12.95 -19.35)" d="M 213.29 146.08 L 213.29 146.08 C 212.98679882622 144.91066673283 213.16319889107 143.66866627629 213.78 142.63 C 214.38565375046 141.58583402552 215.3886856043 140.83175612101 216.56 140.54 C 218.1606649272 140.04651556572 219.90302561768 140.47239109307 221.09557536234 141.64860544538 C 222.28812510699 142.82481979768 222.73799020659 144.56114123471 222.26662856231 146.16845990142 C 221.79526691803 147.77577856813 220.47891288776 148.99413927313 218.84 149.34 L 218.68 149.34 C 216.29995993557 149.87371997401 213.92243003008 148.43573342634 213.29 146.08 Z M 216.83 141.6 C 214.98439074837 142.08009108314 213.87520648249 143.96302082482 214.35 145.81 L 214.35 145.81 C 214.82259099093 147.6461323375 216.68486594583 148.75993766006 218.5261134285 148.30768561406 C 220.36736091116 147.85543356805 221.50169729745 146.00559269194 221.0698395323 144.15945535247 C 220.63798176715 142.313318013 218.80080130963 141.15858935624 216.95 141.57 Z"/>
    <path fill="#292f67" stroke="none" transform="matrix(1 0 0 1 -12.95 -19.35)" d="M 204 149.41 C 202.81685467736 148.71637125621 201.9599794597 147.57867138739 201.62 146.25 L 201.62 146.25 C 200.91204362909 143.4921896157 202.57166912963 140.68212609626 205.32857812578 139.97066764646 C 208.08548712193 139.25920919667 210.89765623812 140.91526434287 211.61261561915 143.67126750367 C 212.32757500017 146.42727066446 210.6750928797 149.24154084106 207.92 149.96 L 207.73 149.96 C 206.46210208442 150.26089225054 205.1270901196 150.06404062034 204 149.41 Z M 205.6 141.02 C 204.54468465646 141.28760648278 203.64106348455 141.96784407488 203.09202319984 142.9079815487 C 202.54298291512 143.84811902253 202.39453142758 144.9693757103 202.68 146.02 C 203.24026731722 148.17548619684 205.4289530756 149.48036725581 207.59155843912 148.94824109293 C 209.75416380263 148.41611493005 211.08746029749 146.24462226742 210.58356568641 144.07526512014 C 210.07967107533 141.90590797286 207.92574040115 140.54442254223 205.75 141.02 Z"/>
    <path fill="#292f67" stroke="none" transform="matrix(1 0 0 1 -12.95 -19.35)" d="M 213.17 145 L 214.22 144.69 C 214.08416823373 144.26182819376 213.76002003148 143.91926248002 213.34 143.76 C 212.40215355102 143.50272530575 211.39849505302 143.67488570504 210.6 144.23 L 211.12 145.23 C 212.19 144.65 212.71 144.71 212.92 144.8 C 213.02597029589 144.8320020642 213.11551670169 144.90363918884 213.17 145 Z"/>
    <path fill="#292f67" stroke="none" d="M 189.1 125.36 L 189.06 124.27 L 182.82 124.45 L 182.87 125.54 L 189.1 125.36 Z"/>
    <path fill="#1976d2" stroke="none" transform="matrix(1 0 0 1 -12.95 -19.35)" d="M 226.17 174.67 C 226.17 174.67 233.08 193.93 237.38 209.54 C 241.68 225.15 254.38 209.81 254.38 209.81 C 254.38 209.81 261.38 209.54 261.64 213.81 C 261.9 218.08 257.64 231.81 245.5 232.11 C 233.36 232.41 220.5 216.5 220.5 216.5 Z"/>
    <path fill="#1976d2" stroke="none" transform="matrix(1 0 0 1 -12.95 -19.35)" d="M 244.76 241.59 L 220.07 241.23 C 218.77300493297 241.30329301429 217.51831898742 240.75608276689 216.68959303866 239.75569215732 C 215.86086708991 238.75530154775 215.55666351962 237.42070945103 215.87 236.16 L 225.3 192.51 C 226.05696028111 189.6203697855 228.66289031876 187.60128698467 231.65 187.59 L 256.34 187.95 C 257.63835346698 187.87229015968 258.89595660142 188.41828120618 259.72571132566 189.41991369472 C 260.5554660499 190.42154618326 260.85792892717 191.75877767949 260.54 193.02 L 251.12 236.67 C 250.35901429265 239.56118342129 247.7496380906 241.57975746438 244.76 241.59 Z"/>
    <path fill="url(#linear-gradient-6)" stroke="none" transform="matrix(1 0 0 1 -12.95 -19.35)" d="M 244.76 241.59 L 220.07 241.23 C 218.77300493297 241.30329301429 217.51831898742 240.75608276689 216.68959303866 239.75569215732 C 215.86086708991 238.75530154775 215.55666351962 237.42070945103 215.87 236.16 L 225.3 192.51 C 226.05696028111 189.6203697855 228.66289031876 187.60128698467 231.65 187.59 L 256.34 187.95 C 257.63835346698 187.87229015968 258.89595660142 188.41828120618 259.72571132566 189.41991369472 C 260.5554660499 190.42154618326 260.85792892717 191.75877767949 260.54 193.02 L 251.12 236.67 C 250.35901429265 239.56118342129 247.7496380906 241.57975746438 244.76 241.59 Z"/>
    <path fill="#1976d2" stroke="none" transform="matrix(1 0 0 1 -12.95 -19.35)" d="M 244.93 241.85 L 221.31 241.5 C 220.07110141137 241.56188984488 218.87601529473 241.03374465751 218.08773270587 240.07598131204 C 217.29945011701 239.11821796658 217.0110018058 237.84386882412 217.31 236.64 L 226.31 194.87 C 227.04222274891 192.10406764995 229.53881884389 190.17320268979 232.4 190.16 L 256.03 190.51 C 257.27026474494 190.44374874489 258.46823490624 190.9706986499 259.25752757316 191.9296892402 C 260.04682024007 192.8886798305 260.33354092543 194.16562930419 260.03 195.37 L 251.03 237.14 C 250.29681151459 239.90951034384 247.79490443059 241.84131073166 244.93 241.85 Z"/>
    <path fill="#c8a59c" stroke="none" transform="matrix(1 0 0 1 -12.95 -19.35)" d="M 260.84 211.82 C 260.82158305254 210.85254850211 260.61437000948 209.89800972998 260.23 209.01 C 259.96633054398 208.10784185851 259.43657494529 207.30623799206 258.71 206.71 C 257.90592412755 206.25712469506 256.99219941915 206.03561567484 256.07 206.07 C 255.14 206.07 254.2 206.07 253.27 206.07 C 252.24438497999 206.05302632367 251.22532213278 206.23645763617 250.27 206.61 C 248.90379053626 207.35371891627 247.84205030974 208.55348537223 247.27 210 C 245.99 212.73 245.72 216.2 247.55 218.59 C 248.35782609253 219.53901161013 249.30936669701 220.35558191611 250.37 221.01 C 251.52 221.8 252.87 222.63 254.22 222.26 C 254.86271351179 222.03409848043 255.44931453885 221.67258854514 255.94 221.2 L 257.94 219.54 C 258.62234312484 219.03255494022 259.1996891062 218.39747436073 259.64 217.67 C 260.0068076827 216.73075694738 260.18355552562 215.72805283849 260.16 214.72 C 260.435142788 213.76534510212 260.66209615264 212.79745575292 260.84 211.82 Z"/>
    <path fill="#606161" stroke="none" transform="matrix(1 0 0 1 -12.95 -19.35)" d="M 218.43 125.92 C 217.14695976298 122.8768458879 215.27042783593 120.11983974145 212.91 117.81 L 212.72 119.64 C 208.97228232858 117.92834971699 204.92683606663 116.96369250592 200.81 116.8 L 201.17 118.08 C 199.67276577802 117.70586113853 198.23542443206 117.12351909439 196.9 116.35 L 195.61 118.65 C 194.73376362642 117.95456193706 193.77273905522 117.37324287826 192.75 116.92 L 191.08 122.92 C 190.60823524361 122.66758235657 190.1712477836 122.35496825056 189.78 121.99 C 189.34 121.69 188.63 121.6 188.35 122.05 C 188.2418597872 122.26651856782 188.19681050438 122.50909162918 188.22 122.75 L 188.22 125.33 L 185.76 124.45 C 185.54772546532 124.35060586808 185.30227453468 124.35060586808 185.09 124.45 C 184.9250205871 124.58704138504 184.82374864836 124.78596840756 184.81 125 C 183.02 133.94 186.81 145.57 192.7 152.52 C 192.92654183361 151.44920133813 192.81471878361 150.33446530842 192.38 149.33 C 191.89 148.05 190.38 147.33 190.64 145.98 C 190.78308670429 144.56634662573 191.96914677317 143.48811019948 193.39 143.48 C 195.3 143.7 194.59 144.4 195.95 145.76 C 196.43 143.11 195.28 138.76 196.11 136.21 C 196.66748786413 134.84941630147 197.83564070897 133.83267019571 199.26011475866 133.46817821896 C 200.68458880834 133.10368624221 202.19752719835 133.43439932107 203.34 134.36 C 203.28 132.66 205.28 131.57 206.98 131.63 C 208.68 131.69 210.61 132.34 212.41 132.56 C 213.94 132.74 215.51 133.81 216.98 133.79 C 220.76 133.73 219.24 128.05 218.43 125.92 Z"/>
    <g opacity="0.24">
        <path fill="#1976d2" stroke="none" d="M 389.6 340.48 C 389.6 342.33015391193 377.27439916284 343.83 362.07 343.83 C 346.86560083716 343.83 334.54 342.33015391193 334.54 340.48 C 334.54 338.62984608807 346.86560083716 337.13 362.07 337.13 C 377.27439916284 337.13 389.6 338.62984608807 389.6 340.48 Z"/>
    </g>
    <g opacity="0.24">
        <path fill="#1976d2" stroke="none" d="M 405.05 360.25 C 405.05 363.24890619158 385.05951407995 365.68 360.4 365.68 C 335.74048592005 365.68 315.75 363.24890619158 315.75 360.25 C 315.75 357.25109380842 335.74048592006 354.82 360.4 354.82 C 385.05951407995 354.82 405.05 357.25109380842 405.05 360.25 Z"/>
    </g>
    <path fill="none" stroke="#ffffff" stroke-miterlimit="10" stroke-width="6.21" d="M 431.17 318.72 C 431.17 323.41994322106 399.85679540317 327.23 361.23 327.23 C 322.60320459683 327.23 291.29 323.41994322106 291.29 318.72 C 291.29 314.02005677894 322.60320459683 310.21 361.23 310.21 C 399.85679540317 310.21 431.17 314.02005677894 431.17 318.72 Z"/>
    <path fill="#1976d2" stroke="none" transform="matrix(1 0 0 1 -12.95 -19.35)" d="M 375.74 75.1 C 375.74 75.1 300.59 119.23 344.74 256.86 L 406 256.86 C 406 256.86 451.48 147.34 375.74 75.1 Z"/>
    <path fill="url(#linear-gradient-7)" stroke="none" transform="matrix(1 0 0 1 -12.95 -19.35)" d="M 375.74 75.1 C 375.74 75.1 300.59 119.23 344.74 256.86 L 406 256.86 C 406 256.86 451.48 147.34 375.74 75.1 Z"/>
    <path fill="#1976d2" stroke="none" d="M 382.08 145.29 C 382.08 156.65049730402 372.87049730402 165.86 361.51 165.86 C 350.14950269598 165.86 340.94 156.65049730402 340.94 145.29 C 340.94 133.92950269598 350.14950269598 124.72 361.51 124.72 C 372.87049730402 124.72 382.08 133.92950269598 382.08 145.29 Z"/>
    <path fill="#1976d2" stroke="none" transform="matrix(1 0 0 1 -12.95 -19.35)" d="M 349.88 305.21 L 357.44 291.44 C 358.77716390253 308.34303386364 362.9275752066 324.90412131473 369.72 340.44 C 381.93 328.29 384.99 309.95 387.35 292.89 C 390.81666666667 301.26333333333 393.91333333333 309.77333333333 396.64 318.42 C 402.18137725017 307.42881539362 403.98935049913 294.93098089596 401.79 282.82 L 406.49 290.82 C 409.70239302555 279.21521710494 408.31624038608 266.8186427245 402.62 256.21 C 392.91333333333 256.93 383.18666666667 257.40666666667 373.44 257.64 C 368.77333333333 257.76 364.08666666667 257.82 359.38 257.82 C 356.29 257.82 350.6 256.61 347.78 258.18 C 342.36 261.18 344.34 274.11 344.68 279.42 C 344.9608696553 283.81073365763 345.53885953208 288.17739706202 346.41 292.49 C 346.82 294.52 350.65 303.81 349.88 305.21 Z"/>
    <path fill="url(#linear-gradient-8)" stroke="none" transform="matrix(1 0 0 1 -12.95 -19.35)" d="M 349.88 305.21 L 357.44 291.44 C 358.77716390253 308.34303386364 362.9275752066 324.90412131473 369.72 340.44 C 381.93 328.29 384.99 309.95 387.35 292.89 C 390.81666666667 301.26333333333 393.91333333333 309.77333333333 396.64 318.42 C 402.18137725017 307.42881539362 403.98935049913 294.93098089596 401.79 282.82 L 406.49 290.82 C 409.70239302555 279.21521710494 408.31624038608 266.8186427245 402.62 256.21 C 392.91333333333 256.93 383.18666666667 257.40666666667 373.44 257.64 C 368.77333333333 257.76 364.08666666667 257.82 359.38 257.82 C 356.29 257.82 350.6 256.61 347.78 258.18 C 342.36 261.18 344.34 274.11 344.68 279.42 C 344.9608696553 283.81073365763 345.53885953208 288.17739706202 346.41 292.49 C 346.82 294.52 350.65 303.81 349.88 305.21 Z"/>
    <path fill="url(#linear-gradient-9)" stroke="none" transform="matrix(1 0 0 1 -12.95 -19.35)" d="M 360.28 287.92 L 364.88 279.52 C 365.70148443967 289.82768956798 368.23625398342 299.92621143024 372.38 309.4 C 379.82 301.99 381.69 290.8 383.13 280.4 C 385.25 285.51333333333 387.14 290.70666666667 388.8 295.98 C 392.17863989143 289.27342867105 393.2809022331 281.64886240957 391.94 274.26 L 394.8 279.16 C 396.77537708136 272.06655626316 395.92967660522 264.4839197907 392.44 258 C 386.52 258.44 380.59 258.73333333333 374.65 258.88 C 371.79 258.94666666667 368.93 258.98 366.07 258.98 C 364.19 258.98 360.72 258.24 359 259.2 C 355.69 261.05 356.89 268.92 357.1 272.2 C 357.27636093914 274.88714084723 357.63046895725 277.5596541915 358.16 280.2 C 358.41 281.4 360.74 287.07 360.28 287.92 Z"/>
    <path fill="#1976d2" stroke="none" transform="matrix(1 0 0 1 -12.95 -19.35)" d="M 360.38 89.15 C 360.38 89.15 375.96 94.4 388.63 89.15 L 376.05 75.47 C 375.44301991052 74.81000780587 374.57928161862 74.44622640933 373.68301570177 74.47309519485 C 372.78674978492 74.49996398036 371.946354329 74.91483289825 371.38 75.61 Z"/>
    <path fill="url(#linear-gradient-10)" stroke="none" transform="matrix(1 0 0 1 -12.95 -19.35)" d="M 360.38 89.15 C 360.38 89.15 375.96 94.4 388.63 89.15 L 375.9 75.31 C 375.33057731651 74.69141974854 374.52072385352 74.35041148889 373.68033016175 74.37535468065 C 372.83993646999 74.40029787242 372.05173327303 74.7887370375 371.52 75.44 Z"/>
    <path fill="none" stroke="#ffffff" stroke-miterlimit="10" stroke-width="4.17" transform="matrix(1 0 0 1 -12.95 -19.35)" d="M 401.11 307 C 411.59 308 418.27 309.63 418.27 311.41 C 418.27 314.57 397.27 317.13 371.27 317.13 C 345.27 317.13 324.27 314.57 324.27 311.41 C 324.27 308.8 338.71 306.59 358.42 305.91"/>
</svg>
