<svg width="406" height="306" viewBox="0 0 352.24 300.77" xmlns="http://www.w3.org/2000/svg" xmlns:usvg="https://github.com/RazrFalcon/resvg" usvg:version="0.9.1">
    <defs>
        <linearGradient id="linear-gradient" x1="183.83" y1="264.73" x2="185.9" y2="304.52" gradientUnits="userSpaceOnUse">
            <stop offset="0.01" stop-color="#000000"/>
            <stop offset="0.08" stop-color="#000000" stop-opacity="0.69"/>
            <stop offset="0.21" stop-color="#000000" stop-opacity="0.32"/>
            <stop offset="1" stop-color="#000000" stop-opacity="0"/>
        </linearGradient>
        <linearGradient id="linear-gradient-2" x1="198.79" y1="115.83" x2="207.47" y2="258.13" gradientUnits="userSpaceOnUse">
            <stop offset="0.01" stop-color="#000000"/>
            <stop offset="0.08" stop-color="#000000" stop-opacity="0.69"/>
            <stop offset="0.21" stop-color="#000000" stop-opacity="0.32"/>
            <stop offset="1" stop-color="#000000" stop-opacity="0"/>
        </linearGradient>
        <linearGradient id="linear-gradient-3" x1="2316.74" y1="-609.73" x2="2301.18" y2="-592.25" gradientUnits="userSpaceOnUse" gradientTransform="matrix(-0.82 0.58 0.58 0.82 2373.07 -750.08)">
            <stop offset="0.01" stop-color="#000000"/>
            <stop offset="0.08" stop-color="#000000" stop-opacity="0.69"/>
            <stop offset="0.21" stop-color="#000000" stop-opacity="0.32"/>
            <stop offset="1" stop-color="#000000" stop-opacity="0"/>
        </linearGradient>
        <linearGradient id="linear-gradient-4" x1="4330.77" y1="2142.84" x2="4507.33" y2="2228.49" gradientUnits="userSpaceOnUse" gradientTransform="matrix(-0.7890840848346905 -0.6142852000989434 0.6142852000989434 -0.7890840848346905 2301.07 4516.13)">
            <stop offset="0.01" stop-color="#000000"/>
            <stop offset="0.08" stop-color="#000000" stop-opacity="0.69"/>
            <stop offset="0.21" stop-color="#000000" stop-opacity="0.32"/>
            <stop offset="1" stop-color="#000000" stop-opacity="0"/>
        </linearGradient>
        <linearGradient id="linear-gradient-5" x1="151.05" y1="89.31" x2="160.05" y2="133.45" gradientUnits="userSpaceOnUse">
            <stop offset="0.01" stop-color="#000000"/>
            <stop offset="0.08" stop-color="#000000" stop-opacity="0.69"/>
            <stop offset="0.21" stop-color="#000000" stop-opacity="0.32"/>
            <stop offset="1" stop-color="#000000" stop-opacity="0"/>
        </linearGradient>
        <linearGradient id="linear-gradient-6" x1="2290.73" y1="-591.78" x2="2325.28" y2="-589.92" gradientUnits="userSpaceOnUse" gradientTransform="matrix(-0.82 0.58 0.58 0.82 2373.07 -750.08)">
            <stop offset="0.01" stop-color="#000000"/>
            <stop offset="0.08" stop-color="#000000" stop-opacity="0.69"/>
            <stop offset="0.21" stop-color="#000000" stop-opacity="0.32"/>
            <stop offset="1" stop-color="#000000" stop-opacity="0"/>
        </linearGradient>
        <linearGradient id="linear-gradient-7" x1="169.8" y1="127.82" x2="168.29" y2="306.52" gradientUnits="userSpaceOnUse">
            <stop offset="0.01" stop-color="#000000"/>
            <stop offset="0.08" stop-color="#000000" stop-opacity="0.69"/>
            <stop offset="0.21" stop-color="#000000" stop-opacity="0.32"/>
            <stop offset="1" stop-color="#000000" stop-opacity="0"/>
        </linearGradient>
        <linearGradient id="linear-gradient-8" x1="163.48" y1="158.08" x2="90.67" y2="199.84" gradientUnits="userSpaceOnUse">
            <stop offset="0.01" stop-color="#000000"/>
            <stop offset="0.08" stop-color="#000000" stop-opacity="0.69"/>
            <stop offset="0.21" stop-color="#000000" stop-opacity="0.32"/>
            <stop offset="1" stop-color="#000000" stop-opacity="0"/>
        </linearGradient>
        <linearGradient id="linear-gradient-9" x1="130.94" y1="144.46" x2="3.3" y2="217.66" gradientUnits="userSpaceOnUse">
            <stop offset="0.01" stop-color="#000000"/>
            <stop offset="0.08" stop-color="#000000" stop-opacity="0.69"/>
            <stop offset="0.21" stop-color="#000000" stop-opacity="0.32"/>
            <stop offset="1" stop-color="#000000" stop-opacity="0"/>
        </linearGradient>
        <linearGradient id="linear-gradient-10" x1="287.37" y1="96.88" x2="352.62" y2="250.07" gradientUnits="userSpaceOnUse">
            <stop offset="0.01" stop-color="#000000"/>
            <stop offset="0.08" stop-color="#000000" stop-opacity="0.69"/>
            <stop offset="0.21" stop-color="#000000" stop-opacity="0.32"/>
            <stop offset="1" stop-color="#000000" stop-opacity="0"/>
        </linearGradient>
        <linearGradient id="linear-gradient-11" x1="169.38" y1="134.78" x2="406.73" y2="301.18" gradientUnits="userSpaceOnUse">
            <stop offset="0.01" stop-color="#000000"/>
            <stop offset="0.08" stop-color="#000000" stop-opacity="0.69"/>
            <stop offset="0.21" stop-color="#000000" stop-opacity="0.32"/>
            <stop offset="1" stop-color="#000000" stop-opacity="0"/>
        </linearGradient>
        <linearGradient id="linear-gradient-12" x1="199.17" y1="253.11" x2="243.94" y2="12.38" gradientUnits="userSpaceOnUse">
            <stop offset="0.01" stop-color="#000000"/>
            <stop offset="0.08" stop-color="#000000" stop-opacity="0.69"/>
            <stop offset="0.21" stop-color="#000000" stop-opacity="0.32"/>
            <stop offset="1" stop-color="#000000" stop-opacity="0"/>
        </linearGradient>
        <linearGradient id="linear-gradient-13" x1="171.77" y1="88.49" x2="165.01" y2="385.82" gradientUnits="userSpaceOnUse">
            <stop offset="0.01" stop-color="#000000"/>
            <stop offset="0.08" stop-color="#000000" stop-opacity="0.69"/>
            <stop offset="0.21" stop-color="#000000" stop-opacity="0.32"/>
            <stop offset="1" stop-color="#000000" stop-opacity="0"/>
        </linearGradient>
        <linearGradient id="linear-gradient-14" x1="144.76" y1="213.89" x2="232.33" y2="309.06" gradientUnits="userSpaceOnUse">
            <stop offset="0.01" stop-color="#000000"/>
            <stop offset="0.08" stop-color="#000000" stop-opacity="0.69"/>
            <stop offset="0.21" stop-color="#000000" stop-opacity="0.32"/>
            <stop offset="1" stop-color="#000000" stop-opacity="0"/>
        </linearGradient>
        <linearGradient id="linear-gradient-15" x1="163.53" y1="235.49" x2="213.67" y2="305.68" gradientUnits="userSpaceOnUse">
            <stop offset="0.01" stop-color="#000000"/>
            <stop offset="0.08" stop-color="#000000" stop-opacity="0.69"/>
            <stop offset="0.21" stop-color="#000000" stop-opacity="0.32"/>
            <stop offset="1" stop-color="#000000" stop-opacity="0"/>
        </linearGradient>
    </defs>
    <g opacity="0.18" transform="matrix(1 0 0 1 -34.98 -23.65)">
        <path fill="#439fff" stroke="none" d="M 380.31 226.05 C 377.75 236.14 373.31 246.21 369.42 255.19 C 354.64 289.1 329.7 312.29 290.65 307.55 C 271.83 305.26 253.41 298.94 234.46 299.55 C 216.33 300.11 199.07 306.94 181.85 312.63 C 149.85 323.22 114.42 330 82.77 318.34 C 51.12 306.68 26.51 270.81 37.77 239.01 C 46.53 214.19 73.92 197.54 76.77 171.38 C 80.52 137.38 40.28 108.05 48.77 74.87 C 52.38 60.9 64 50.5 76.31 43 C 104.59 25.71 139.36 20 171.85 25.88 C 202.75 31.43 228.46 57.45 259.6 58.65 C 279.68 59.41 299 48 319 49.88 C 343.74 52.27 361.88 74.18 373.45 96.19 C 377.17438351359 103.06104622405 380.28962705232 110.24517928277 382.76 117.66 C 387.56712213374 132.77045958293 388.54304532779 148.83882879195 385.6 164.42 C 382.6 180.42 382.96 195.42 382.5 211.83 C 382.29796896451 216.63638862014 381.56347890927 221.4055432254 380.31 226.05 Z"/>
    </g>
    <path fill="url(#linear-gradient)" stroke="none" transform="matrix(1 0 0 1 -34.98 -23.65)" d="M 166 290.84 C 164.78 291.22 163.41 291.84 163.1 293.05 C 166.94 295.49 171.69 296.05 176.23 295.93 C 180.77 295.81 185.3 295.01 189.85 294.98 C 195.85 294.98 202.61 296.05 207.43 292.41 C 205.2892985307 291.05442423198 202.83132310279 290.28221315785 200.3 290.17 C 201.19 284.57 169.56 289.73 166 290.84 Z"/>
    <path fill="url(#linear-gradient-2)" stroke="none" transform="matrix(1 0 0 1 -34.98 -23.65)" d="M 88.91 224.13 C 87.29 224.13 85.05 224.95 85.45 226.52 L 159.38 232.52 C 168.08 233.23 176.79 233.93 185.53 233.93 C 198.73 233.93 211.87 232.31 225.04 231.55 C 237.44 230.84 249.86 230.89 262.27 230.95 C 273.76 231.01 287.89 233.08 299.05 230.07 C 300.73 229.62 302.42 228.27 302.31 226.54 C 302.26 225.74 301.84 224.91 302.15 224.17 C 302.3298947756 223.8068793896 302.61585242211 223.50697258961 302.97 223.31 C 305.26 221.9 308.18 223 310.82 223.58 C 315.02196274159 224.4934815186 319.41019997585 223.93568466984 323.25 222 C 323.96969156878 221.70065559088 324.58285763734 221.19200646582 325.01 220.54 C 325.43174825573 219.85775113381 325.26741095597 218.96686998248 324.63 218.48 C 324.31920168484 218.32629305432 323.97672075154 218.24752243966 323.63 218.25 L 301 216.49 C 300.16443180237 216.36058715494 299.30993281081 216.43608505781 298.51 216.71 C 297.62 217.1 297.67 218.14 296.95 218.57 C 295.78 219.26 293.12 218.89 291.78 218.97 C 288.35 219.16 284.92 219.35 281.48 219.52 C 274.63333333333 219.84666666667 267.77333333333 220.12333333333 260.9 220.35 C 246.9 220.82 232.83 221.1 218.8 221.35 C 191.05 221.8 163.29 222.04 135.55 223.11 C 120 223.69 104.46 223.79 88.91 224.13 Z"/>
    <path fill="#ff681c" stroke="none" transform="matrix(1 0 0 1 -34.98 -23.65)" d="M 145.76 70.06 C 144.45853120287 69.60796873142 143.037255531 69.64350062322 141.76 70.16 C 140.09392510071 70.75433200541 138.75706873572 72.02579865689 138.08 73.66 C 138.06666123108 73.87252064069 137.96241973636 74.06899541023 137.79392443368 74.19919632593 C 137.625429131 74.32939724164 137.40901228872 74.38070391433 137.2 74.34 C 135.74473066103 74.33664214162 134.3402757295 74.87489771183 133.26 75.85 C 132 77 132 78.41 131.83 80.06 C 131.41163444241 79.84958092058 130.91836555759 79.84958092058 130.5 80.06 C 130.08809367362 80.26309604432 129.71294658969 80.53347232103 129.39 80.86 C 128.83832721543 81.30297853251 128.39678318919 81.86774414747 128.1 82.51 C 127.7 83.6 128.15 84.8 128.17 85.96 C 128.18422905267 86.06520847342 128.15129382121 86.17133310813 128.08 86.25 C 127.99698506809 86.28557997632 127.90301493191 86.28557997632 127.82 86.25 C 127.51 86.19 127.23 86.03 126.92 86 C 126.17197061455 86.00703882983 125.53423451217 86.54407975815 125.4 87.28 C 125.2820218327 87.9962602951 125.31953746556 88.72952039197 125.51 89.43 C 125.69581098407 90.13093144473 125.67497412429 90.87063996678 125.45 91.56 C 125.21033386088 92.01281584101 124.89591214307 92.42190216203 124.52 92.77 C 123.43545365785 93.78076180073 122.72965104089 95.13237381219 122.52 96.6 C 122.46114674162 97.30925067353 122.65217241164 98.01675315508 123.06 98.6 C 123.4860921715 99.18578510246 124.18853736121 99.5047331886 124.91 99.44 C 126.57 99.22 127.15 96.89 128.73 96.34 C 130.31 95.79 132.08 93.93 133.1 92.46 C 133.92 91.28 134.72 89.91 136.1 89.46 C 136.55419183047 89.36345368892 136.99204947304 89.20178317474 137.4 88.98 C 137.67135222706 88.7682096014 137.89604432034 88.50266440025 138.06 88.2 C 138.63147941693 87.35745851194 139.07307861364 86.4338082837 139.37 85.46 C 139.87 83.54 139.37 81.38 140.3 79.61 C 140.83704368818 78.58306596148 141.78639644563 77.83376838281 142.91 77.55 C 143.38 77.43 143.91 77.4 144.34 77.27 C 144.88379571341 77.11304208885 145.39753811522 76.86631054062 145.86 76.54 C 147.09150196802 75.83181208776 147.94232676904 74.61058511044 148.18 73.21 C 148.27 71.8 147 70.54 145.76 70.06 Z"/>
    <path fill="#ff681c" stroke="none" transform="matrix(1 0 0 1 -34.98 -23.65)" d="M 149.85 72.43 C 150.88219522326 72.82838914137 151.47156972939 73.91809596206 151.24 75 C 151.06891367083 75.42347018012 150.81377834171 75.807874076 150.49 76.13 L 148.68 78.13 L 147.93 75.35 C 147.85240274037 74.8283529706 147.59402940856 74.3505392748 147.2 74 C 146.67656538571 73.70015818573 146.03343461429 73.70015818573 145.51 74 C 144.98 74.27 144.51 74.69 144.04 75 C 143.91 75.08 143.73 75.17 143.59 75.09 C 143.45 75.01 143.43 74.72 143.5 74.52 C 144.36 72.14 147.65 71.48 149.85 72.43 Z"/>
    <path fill="#fcbdba" stroke="none" transform="matrix(1 0 0 1 -34.98 -23.65)" d="M 151.08 147.66 C 151.13484551953 148.59609758984 151.44621033779 149.4990555628 151.98 150.27 C 152.79 151.27 154.14 151.77 155.26 152.5 C 155.49345977604 152.61845356805 155.6620594295 152.83470094966 155.72 153.09 C 155.70644622091 153.33912849395 155.54488168904 153.55586140255 155.31 153.64 C 155.07275492363 153.70704040732 154.82417022458 153.72406675657 154.58 153.69 C 153.43768252787 153.5107220854 152.28558978561 153.40052191005 151.13 153.36 C 150.55 153.36 149.88 153.42 149.51 152.97 C 149.27175660807 152.58871891048 149.18939715462 152.13037064778 149.28 151.69 C 149.3823837239 150.03600075975 149.24768667678 148.37585965399 148.88 146.76 C 148.75737812767 146.36573188934 148.71321248891 145.95125435643 148.75 145.54 C 148.82607072991 145.1529980873 149.10178691267 144.8354270551 149.47427571374 144.70577625694 C 149.84676451481 144.57612545877 150.26007639323 144.65386904426 150.56 144.91 C 151.22 145.48 151 146.89 151.08 147.66 Z"/>
    <path fill="#fcbdba" stroke="none" transform="matrix(1 0 0 1 -34.98 -23.65)" d="M 132.58 153.85 C 132.44435907782 154.77728449437 132.56183359132 155.72399086785 132.92 156.59 C 133.51 157.78 134.74 158.49 135.69 159.43 C 135.8986957339 159.58946108586 136.02079393574 159.83735743506 136.02 160.1 C 135.9596464438 160.34117338866 135.75681139263 160.52014549263 135.51 160.55 C 135.2662783099 160.57517762787 135.02002499124 160.54439596304 134.79 160.46 C 133.70336997728 160.06344332374 132.59488164344 159.72956129548 131.47 159.46 C 130.9 159.36 130.23 159.26 129.96 158.76 C 129.79610098341 158.34216448646 129.79610098341 157.87783551354 129.96 157.46 C 130.3941579826 155.85711304459 130.59621451786 154.20024945547 130.56 152.54 C 130.51945715737 152.12939892175 130.56023413245 151.7148330084 130.68 151.32 C 130.83296467824 150.9565131971 131.16730246186 150.70147821186 131.558293684 150.65003199842 C 131.94928490615 150.59858578498 132.33821520522 150.75845391724 132.58 151.07 C 133.15 151.74 132.65 153.08 132.58 153.85 Z"/>
    <path fill="#473f47" stroke="none" transform="matrix(1 0 0 1 -34.98 -23.65)" d="M 128.94 108.85 C 128.94 108.85 138.48 123.01 144.73 127.24 C 144.60991436744 128.65587249985 144.640082537 130.08048050688 144.82 131.49 C 145.14 133.78 146.25 135.79 146.61 138.04 L 147.81 145.61 C 147.86 145.95 147.96 146.36 148.29 146.48 C 148.48837093229 146.54353019899 148.70162906771 146.54353019899 148.9 146.48 L 151.54 145.76 C 151.38160288271 141.21148711773 151.47842156886 136.65767029363 151.83 132.12 C 152.04648039641 130.28488377048 152.09334531688 128.43371941214 151.97 126.59 C 151.53 122.59 148.25 119.02 145.97 115.81 C 144.6 113.87 143.13 110.97 141.21 109.5 C 139.61 108.28 137.35 108.86 135.34 109.06 C 133.83263618885 109.20385117977 132.31183976945 109.09570565662 130.84 108.74 C 130.22868758063 108.45366993875 129.51418486183 108.49503588563 128.94 108.85 Z"/>
    <path fill="#473f47" stroke="none" transform="matrix(1 0 0 1 -34.98 -23.65)" d="M 125.31 108.76 C 125.31 108.76 129.02 125.43 133.31 131.65 C 132.68657895116 132.93044129439 132.1940795547 134.27057570651 131.84 135.65 C 131.60321208535 136.77913056204 131.4660186483 137.9268707793 131.43 139.08 L 130.57 153 C 131.89935987112 153.06969506013 133.23044181745 152.900346212 134.5 152.5 L 139.38 140.23 C 140.31183302812 138.27545484672 140.8616887372 136.16088628647 141 134 C 141 129.82 137 114.56 136.53 113.79 C 135.48 112.06 133.17 111.79 131.23 111.23 C 129.77336130439 110.81821548481 128.39715991264 110.16223742584 127.16 109.29 C 126.55 108.91 126 108.54 125.31 108.76 Z"/>
    <path fill="#fcbdba" stroke="none" transform="matrix(1 0 0 1 -34.98 -23.65)" d="M 159.56 95.78 C 161.59301388264 96.71812932991 163.84914846576 97.064693782 166.07 96.78 C 166.72128646967 96.60052645738 167.40405924413 96.56638781865 168.07 96.68 C 167.78 97.09 167.5 97.68 167.91 98.03 C 168.03558538884 98.11210292666 168.18026993293 98.16033110803 168.33 98.17 C 168.86928638175 98.23947463633 169.41735232776 98.18124262957 169.93 98 C 170.17202862966 97.87995164259 170.43996639688 97.82155494973 170.71 97.83 C 171.20582590132 97.95317820397 171.50944843521 98.45326237743 171.39 98.95 C 171.24840330019 99.4260905452 170.93471624067 99.83245787231 170.51 100.09 C 169.11164883336 101.01614608476 167.32233441808 101.11555244116 165.83 100.35 C 165.41 100.12 165.02 99.83 164.59 99.6 C 163.76281400129 99.22303431724 162.88809052155 98.96061727332 161.99 98.82 C 159.3610829286 98.27580490248 156.77705659537 97.53369125956 154.26 96.6 C 153.48939551201 96.41661740384 152.82784024613 95.92496977455 152.43 95.24 C 151.92 93.98 152.86 91.87 154.36 92.69 C 156.1 93.7 157.67 95 159.56 95.78 Z"/>
    <path fill="#439fff" stroke="none" transform="matrix(1 0 0 1 -34.98 -23.65)" d="M 147.14 88.6 C 150.10963601461 90.54134139939 153.42206986439 91.89889625586 156.9 92.6 C 157.05 92.6 157.23 92.7 157.27 92.85 C 157.28602224315 92.95212354305 157.26084469107 93.05643054452 157.2 93.14 C 156.48980544905 94.56965306255 155.59186893466 95.89806101455 154.53 97.09 C 154.41603908746 97.24126272366 154.26894428524 97.3644118604 154.1 97.45 C 153.76427380548 97.548333266 153.40292956771 97.50497195746 153.1 97.33 C 150.85333333333 96.43 148.65333333333 95.43 146.5 94.33 C 144.58359585228 93.48947124735 142.87632355201 92.23633337895 141.5 90.66 C 140.81357918699 89.84200451236 140.40707147171 88.82573522416 140.34 87.76 C 140.34 86.58 141.42 84.46 142.91 85.04 C 143.58 85.3 144.17 86.13 144.68 86.6 C 145.45824083804 87.31644757244 146.27979038002 87.98437402934 147.14 88.6 Z"/>
    <path fill="url(#linear-gradient-3)" stroke="none" transform="matrix(1 0 0 1 -34.98 -23.65)" d="M 147.14 88.6 C 150.10963601461 90.54134139939 153.42206986439 91.89889625586 156.9 92.6 C 157.05 92.6 157.23 92.7 157.27 92.85 C 157.28602224315 92.95212354305 157.26084469107 93.05643054452 157.2 93.14 C 156.48980544905 94.56965306255 155.59186893466 95.89806101455 154.53 97.09 C 154.41603908746 97.24126272366 154.26894428524 97.3644118604 154.1 97.45 C 153.76427380548 97.548333266 153.40292956771 97.50497195746 153.1 97.33 C 150.85333333333 96.43 148.65333333333 95.43 146.5 94.33 C 144.58359585228 93.48947124735 142.87632355201 92.23633337895 141.5 90.66 C 140.81357918699 89.84200451236 140.40707147171 88.82573522416 140.34 87.76 C 140.34 86.58 141.42 84.46 142.91 85.04 C 143.58 85.3 144.17 86.13 144.68 86.6 C 145.45824083804 87.31644757244 146.27979038002 87.98437402934 147.14 88.6 Z"/>
    <path fill="#439fff" stroke="none" transform="matrix(1 0 0 1 -34.98 -23.65)" d="M 189 82.64 C 190.09320246859 84.01880885386 190.23113273933 85.92620127577 189.34767974709 87.44794905491 C 188.46422675484 88.96969683405 186.73943073313 89.79568066819 185 89.53 C 185 89.53 180.27 89.64 181.34 94.1 L 190.34 105.56 L 178.88 114.56 C 174.42 115.63 174.31 110.9 174.31 110.9 C 174.56033563812 109.16280160042 173.72722166818 107.44832753966 172.20671759124 106.57163285892 C 170.6862135143 105.69493817818 168.78503626211 105.83287021817 167.40699892759 106.91985656394 C 166.02896159306 108.0068429097 165.45204263709 109.8236160684 165.95050733681 111.50648836134 C 166.44897203653 113.18936065428 167.92226981427 114.3988621425 169.67 114.56 C 173.74 115.9 172.16 119.86 172.16 119.86 L 160.7 128.86 L 137.41 99.29 L 148.76 90.29 C 153.22 89.22 153.33 93.95 153.33 93.95 C 153.03763810005 95.88095346552 154.08946663336 97.76492777318 155.88663234315 98.52929167741 C 157.68379805294 99.29365558163 159.7704622143 98.74453343391 160.95859313836 97.19456515235 C 162.14672406242 95.6445968708 162.13496050992 93.48692125239 160.93 91.95 C 160.19285950246 91.02336877933 159.10912050695 90.43814972176 157.93 90.33 C 153.9 89 155.48 85 155.48 85 L 167.05 75.87 L 176.05 87.34 C 176.05 87.34 180.05 88.92 181.35 84.85 C 181.52560545774 83.10633747713 182.74412786521 81.64479398156 184.42776303028 81.15841048943 C 186.11139819534 80.6720269973 187.92160032756 81.25860562585 189 82.64 Z"/>
    <path fill="url(#linear-gradient-4)" stroke="none" transform="matrix(1 0 0 1 -34.98 -23.65)" d="M 189 82.64 C 190.09320246859 84.01880885386 190.23113273933 85.92620127577 189.34767974709 87.44794905491 C 188.46422675484 88.96969683405 186.73943073313 89.79568066819 185 89.53 C 185 89.53 180.27 89.64 181.34 94.1 L 190.34 105.56 L 178.88 114.56 C 174.42 115.63 174.31 110.9 174.31 110.9 C 174.56033563812 109.16280160042 173.72722166818 107.44832753966 172.20671759124 106.57163285892 C 170.6862135143 105.69493817818 168.78503626211 105.83287021817 167.40699892759 106.91985656394 C 166.02896159306 108.0068429097 165.45204263709 109.8236160684 165.95050733681 111.50648836134 C 166.44897203653 113.18936065428 167.92226981427 114.3988621425 169.67 114.56 C 173.74 115.9 172.16 119.86 172.16 119.86 L 160.7 128.86 L 137.41 99.29 L 148.76 90.29 C 153.22 89.22 153.33 93.95 153.33 93.95 C 153.03763810005 95.88095346552 154.08946663336 97.76492777318 155.88663234315 98.52929167741 C 157.68379805294 99.29365558163 159.7704622143 98.74453343391 160.95859313836 97.19456515235 C 162.14672406242 95.6445968708 162.13496050992 93.48692125239 160.93 91.95 C 160.19285950246 91.02336877933 159.10912050695 90.43814972176 157.93 90.33 C 153.9 89 155.48 85 155.48 85 L 167.05 75.87 L 176.05 87.34 C 176.05 87.34 180.05 88.92 181.35 84.85 C 181.52560545774 83.10633747713 182.74412786521 81.64479398156 184.42776303028 81.15841048943 C 186.11139819534 80.6720269973 187.92160032756 81.25860562585 189 82.64 Z"/>
    <path fill="url(#linear-gradient-5)" stroke="none" transform="matrix(1 0 0 1 -34.98 -23.65)" d="M 151.13 108.72 C 153.58 110.72 156.13 112.87 159.13 113.39 C 160.2960458192 113.65112175704 161.51812190061 113.43122016127 162.52 112.78 C 162.86907801429 112.57237508294 163.07050803328 112.18500966179 163.04 111.78 C 162.93 111.29 162.33 111.12 161.84 111.03 C 159.54819923729 110.71660867367 157.34754343201 109.92628027301 155.38 108.71 C 154.65025007767 108.1935434418 153.95847585656 107.62541968533 153.31 107.01 L 148.44 102.67 C 148.3196047137 102.5234966845 148.13962404406 102.43901596202 147.95 102.44 C 147.75 102.44 147.63 102.67 147.54 102.85 C 147.23802878715 103.46427149614 147.00977640512 104.11210546279 146.86 104.78 C 146.71 105.51 146.86 105.61 147.49 106.03 C 148.75 106.88333333333 149.96333333333 107.78 151.13 108.72 Z"/>
    <path fill="#fcbdba" stroke="none" transform="matrix(1 0 0 1 -34.98 -23.65)" d="M 153.39 105.06 C 155.08454310125 106.54260906536 157.16522814035 107.51359541694 159.39 107.86 C 160.05185843489 107.86897014459 160.70375029819 108.0225572328 161.3 108.31 C 160.89 108.62 160.45 109.15 160.76 109.56 C 160.85948252211 109.67410461378 160.98701678438 109.76027641262 161.13 109.81 C 161.6283940376 110.0226981198 162.16886590053 110.11847794361 162.71 110.09 C 162.9777716307 110.04921506576 163.25130747034 110.06973025373 163.51 110.15 C 163.72105251251 110.27313644561 163.8744501943 110.47517403126 163.93635795242 110.7115491077 C 163.99826571053 110.94792418414 163.96359745481 111.19921713438 163.84 111.41 C 163.57883767233 111.83363786316 163.16263822471 112.13861159633 162.68 112.26 C 161.08042115554 112.76440895294 159.33308806055 112.35823064577 158.12 111.2 C 157.77 110.86 157.48 110.47 157.12 110.14 C 156.43205724418 109.5463574691 155.66466141262 109.05158910402 154.84 108.67 C 152.46835186209 107.40983388732 150.19522555378 105.9724157806 148.04 104.37 C 147.35256400325 103.97993510298 146.85412262191 103.32618227673 146.66 102.56 C 146.52 101.2 148.01 99.43 149.23 100.65 C 150.65 102.09 151.8 103.74 153.39 105.06 Z"/>
    <path fill="#439fff" stroke="none" transform="matrix(1 0 0 1 -34.98 -23.65)" d="M 125.31 110.9 C 125.48915529293 111.11464555763 125.71486976312 111.28564136838 125.97 111.4 C 126.97622959121 111.97399803873 128.02223263366 112.47527745204 129.1 112.9 C 131.90051803609 113.90249499507 134.96607303237 113.87768703556 137.75 112.83 C 138.8639038272 112.42901491611 139.90947194651 111.85901165106 140.85 111.14 C 141.20683796898 110.89693600723 141.5070064618 110.57971248641 141.73 110.21 C 141.99539463101 109.607062964 142.07881337197 108.93971303637 141.97 108.29 C 141.72 104.92 141.35 101.44 141.97 98.17 C 142.16925617299 97.04664660608 142.50507986195 95.9518613801 142.97 94.91 C 143.77975099118 93.48823361657 144.44955942767 91.99121176099 144.97 90.44 C 145.33103809491 88.51043023812 144.82241887366 86.51986292616 143.58 85 C 142.28 83.34 139.9 81.87 137.8 82.62 C 135.37427220533 83.53403987946 133.27050678475 85.14055165518 131.75 87.24 C 130.09202961669 89.59108408836 128.77874031567 92.16715156343 127.85 94.89 C 127.45 95.96 127.06 97.03 126.75 98.13 C 126.08792738357 100.79089040247 125.65963181729 103.50454434194 125.47 106.24 C 125.36 107.38 125.26 108.52 125.14 109.66 C 125.04560757569 110.080323516 125.10596664864 110.52058969518 125.31 110.9 Z"/>
    <path fill="url(#linear-gradient-6)" stroke="none" transform="matrix(1 0 0 1 -34.98 -23.65)" d="M 137.75 112.83 C 138.8639038272 112.42901491611 139.90947194651 111.85901165106 140.85 111.14 C 141.20683796898 110.89693600723 141.5070064618 110.57971248641 141.73 110.21 C 141.99539463101 109.607062964 142.07881337197 108.93971303637 141.97 108.29 C 141.72 104.92 141.35 101.44 141.97 98.17 C 141.57 97.77 141.12 97.41 140.68 97.05 C 139.68 96.23 138.24 94.61 136.79 94.72 C 137.14 96.25 137.42 97.81 137.63 99.37 C 137.84 100.93 137.76 102.55 138.01 104.09 C 138.34168832585 106.81489080187 138.27769309483 109.57342207602 137.82 112.28 C 137.7774267092 112.46036819478 137.7539640197 112.64471789799 137.75 112.83 Z"/>
    <path fill="#439fff" stroke="none" transform="matrix(1 0 0 1 -34.98 -23.65)" d="M 149.92 99.81 C 150.07789402787 99.89042924443 150.19681430839 100.03097139412 150.25 100.2 C 150.25296549503 100.36622055676 150.19212858739 100.52725942993 150.08 100.65 C 149.17127336423 101.93235781182 148.03188442973 103.03444532286 146.72 103.9 C 146.59343875149 104.00062799914 146.44080154125 104.06307049424 146.28 104.08 C 146.09555387136 104.06024380259 145.92304219173 103.97926893256 145.79 103.85 C 143.79 102.32 141.79 100.85 139.84 99.25 C 138.57896092529 98.35514625882 137.46552542472 97.26870313403 136.54 96.03 C 135.85999735477 94.91191386755 135.34153057826 93.70328027817 135 92.44 C 133.81 88.69 137.41 87.06 139.82 89.81 C 143 93.45 145.9 97 149.92 99.81 Z"/>
    <path fill="#473f47" stroke="none" transform="matrix(1 0 0 1 -34.98 -23.65)" d="M 149.43 153.11 C 149.32377714793 152.85717836476 149.36199288736 152.56673874514 149.53 152.35 C 149.75 152.14 150.11 152.24 150.39 152.35 C 151.00829726928 152.64984671791 151.65479031449 152.88767576563 152.32 153.06 C 152.98996594144 153.2362752831 153.70125985264 153.16158942242 154.32 152.85 C 154.66 152.65 154.99 152.35 155.38 152.38 C 155.57638526687 152.40931568831 155.76405113399 152.48096992849 155.93 152.59 C 156.53044805825 152.90127009363 157.17432690533 153.12039116725 157.84 153.24 C 158.12001924496 153.26380797703 158.39057390953 153.35285128435 158.63 153.5 C 158.70238239926 153.55094941657 158.75527997868 153.62500602776 158.78 153.71 C 158.78 153.91 158.59 154.06 158.4 154.13 C 156.32 154.94 153.99 154.64 151.77 154.4 C 151.5212265608 154.36497770993 151.2687734392 154.36497770993 151.02 154.4 C 150.65 154.47 150.2 154.66 149.89 154.4 C 149.62457065948 154.01861321738 149.46576996135 153.57328082481 149.43 153.11 Z"/>
    <path fill="#473f47" stroke="none" transform="matrix(1 0 0 1 -34.98 -23.65)" d="M 129.68 158.81 C 129.61384850943 158.54707371579 129.68536515582 158.26853519826 129.87 158.07 C 130.12 157.89 130.46 158.07 130.73 158.18 C 131.3110349231 158.54959033644 131.92338395924 158.8674764481 132.56 159.13 C 133.20510233867 159.3698017403 133.91489766133 159.3698017403 134.56 159.13 C 134.92 158.98 135.28 158.72 135.67 158.8 C 135.8592034222 158.85542453278 136.03581740551 158.94712794718 136.19 159.07 C 136.74067706728 159.47324767667 137.3515174661 159.78710489817 138 160 C 138.27845065502 160.05757558928 138.53905648204 160.18102045471 138.76 160.36 C 138.82543554354 160.415026838 138.86523985573 160.49463546237 138.87 160.58 C 138.87 160.78 138.65 160.9 138.45 160.95 C 136.28 161.5 134.01 160.95 131.84 160.4 C 131.59619503434 160.32926164676 131.34384977617 160.2922510089 131.09 160.29 C 130.72 160.29 130.25 160.45 129.97 160.11 C 129.76748403095 159.70725617781 129.66785212065 159.26063037299 129.68 158.81 Z"/>
    <path fill="#fcbdba" stroke="none" transform="matrix(1 0 0 1 -34.98 -23.65)" d="M 148.2 79.29 C 148.03 79.84 147.86 80.39 147.72 80.95 C 147.56127861737 81.78522551082 147.34067039615 82.6074925172 147.06 83.41 C 146.77158860308 84.21993944362 146.14309618576 84.86304796367 145.34 85.17 C 144.49918744607 85.43866679443 143.59584687108 84.99801285541 143.29 84.17 C 142.81 84.28 142.64 84.87 142.65 85.37 C 142.73041944277 85.85916038702 142.63852084445 86.36106811627 142.39 86.79 C 141.94 87.32 141.06 87.1 140.47 86.72 C 138.64332233899 85.48909951615 137.73919704302 83.27813809371 138.18 81.12 C 138.67 78.89 138.65 76.22 139.92 74.29 C 140.37634559699 73.63871217486 140.95761070533 73.08464075579 141.63 72.66 C 142.21930676938 72.22855031987 142.90654477573 71.9502189273 143.63 71.85 C 144.13645754717 71.82029334322 144.6445913392 71.86067483663 145.14 71.97 C 147.26 72.33 149.06 72.64 149.07 75.07 C 149.00490608522 76.51381299626 148.71125924068 77.93816895481 148.2 79.29 Z"/>
    <path fill="#ff681c" stroke="none" transform="matrix(1 0 0 1 -34.98 -23.65)" d="M 145.59 75.36 C 145.26 75.36 144.88 75.28 144.59 75.48 C 144.3 75.68 144.28 76.13 144.1 76.48 C 143.75 77.13 142.86 77.22 142.19 77.56 C 141.36256767096 78.00279743959 140.85281513549 78.87169380686 140.87 79.81 C 140.88291635836 79.5155622656 140.80995572063 79.22371971465 140.66 78.97 C 140.57919591947 78.8484948236 140.45187097778 78.7656798854 140.30803943961 78.74107712229 C 140.16420790144 78.71647435919 140.0165959139 78.75226061212 139.9 78.84 C 139.80982920108 78.94687839753 139.75714390012 79.08034782663 139.75 79.22 C 139.69467941332 79.80067236981 139.94451557764 80.36848183417 140.41 80.72 C 139.98599701426 81.59550065578 139.09264481852 82.14555593788 138.12 82.13 C 137.81901351248 82.13718448856 137.52512693908 82.03804203006 137.29 81.85 C 137.14208456741 81.69787385859 137.03240912341 81.51279654685 136.97 81.31 C 136.4 79.71 137.27 78 137.48 76.31 C 137.49999729798 75.71324589747 137.59748067687 75.12162263248 137.77 74.55 C 137.95540222615 74.14620873393 138.20912882021 73.77745941723 138.52 73.46 C 139.4534369996 72.33899860433 140.68902885272 71.5094860962 142.08 71.07 C 143.42 70.7 146.08 70.89 147.13 71.95 C 147.61565287415 72.56827818259 147.71727522063 73.40529495809 147.39368150288 74.12182390453 C 147.07008778514 74.83835285096 146.37495238653 75.31554354804 145.59 75.36 Z"/>
    <path fill="url(#linear-gradient-7)" stroke="none" transform="matrix(1 0 0 1 -34.98 -23.65)" d="M 145 227.17 L 145 208.46 C 147.46 203.12 152.31 206.76 152.31 206.76 C 153.85908874909 208.38343736903 156.24022938447 208.90073252596 158.32326871968 208.06636332008 C 160.40630805488 207.2319941142 161.77190130794 205.21393066821 161.77190130794 202.97 C 161.77190130794 200.72606933179 160.40630805488 198.7080058858 158.32326871968 197.87363667992 C 156.24022938447 197.03926747404 153.85908874909 197.55656263097 152.31 199.18 C 147.73 202.18 145 197.48 145 197.48 L 145 178.76 L 163.71 178.76 C 163.71 178.76 168.45 176.03 165.41 171.45 C 163.78656263097 169.90091125091 163.26926747404 167.51977061553 164.10363667992 165.43673128032 C 164.9380058858 163.35369194512 166.95606933179 161.98809869206 169.2 161.98809869206 C 171.44393066821 161.98809869206 173.4619941142 163.35369194512 174.29636332008 165.43673128032 C 175.13073252596 167.51977061553 174.61343736903 169.90091125091 172.99 171.45 C 172.99 171.45 169.35 176.3 174.69 178.76 L 193.4 178.76 L 193.4 227.17 Z"/>
    <path fill="#439fff" stroke="none" transform="matrix(1 0 0 1 -34.98 -23.65)" d="M 109.15 226.17 L 105.77 226.17 L 140.37 134.81 C 140.60818516814 134.20644948891 141.19115072787 133.80987427821 141.84 133.81 L 141.84 133.81 C 142.35964875221 133.80915455298 142.84648941014 134.06388232362 143.1420713157 134.49127778166 C 143.43765322126 134.91867323971 143.50418023609 135.46408521212 143.32 135.95 Z"/>
    <path fill="#439fff" stroke="none" d="M 94.44 202.52 L 91.06 202.52 L 126.04 110.14 L 129.42 110.14 L 94.44 202.52 Z"/>
    <path fill="#439fff" stroke="none" d="M 120.58 124.57 L 102.7 124.57 L 103.6 122.19 L 121.48 122.19 L 120.58 124.57 Z"/>
    <path fill="#439fff" stroke="none" d="M 115.08 139.08 L 97.2 139.08 L 98.11 136.7 L 115.99 136.7 L 115.08 139.08 Z"/>
    <path fill="#439fff" stroke="none" d="M 109.59 153.59 L 91.71 153.59 L 92.61 151.2 L 110.49 151.2 L 109.59 153.59 Z"/>
    <path fill="#439fff" stroke="none" d="M 104.1 168.09 L 86.22 168.09 L 87.12 165.71 L 105 165.71 L 104.1 168.09 Z"/>
    <path fill="#439fff" stroke="none" d="M 98.6 182.6 L 80.72 182.6 L 81.63 180.22 L 99.5 180.22 L 98.6 182.6 Z"/>
    <path fill="url(#linear-gradient-8)" stroke="none" transform="matrix(1 0 0 1 -34.98 -23.65)" d="M 138.67 148.22 L 134.07 160.35 L 151 160.35 L 150.1 162.73 L 133.2 162.73 L 128.61 174.85 L 145.5 174.85 L 144.6 177.23 L 127.68 177.23 L 123.09 189.36 L 140 189.36 L 139.1 191.74 L 122.19 191.74 L 117.59 203.87 L 134.49 203.87 L 133.58 206.25 L 116.69 206.25 L 109.15 226.17 L 105.77 226.17 L 140.37 134.81 C 140.67893572266 134.16546020942 141.38209666352 133.80859117382 142.08471400336 133.93974641059 C 142.78733134319 134.07090164736 143.31439469539 134.657412551 143.37 135.37 C 143.36995787037 135.56110377125 143.33610269414 135.75069275813 143.27 135.93 L 139.52 145.84 L 156.41 145.84 L 155.51 148.22 Z"/>
    <path fill="url(#linear-gradient-9)" stroke="none" d="M 94.44 202.52 L 91.06 202.52 L 126.04 110.14 L 129.42 110.14 L 94.44 202.52 Z"/>
    <path fill="#ffffff" stroke="none" transform="matrix(1 0 0 1 -34.98 -23.65)" d="M 297.11 147.18 C 296.61034991848 147.60261156444 296.0116922786 147.89161870093 295.37 148.02 C 294.78082515437 148.04471391727 294.19347364193 147.93885405165 293.65 147.71 L 285.33 144.94 C 284.02584950583 145.95593263151 283.72894887152 147.80719541014 284.65 149.18 C 285.46554781677 150.07342538287 286.52646540378 150.70649751676 287.7 151 L 293.41 153.05 C 296.07867502182 154.29677167482 299.16633797614 154.27841458234 301.82 153 C 303.52 152.43 305.39 151.72 306.21 150.12 C 307.03 148.52 306.43 146.4 306.67 144.53 C 306.98568876333 143.34226750521 307.20968091599 142.13204124759 307.34 140.91 C 307.34 139.86 306.48 138.28 305.23 138.5 C 304.15 138.69 303.43 140.57 302.86 141.36 C 301.2529758438 143.58325681497 299.31364936321 145.5461924875 297.11 147.18 Z"/>
    <path fill="#fdb9a9" stroke="none" transform="matrix(1 0 0 1 -34.98 -23.65)" d="M 284.29 144.47 C 284.20323769547 144.24500482384 284.07039613226 144.04063318813 283.9 143.87 C 283.72817801979 143.69484342033 283.46813462146 143.63968269947 283.24 143.73 C 283.01718159774 143.8670743548 282.89275435518 144.11981719126 282.92 144.38 C 282.936264544 144.47122177932 282.91459340352 144.56513005472 282.86 144.64 C 282.8 144.7 282.69 144.64 282.6 144.64 C 281.66 144.46 280.7 144.32 279.74 144.22 C 279.53015285413 144.17798208433 279.31421907783 144.25493700643 279.17824314856 144.42020005894 C 279.04226721928 144.58546311144 279.00834742595 144.81217637396 279.09 145.01 C 279.1942807692 145.32844146443 279.35333329285 145.62624193425 279.56 145.89 C 280.05 146.69 280.23 147.74 281.01 148.26 C 281.48677710143 148.53886569601 282.04146183647 148.65471757105 282.59 148.59 C 283.14 148.59 283.68 148.46 284.23 148.49 C 284.59350876583 148.56775759687 284.9724260424 148.52565567725 285.31 148.37 C 285.56612412236 148.17846900288 285.70586612934 147.86877050093 285.68 147.55 C 285.62205926836 147.05601281871 285.44723003527 146.58294548211 285.17 146.17 C 284.86 145.63 284.57 145.05 284.29 144.47 Z"/>
    <path fill="#fdb9a9" stroke="none" transform="matrix(1 0 0 1 -34.98 -23.65)" d="M 307.49 207.1 C 304.31 206.38 304.93 210.89 304.09 212.57 C 303.55828382332 213.43275974881 302.88169257455 214.19730785993 302.09 214.83 C 301.31040942063 215.47910073837 300.80059136688 216.39534717063 300.66 217.4 C 300.64126852034 217.58697943344 300.6796193439 217.77524711273 300.77 217.94 C 300.93213784715 218.13783707855 301.15868788435 218.27235116314 301.41 218.32 C 303.22820139033 218.85092322661 305.1813390247 218.65740133256 306.86 217.78 C 307.64629745941 217.40919443641 308.29925019614 216.80512586179 308.73 216.05 C 309.07841669797 215.23595480714 309.24233701683 214.35488309329 309.21 213.47 C 309.31 211.59 310.15 207.69 307.49 207.1 Z"/>
    <path fill="#439fff" stroke="none" transform="matrix(1 0 0 1 -34.98 -23.65)" d="M 304.67 216.4 C 304.67 216.4 295.61 216.79 299.45 219.63 C 303.29 222.47 309.02 218.94 309.58 218.29 C 310.14 217.64 309.68 216.53 309.68 216.53 Z"/>
    <path fill="#ffffff" stroke="none" transform="matrix(1 0 0 1 -34.98 -23.65)" d="M 309.18 217.65 C 308.38 218.65 304.12 219.96 302.23 219.82 C 300.34 219.68 298.65 218.82 298.84 217.59 C 299.03 216.36 302.35 213.53 302.98 213.54 C 303.61 213.55 304.1 215 305.36 215.3 C 306.50478087153 215.48978907941 307.66624811337 215.07362817843 308.43 214.2 C 308.66157444983 213.89073601552 309.07423970169 213.77931639752 309.43 213.93 C 309.9649975353 215.13539395095 309.8714735949 216.52703018414 309.18 217.65 Z"/>
    <path fill="#fdb9a9" stroke="none" transform="matrix(1 0 0 1 -34.98 -23.65)" d="M 318.42 208.88 C 315.24 208.14 315.86 212.66 315.02 214.33 C 314.48856711362 215.19585263852 313.81201706378 215.96373694509 313.02 216.6 C 312.24105908261 217.24538948962 311.73110284038 218.15831814705 311.59 219.16 C 311.57344799415 219.35007298461 311.61161623128 219.5409141703 311.7 219.71 C 311.86480957604 219.90470382258 312.09015985764 220.03850555228 312.34 220.09 C 314.15858907216 220.616726992 316.11013541771 220.42336276693 317.79 219.55 C 318.57482996237 219.17227536555 319.22680181892 218.56562775572 319.66 217.81 C 320.00696590463 216.99903093599 320.17085618544 216.12153505749 320.14 215.24 C 320.24 213.34 321.08 209.45 318.42 208.88 Z"/>
    <path fill="#439fff" stroke="none" transform="matrix(1 0 0 1 -34.98 -23.65)" d="M 315.6 218.14 C 315.6 218.14 306.54 218.52 310.38 221.38 C 314.22 224.24 319.95 220.68 320.51 220.03 C 321.07 219.38 320.61 218.27 320.61 218.27 Z"/>
    <path fill="#ffffff" stroke="none" transform="matrix(1 0 0 1 -34.98 -23.65)" d="M 320.11 219.37 C 319.31 220.37 315.05 221.69 313.16 221.55 C 311.27 221.41 309.58 220.55 309.77 219.32 C 309.96 218.09 313.28 215.26 313.91 215.32 C 314.54 215.38 315.03 216.78 316.29 217.07 C 317.4331623099 217.26420170157 318.59525063542 216.85160356645 319.36 215.98 C 319.5893891899 215.66752987174 320.00451431893 215.5554460869 320.36 215.71 C 320.87401041451 216.89854557729 320.78085180406 218.26238763436 320.11 219.37 Z"/>
    <path fill="#473f47" stroke="none" transform="matrix(1 0 0 1 -34.98 -23.65)" d="M 310.21 167.75 L 314.47 212.59 L 320.61 211.83 C 323.04 200.89 322.44 168.16 322.44 168.16 Z"/>
    <path fill="#473f47" stroke="none" transform="matrix(1 0 0 1 -34.98 -23.65)" d="M 314.47 166.54 L 310.21 211.37 L 304.05 210.61 C 300.54 182.25 303.44 164.61 303.44 164.61 Z"/>
    <path fill="#ffffff" stroke="none" transform="matrix(1 0 0 1 -34.98 -23.65)" d="M 304 150.33 C 303.92 149.51 303.7 148.69 303.62 147.85 C 303.41986796673 146.16040158535 303.45014468518 144.4514490325 303.71 142.77 C 303.99934815272 140.9759654018 304.54140075591 139.2319700698 305.32 137.59 C 306.02 136.17 307.32 135.59 308.74 134.85 C 309.94794794876 134.20063818818 311.25598961758 133.75786439331 312.61 133.54 C 313.56269984972 133.45293492906 314.5230316186 133.50684829153 315.46 133.7 C 318.36 134.25 322.17 135.7 324.15 138.03 C 325.64 139.74 325.81 142.2 325.86 144.47 C 325.92 147.6 325.86 150.73 325.66 153.86 C 325.66 154.31 325.61 154.76 325.57 155.22 C 325.40865154946 158.70211390308 324.88243821767 162.15769317106 324 165.53 C 323.83449800233 166.58365486257 323.2639505543 167.53097892722 322.41 168.17 C 320.14 169.49 316.68 168.76 314.23 168.42 C 310.98 167.96 307.65 167.48 304.77 165.9 C 304.17223349663 165.64356767622 303.68863294284 165.17774655456 303.41 164.59 C 303.26647857074 163.84980408396 303.36099484391 163.08317209044 303.68 162.4 C 304.68 159.2 303.9 155.83 303.9 152.56 C 303.9 151.97 303.97 151.37 303.97 150.77 C 304 150.63 304 150.48 304 150.33 Z"/>
    <path fill="url(#linear-gradient-10)" stroke="none" transform="matrix(1 0 0 1 -34.98 -23.65)" d="M 314.2 156.12 C 314.97070958353 156.59961276639 315.82062945016 156.93822625907 316.71 157.12 C 319.36 157.89 322.08 158.3 324.71 159.12 C 324.88887862037 159.15477127375 325.05485580878 159.23775986796 325.19 159.36 C 325.29758576699 159.5259288935 325.34684443276 159.72296355656 325.33 159.92 C 325.34234039376 160.69022008252 325.22746303214 161.45719540859 324.99 162.19 C 324.91280932712 162.55592992081 324.70257101342 162.88019579448 324.4 163.1 C 324.01566110378 163.23985729315 323.59433889622 163.23985729315 323.21 163.1 L 313.3 161 C 312.59113908888 160.8188638682 311.86158801589 160.7314522189 311.13 160.74 C 310.26318901981 160.84090782521 309.41291110216 161.05263710905 308.6 161.37 C 307.08018074621 161.85675113503 305.51587316668 162.19172063814 303.93 162.37 C 304.01437555446 160.47833983025 304.24506473714 158.59604983249 304.62 156.74 C 304.76546778728 156.1913246888 304.97349878403 155.66118118095 305.24 155.16 C 305.55971127586 154.66504615845 305.93553633006 154.20868716407 306.36 153.8 C 307.96 152.13 309.07 150.04 310.69 148.37 C 311.54 147.49 312.6 146.93 313.35 145.99 C 313.65 145.61 316.25 142.34 316 141.99 C 316.5 142.61 317.74 141.99 318.19 142.63 C 318.47 143.03 318.19 143.57 317.93 143.98 C 316.01415763901 147.18845590567 314.67715105854 150.70867576311 313.98 154.38 C 313.78 155.23 313.48 155.53 314.2 156.12 Z"/>
    <path fill="#439fff" stroke="none" transform="matrix(1 0 0 1 -34.98 -23.65)" d="M 306.12 115.07 C 308.00065293799 116.27832875699 308.96088667913 118.50626832898 308.5478710892 120.70315976477 C 308.13485549927 122.90005120055 306.43107345306 124.62715580453 304.24 125.07 C 304.24 125.07 298.56 127.21 301.75 132.15 L 317.53 142.2 L 307.53 157.98 C 302.59 161.17 300.45 155.49 300.45 155.49 C 300.01017602004 153.29612113524 298.2807349256 151.58998984213 296.08109004371 151.17997520806 C 293.88144516181 150.76996057399 291.65345826923 151.73842580051 290.45275488457 153.62650974691 C 289.25205149991 155.51459369331 289.31982734311 157.94302053461 290.62397005756 159.76119582509 C 291.92811277202 161.57937111558 294.20664788097 162.42206218931 296.38 161.89 C 301.88 161.78 301.64 167.25 301.64 167.25 L 291.64 183.03 L 250.8 157.03 L 260.75 141.39 C 265.69 138.21 267.83 143.88 267.83 143.88 C 268.26344076846 146.08217393837 269.99370073247 147.79874515005 272.1992478872 148.21468108602 C 274.40479504194 148.63061702199 276.64141725489 147.6621453681 277.84716038687 145.76909902575 C 279.05290351885 143.8760526834 278.98492273801 141.4397040053 277.67549549881 139.61683778426 C 276.36606825961 137.79397156321 274.07892207521 136.95172540025 271.9 137.49 C 266.4 137.6 266.65 132.13 266.65 132.13 L 276.79 116.19 L 292.58 126.25 C 292.58 126.25 298.05 126.49 297.94 120.99 C 297.58719597356 119.5305366821 297.83967321969 117.99042548072 298.64 116.72 C 300.27763401433 114.23882343811 303.59049861512 113.50804448206 306.12 115.07 Z"/>
    <path fill="#ffffff" stroke="none" transform="matrix(1 0 0 1 -34.98 -23.65)" d="M 330.47 147.4 C 330.87959932603 148.1137281925 331.21469614775 148.86769604138 331.47 149.65 C 331.7930673827 151.02129362423 331.8271231864 152.44482621861 331.57 153.83 C 331.44902222398 155.18786027544 330.9616919937 156.48740755619 330.16 157.59 C 328.47 159.59 325.45 159.78 322.83 159.53 C 319.85586830368 159.25550840226 316.91935794527 158.66552458596 314.07 157.77 C 313.80506716299 157.71042457824 313.55608282536 157.59445927031 313.34 157.43 C 313.10908163146 157.16868142717 312.95050383714 156.85152583854 312.88 156.51 C 312.66160352539 155.68115610506 312.51769808686 154.8344566644 312.45 153.98 C 315.45 153.12 318.77 153.82 321.9 153.36 C 322.33275658647 153.35816006505 322.73798414804 153.1474354884 322.98801709168 152.7942143458 C 323.23805003532 152.44099320319 323.30210437335 151.98876398516 323.16 151.58 C 323.01 149.82 321.92 148.28 321.41 146.58 C 320.9103293595 144.94392403409 320.95241821053 143.19022190759 321.53 141.58 C 321.87832860033 140.43153934168 322.7112296586 139.49269911372 323.81 139.01 C 325.06 138.6 325.54 139.58 326.23 140.5 C 327.81829355742 142.6877941628 329.23581454356 144.99460897515 330.47 147.4 Z"/>
    <path fill="#fdb9a9" stroke="none" transform="matrix(1 0 0 1 -34.98 -23.65)" d="M 311.2 152.86 C 311.08213717031 152.76400831636 310.94043570322 152.70179791617 310.79 152.68 C 310.55571960307 152.70436791784 310.35295383916 152.85357291392 310.26 153.07 C 310.17212280137 153.28556103532 310.07195842902 153.49590621725 309.96 153.7 C 309.65571847102 154.03787608259 309.21381208247 154.21832119125 308.76 154.19 C 308.31112730094 154.14495400471 307.85887269906 154.14495400471 307.41 154.19 C 307.24376526996 154.22397005316 307.0889073034 154.29967839236 306.96 154.41 C 306.83717365699 154.53041274242 306.75056333371 154.68284691139 306.71 154.85 C 306.55520263643 155.54009924945 306.75817096694 156.26176442461 307.25 156.77 C 307.73838842815 157.26499798786 308.33856896764 157.6353951208 309 157.85 C 309.67502100617 158.14797541588 310.42340788129 158.23847801474 311.15 158.11 C 311.54880231282 157.99405730756 311.92922723554 157.82236110351 312.28 157.6 L 313.74 156.79 C 313.86174140025 156.73236745463 313.97058516437 156.65073463153 314.06 156.55 C 314.38 156.15 313.94 154.95 313.65 154.55 C 312.92017728456 153.87013005094 312.09475958278 153.3007602893 311.2 152.86 Z"/>
    <path fill="#fdb9a9" stroke="none" transform="matrix(1 0 0 1 -34.98 -23.65)" d="M 310.22 129 C 310.22 128.14 310.29 127.27 310.38 126.43 C 310.47 125.59 310.58 124.93 310.72 124.19 C 310.73914830838 123.74673648526 310.95101293554 123.33396574613 311.3 123.06 C 312.45583784377 122.36981323945 313.78428571958 122.02296000817 315.13 122.06 C 316.15905459061 121.98754324002 317.17127212492 122.35034522364 317.92 123.06 C 318.37155290597 123.6342909966 318.63985077759 124.33116858523 318.69 125.06 C 318.73677128873 126.95259993836 318.54866936027 128.84369611198 318.13 130.69 C 317.91862358062 132.13980274603 317.841629782 133.6060324762 317.9 135.07 C 317.19135149128 135.54114384083 316.377179397 135.82971116538 315.53 135.91 C 315.13590100141 135.90625767434 314.74469946863 135.84218156121 314.37 135.72 C 314.16145220723 135.67281053132 313.97686371618 135.5521180564 313.85 135.38 C 313.80519850905 135.21973887114 313.80519850905 135.05026112886 313.85 134.89 C 313.85988889019 134.73682610713 313.85988889019 134.58317389287 313.85 134.43 L 313.85 134.43 C 313.90845997824 133.5735180302 313.89172927726 132.71355999985 313.8 131.86 C 313.80350245269 131.78490262233 313.77432755379 131.71196537507 313.72 131.66 C 313.66507310231 131.64014181188 313.60492689769 131.64014181188 313.55 131.66 L 313.31 131.66 C 312.88452182909 131.70503738552 312.45547817091 131.70503738552 312.03 131.66 C 311.51805437675 131.60985409849 311.04180356679 131.37528280403 310.69 131 C 310.28370275443 130.41780384348 310.11554143749 129.70222377141 310.22 129 Z"/>
    <path fill="#473f47" stroke="none" transform="matrix(1 0 0 1 -34.98 -23.65)" d="M 312 123.52 C 311.7 123.52 311.43 123.68 311.17 123.52 C 310.89795218232 123.29455480729 310.65894697354 123.03198570468 310.46 122.74 C 309.98215533696 122.10628636112 309.74792515438 121.32197014372 309.8 120.53 C 309.81866518153 120.17163648567 309.9363609688 119.82547240544 310.14 119.53 C 310.36202507747 119.26122116717 310.64718851021 119.05164322262 310.97 118.92 C 311.59017062834 118.61460002633 312.28052274278 118.47998136402 312.97 118.53 C 313.9691058674 118.65987639458 314.90083932852 119.1047265809 315.63 119.8 C 315.78358449471 119.96024799157 315.97168487897 120.08336824308 316.18 120.16 C 316.37124432847 120.20019324686 316.56875567153 120.20019324686 316.76 120.16 C 318.02553918912 120.05348366866 319.28324433796 120.44046986831 320.27 121.24 C 320.83 121.73 321.27 122.36 321.85 122.79 C 322.43 123.22 323 123.38 323.3 123.93 C 323.55586641453 124.45162474195 323.48976180673 125.07378575656 323.13 125.53 C 322.75769531787 125.96847387294 322.24557628466 126.26514972666 321.68 126.37 C 321.8055387448 126.69865327137 321.79360777988 127.06398892785 321.64689338045 127.38375108044 C 321.50017898103 127.70351323303 321.23101351355 127.95082364717 320.9 128.07 C 320.66907248122 128.10519478553 320.44585888634 128.17959931716 320.24 128.29 C 320.1 128.4 320.04 128.57 319.9 128.68 C 319.57 128.95 319.14 129.04 319 129.5 C 318.95820190857 129.69372384373 318.94139842094 129.89200499776 318.95 130.09 C 318.92582277814 130.38335794376 318.80642797089 130.66077529 318.61 130.88 C 318.48 131.02 318.25 131.37 318.06 131.41 C 317.87 131.45 317.7 131.22 317.64 131.02 C 317.40553189695 130.17199627477 317.46545970765 129.26955394897 317.81 128.46 C 318.05751708032 128.06907913815 318.20200828956 127.62184444289 318.23 127.16 C 318.23 126.7 317.57 126.34 317.23 126.61 C 316.89 126.88 316.87 127.53 316.51 127.4 C 316.97165611752 126.06403143001 316.38436364386 124.59154450331 315.13 123.94 C 314.45636693954 123.73393822642 313.75430709807 123.63605488314 313.05 123.65 C 312.72107574259 123.5806583569 312.38613223532 123.5438145711 312.05 123.54 Z"/>
    <path fill="#de9f93" stroke="none" transform="matrix(1 0 0 1 -34.98 -23.65)" d="M 313.31 131.68 C 314.30296725865 131.49092495558 315.27448780468 131.20281886262 316.21 130.82 C 316.3837832853 132.44432955541 315.39451757296 133.96788223474 313.84 134.47 L 313.84 134.47 C 313.91508036519 133.61497839011 313.91508036519 132.75502160989 313.84 131.9 C 313.83901225199 131.82572843254 313.81050650486 131.75446406472 313.76 131.7 C 313.70507310231 131.68014181188 313.64492689769 131.68014181188 313.59 131.7 L 313.36 131.7 Z"/>
    <path fill="#fdb9a9" stroke="none" transform="matrix(1 0 0 1 -34.98 -23.65)" d="M 282 138.87 C 282.30749419497 139.31077027382 282.38555309883 139.87205096346 282.21 140.38 C 282.03648680362 140.88069959436 281.78322415637 141.35007970059 281.46 141.77 L 279.89 144.09 C 279.48 144.69 278.89 145.37 278.2 145.31 C 276.48 145.19 275.72 140.73 276.36 139.41 C 277.1 137.76 280.87 137.46 282 138.87 Z"/>
    <path fill="#439fff" stroke="none" transform="matrix(1 0 0 1 -34.98 -23.65)" d="M 290.1 178.76 L 290.1 227.17 L 241.7 227.17 L 241.7 208.45 C 241.7 208.45 244.43 203.71 249.01 206.75 C 250.55908874909 208.37343736903 252.94022938447 208.89073252596 255.02326871968 208.05636332008 C 257.10630805488 207.2219941142 258.47190130794 205.20393066821 258.47190130794 202.96 C 258.47190130794 200.71606933179 257.10630805488 198.6980058858 255.02326871968 197.86363667992 C 252.94022938447 197.02926747404 250.55908874909 197.54656263097 249.01 199.17 C 249.01 199.17 244.16 202.81 241.7 197.47 L 241.7 178.76 L 260.41 178.76 C 265.75 176.3 262.11 171.45 262.11 171.45 C 260.48656263097 169.90091125091 259.96926747404 167.51977061553 260.80363667992 165.43673128032 C 261.6380058858 163.35369194512 263.65606933179 161.98809869206 265.9 161.98809869206 C 268.14393066821 161.98809869206 270.1619941142 163.35369194512 270.99636332008 165.43673128032 C 271.83073252596 167.51977061553 271.31343736903 169.90091125091 269.69 171.45 C 266.69 176.03 271.39 178.76 271.39 178.76 Z"/>
    <path fill="url(#linear-gradient-11)" stroke="none" transform="matrix(1 0 0 1 -34.98 -23.65)" d="M 290.1 178.76 L 290.1 227.17 L 241.7 227.17 L 241.7 208.45 C 241.7 208.45 244.43 203.71 249.01 206.75 C 250.55908874909 208.37343736903 252.94022938447 208.89073252596 255.02326871968 208.05636332008 C 257.10630805488 207.2219941142 258.47190130794 205.20393066821 258.47190130794 202.96 C 258.47190130794 200.71606933179 257.10630805488 198.6980058858 255.02326871968 197.86363667992 C 252.94022938447 197.02926747404 250.55908874909 197.54656263097 249.01 199.17 C 249.01 199.17 244.16 202.81 241.7 197.47 L 241.7 178.76 L 260.41 178.76 C 265.75 176.3 262.11 171.45 262.11 171.45 C 260.48656263097 169.90091125091 259.96926747404 167.51977061553 260.80363667992 165.43673128032 C 261.6380058858 163.35369194512 263.65606933179 161.98809869206 265.9 161.98809869206 C 268.14393066821 161.98809869206 270.1619941142 163.35369194512 270.99636332008 165.43673128032 C 271.83073252596 167.51977061553 271.31343736903 169.90091125091 269.69 171.45 C 266.69 176.03 271.39 178.76 271.39 178.76 Z"/>
    <path fill="#439fff" stroke="none" transform="matrix(1 0 0 1 -34.98 -23.65)" d="M 210.08 154.55 C 210.07330090633 156.79261006188 208.7056716824 158.80655316301 206.62360288484 159.6398204009 C 204.54153408728 160.47308763878 202.16206819478 159.95877394538 200.61 158.34 C 196.03 155.34 193.3 160.04 193.3 160.04 L 193.3 178.76 L 241.7 178.76 L 241.7 130.35 L 193.3 130.35 L 193.3 149.06 C 195.76 154.4 200.61 150.76 200.61 150.76 C 202.16206819478 149.14122605462 204.54153408728 148.62691236122 206.62360288484 149.4601795991 C 208.7056716824 150.29344683699 210.07330090633 152.30738993812 210.08 154.55 Z"/>
    <path fill="#439fff" stroke="none" transform="matrix(1 0 0 1 -34.98 -23.65)" d="M 213.71 186.07 C 212.08656263097 187.61908874909 211.56926747404 190.00022938447 212.40363667992 192.08326871968 C 213.2380058858 194.16630805488 215.25606933179 195.53190130794 217.5 195.53190130794 C 219.74393066821 195.53190130794 221.7619941142 194.16630805488 222.59636332008 192.08326871968 C 223.43073252596 190.00022938447 222.91343736903 187.61908874909 221.29 186.07 C 221.29 186.07 217.65 181.22 222.99 178.76 L 212 178.76 C 212 178.76 216.75 181.49 213.71 186.07 Z"/>
    <path fill="url(#linear-gradient-12)" stroke="none" transform="matrix(1 0 0 1 -34.98 -23.65)" d="M 193.3 130.35 L 193.3 149.06 C 195.76 154.4 200.61 150.76 200.61 150.76 C 202.15908874909 149.13656263097 204.54022938447 148.61926747404 206.62326871968 149.45363667992 C 208.70630805488 150.2880058858 210.07190130794 152.30606933179 210.07190130794 154.55 C 210.07190130794 156.79393066821 208.70630805488 158.8119941142 206.62326871968 159.64636332008 C 204.54022938447 160.48073252596 202.15908874909 159.96343736903 200.61 158.34 C 196.03 155.34 193.3 160.04 193.3 160.04 L 193.3 178.76 L 212 178.76 C 212 178.76 216.74 181.49 213.7 186.07 C 212.07656263097 187.61908874909 211.55926747404 190.00022938447 212.39363667992 192.08326871968 C 213.2280058858 194.16630805488 215.24606933179 195.53190130794 217.49 195.53190130794 C 219.73393066821 195.53190130794 221.7519941142 194.16630805488 222.58636332008 192.08326871968 C 223.42073252596 190.00022938447 222.90343736903 187.61908874909 221.28 186.07 C 221.28 186.07 217.64 181.22 222.98 178.76 L 241.7 178.76 L 241.7 130.35 Z"/>
    <path fill="#439fff" stroke="none" transform="matrix(1 0 0 1 -34.98 -23.65)" d="M 193.3 178.76 L 193.3 227.17 L 241.7 227.17 L 241.7 208.45 C 241.7 208.45 244.43 203.71 249.01 206.75 C 250.55908874909 208.37343736903 252.94022938447 208.89073252596 255.02326871968 208.05636332008 C 257.10630805488 207.2219941142 258.47190130794 205.20393066821 258.47190130794 202.96 C 258.47190130794 200.71606933179 257.10630805488 198.6980058858 255.02326871968 197.86363667992 C 252.94022938447 197.02926747404 250.55908874909 197.54656263097 249.01 199.17 C 249.01 199.17 244.16 202.81 241.7 197.47 L 241.7 178.76 L 223 178.76 C 217.66 181.22 221.3 186.07 221.3 186.07 C 222.92343736903 187.61908874909 223.44073252596 190.00022938447 222.60636332008 192.08326871968 C 221.7719941142 194.16630805488 219.75393066821 195.53190130794 217.51 195.53190130794 C 215.26606933179 195.53190130794 213.2480058858 194.16630805488 212.41363667992 192.08326871968 C 211.57926747404 190.00022938447 212.09656263097 187.61908874909 213.72 186.07 C 216.72 181.49 212.02 178.76 212.02 178.76 Z"/>
    <path fill="#439fff" stroke="none" transform="matrix(1 0 0 1 -34.98 -23.65)" d="M 145 227.17 L 145 208.46 C 147.46 203.12 152.31 206.76 152.31 206.76 C 153.85908874909 208.38343736903 156.24022938447 208.90073252596 158.32326871968 208.06636332008 C 160.40630805488 207.2319941142 161.77190130794 205.21393066821 161.77190130794 202.97 C 161.77190130794 200.72606933179 160.40630805488 198.7080058858 158.32326871968 197.87363667992 C 156.24022938447 197.03926747404 153.85908874909 197.55656263097 152.31 199.18 C 147.73 202.18 145 197.48 145 197.48 L 145 178.76 L 163.71 178.76 C 163.71 178.76 168.45 176.03 165.41 171.45 C 163.78656263097 169.90091125091 163.26926747404 167.51977061553 164.10363667992 165.43673128032 C 164.9380058858 163.35369194512 166.95606933179 161.98809869206 169.2 161.98809869206 C 171.44393066821 161.98809869206 173.4619941142 163.35369194512 174.29636332008 165.43673128032 C 175.13073252596 167.51977061553 174.61343736903 169.90091125091 172.99 171.45 C 172.99 171.45 169.35 176.3 174.69 178.76 L 193.4 178.76 L 193.4 227.17 Z"/>
    <path fill="url(#linear-gradient-13)" stroke="none" transform="matrix(1 0 0 1 -34.98 -23.65)" d="M 145 227.17 L 145 208.46 C 147.46 203.12 152.31 206.76 152.31 206.76 C 153.85908874909 208.38343736903 156.24022938447 208.90073252596 158.32326871968 208.06636332008 C 160.40630805488 207.2319941142 161.77190130794 205.21393066821 161.77190130794 202.97 C 161.77190130794 200.72606933179 160.40630805488 198.7080058858 158.32326871968 197.87363667992 C 156.24022938447 197.03926747404 153.85908874909 197.55656263097 152.31 199.18 C 147.73 202.18 145 197.48 145 197.48 L 145 178.76 L 163.71 178.76 C 163.71 178.76 168.45 176.03 165.41 171.45 C 163.78656263097 169.90091125091 163.26926747404 167.51977061553 164.10363667992 165.43673128032 C 164.9380058858 163.35369194512 166.95606933179 161.98809869206 169.2 161.98809869206 C 171.44393066821 161.98809869206 173.4619941142 163.35369194512 174.29636332008 165.43673128032 C 175.13073252596 167.51977061553 174.61343736903 169.90091125091 172.99 171.45 C 172.99 171.45 169.35 176.3 174.69 178.76 L 193.4 178.76 L 193.4 227.17 Z"/>
    <path fill="#439fff" stroke="none" transform="matrix(1 0 0 1 -34.98 -23.65)" d="M 210.14 154.56 C 210.13330090633 156.80261006188 208.7656716824 158.81655316301 206.68360288484 159.6498204009 C 204.60153408728 160.48308763878 202.22206819478 159.96877394538 200.67 158.35 C 200.67 158.35 195.82 154.71 193.36 160.05 L 193.36 178.76 L 174.65 178.76 C 169.31 176.3 172.95 171.45 172.95 171.45 C 174.57343736903 169.90091125091 175.09073252596 167.51977061553 174.25636332008 165.43673128032 C 173.4219941142 163.35369194512 171.40393066821 161.98809869206 169.16 161.98809869206 C 166.91606933179 161.98809869206 164.8980058858 163.35369194512 164.06363667992 165.43673128032 C 163.22926747404 167.51977061553 163.74656263097 169.90091125091 165.37 171.45 C 168.37 176.03 163.67 178.76 163.67 178.76 L 145 178.76 L 145 130.35 L 163.53 130.35 C 168.87 132.81 165.23 137.66 165.23 137.66 C 163.60656263097 139.20908874909 163.08926747404 141.59022938447 163.92363667992 143.67326871968 C 164.7580058858 145.75630805488 166.77606933179 147.12190130794 169.02 147.12190130794 C 171.26393066821 147.12190130794 173.2819941142 145.75630805488 174.11636332008 143.67326871968 C 174.95073252596 141.59022938447 174.43343736903 139.20908874909 172.81 137.66 C 169.81 133.08 174.51 130.35 174.51 130.35 L 193.4 130.35 L 193.4 149.07 C 193.4 149.07 196.13 153.81 200.71 150.77 C 202.26206819478 149.15122605462 204.64153408728 148.63691236122 206.72360288484 149.4701795991 C 208.8056716824 150.30344683699 210.17330090633 152.31738993812 210.18 154.56 Z"/>
    <path fill="#439fff" stroke="none" transform="matrix(1 0 0 1 -34.98 -23.65)" d="M 222 247.58 C 222.03561740328 249.82608886129 220.69928863146 251.86727617471 218.62643278282 252.73298536548 C 216.55357693418 253.59869455625 214.16244070136 253.11424873787 212.59 251.51 C 212.59 251.51 207.69 247.94 205.31 253.31 L 205.58 272.02 L 186.87 272.29 C 181.49 269.91 185.06 265.01 185.06 265.01 C 186.6536649103 263.43873205673 187.13172814765 261.05626678699 186.26760216319 258.99182083738 C 185.40347617872 256.92737488777 183.37082182162 255.59583386889 181.13305592149 255.62830804422 C 178.89529002135 255.66078221955 176.90212978779 257.05074534991 176.09827302758 259.13939685386 C 175.29441626738 261.22804835781 175.84141170156 263.59563810593 177.48 265.12 C 180.59 269.65 175.89 272.45 175.89 272.45 L 157.18 272.72 L 156.48 224.31 L 175.01 224.05 C 180.39 226.43 176.82 231.33 176.82 231.33 C 175.2263350897 232.90126794327 174.74827185235 235.28373321301 175.61239783681 237.34817916262 C 176.47652382128 239.41262511223 178.50917817838 240.74416613111 180.74694407851 240.71169195578 C 182.98470997865 240.67921778045 184.97787021221 239.28925465009 185.78172697242 237.20060314614 C 186.58558373262 235.11195164219 186.03858829844 232.74436189407 184.4 231.22 C 181.29 226.69 185.99 223.89 185.99 223.89 L 204.88 223.62 L 205.15 242.34 C 205.15 242.34 207.95 247.04 212.48 243.93 C 213.51791328623 242.82293978678 214.96258523655 242.18728412864 216.48 242.17 C 219.49496050432 242.14774744828 221.96156880053 244.56520231831 222 247.58 Z"/>
    <path fill="url(#linear-gradient-14)" stroke="none" transform="matrix(1 0 0 1 -34.98 -23.65)" d="M 163.26 224.49 C 162.59 225.23 162.07 226.86 163.13 227.55 C 163.50915991481 227.75452493891 163.92962554015 227.87075120933 164.36 227.89 L 170.02 228.58 C 169.85 228.58 172.81 261.93 173.97 269.02 C 174.11 269.86 174.46 270.91 175.31 271.02 C 175.82683568931 270.98903796589 176.29822203233 270.71437190775 176.58 270.28 C 177.39703399639 268.99985300948 177.86263859313 267.5271629146 177.93 266.01 C 179.33592827752 255.12425953595 180.00411924549 244.15590479685 179.93 233.18 C 179.93 231.01 179.85 228.74 178.77 226.85 C 177.42892396057 224.77113343795 175.27809866511 223.349339988 172.84 222.93 C 169.61 222.2 165.61 221.87 163.26 224.49 Z"/>
    <path fill="#262836" stroke="none" transform="matrix(1 0 0 1 -34.98 -23.65)" d="M 176.88 293.71 L 176.88 293.84 C 177.12 294.45 177.88 294.65 178.52 294.73 C 179.12427118436 294.79635035515 179.73223762839 294.82307415489 180.34 294.81 C 180.63148242413 294.82067883076 180.92257434574 294.78006135332 181.2 294.69 C 181.45433167899 294.57809966831 181.69300578452 294.43355056214 181.91 294.26 L 183.66 292.96 C 184.15170972057 292.62097890366 184.60151264919 292.22488378742 185 291.78 C 185.3939879261 291.32253014684 185.60108512587 290.73337431991 185.58 290.13 C 185.53711358566 289.51940596394 185.11790544316 289.00038635893 184.53 288.83 C 184.16470072557 288.7852170946 183.79529927443 288.7852170946 183.43 288.83 C 182.60007940385 288.9363316568 181.7852486067 288.54458608124 181.35 287.83 C 181.27763196524 287.50366317911 181.10235668994 287.20920071661 180.85 286.99 C 180.59544777487 286.8662189732 180.30683980411 286.83102287921 180.03 286.89 C 179.42292284418 286.92046177772 178.82341507914 287.03834251804 178.25 287.24 C 177.66448903234 287.44976554561 177.20509353461 287.91283620732 177 288.5 C 176.938762162 288.76885013038 176.9118808736 289.04438333651 176.92 289.32 C 176.95499348666 289.88946291925 176.95499348666 290.46053708075 176.92 291.03 C 176.84016345611 291.74054071018 176.80010098358 292.4549881369 176.8 293.17 C 176.80559856169 293.35249659479 176.83244632216 293.53371897797 176.88 293.71 Z"/>
    <path fill="#262836" stroke="none" transform="matrix(1 0 0 1 -34.98 -23.65)" d="M 193.85 293.94 C 192.6716801912 294.47936503779 191.45904441164 294.94036706969 190.22 295.32 C 189.72683445165 295.53281673915 189.17436784939 295.56468981236 188.66 295.41 C 188.25188468497 295.21219370751 187.94924552728 294.84756821632 187.83 294.41 C 187.72204187629 293.96858117843 187.67825857247 293.51390840799 187.7 293.06 C 187.77653837671 292.35779423902 187.92053663448 291.66459332369 188.13 290.99 C 188.24 290.36 188.33 289.73 188.41 289.1 C 188.54 288.19 188.66 287.29 188.77 286.39 L 191.92 287.06 C 192.25 287.13 192.56 288.4 192.76 288.67 C 193.05670795196 289.07280236731 193.52014590628 289.31923366048 194.02 289.34 C 194.55669500032 289.26234040612 195.09778880314 289.21891929849 195.64 289.21 C 196.35894882367 289.37845603256 196.87300647362 290.0117750573 196.89 290.75 C 196.88448461439 291.47137516981 196.57603636608 292.15721892194 196.04 292.64 C 195.50967117977 293.12022332087 194.90082618548 293.50582515059 194.24 293.78 Z"/>
    <path fill="#439fff" stroke="none" transform="matrix(1 0 0 1 -34.98 -23.65)" d="M 193.9 290.42 C 193.07332129847 290.88992095011 192.21452316871 291.30094106669 191.33 291.65 L 191.25 291.65 C 189.79 292.22 188.16 289.93 188.16 289.93 C 188.16 289.93 186.1 277.21 186.16 271.93 C 186.23 268.31 185.37 263.15 184.08 253.79 C 183.76 263.35 182.14 267.55 182.55 270.98 C 183.18 276.19 182.43 289.13 182.43 289.13 C 182.43 289.13 181.05 291.65 179.54 291.31 L 179.45 291.31 C 178.54087970076 291.10332056351 177.648412076 290.82922938287 176.78 290.49 C 176.78 290.49 175.02 272.67 175.02 267.97 C 175.02 263.27 175.22 259.06 175.22 259.06 L 174.3 244.18 L 178.22 238.48 L 178.54 238.35 L 178.84 238.05 L 183.19 234.86 C 183.19 234.86 183.19 235.6 183.11 236.86 L 186.49 238.67 L 186.81 238.91 L 187.14 238.99 L 192.8 239.99 C 192.8 239.99 194.28 262.82 194.8 267.49 C 195.32 272.16 193.9 290.42 193.9 290.42 Z"/>
    <path fill="url(#linear-gradient-15)" stroke="none" transform="matrix(1 0 0 1 -34.98 -23.65)" d="M 193.9 290.42 C 193.07332129847 290.88992095011 192.21452316871 291.30094106669 191.33 291.65 L 191.25 291.65 C 189.79 292.22 188.16 289.93 188.16 289.93 C 188.16 289.93 186.1 277.21 186.16 271.93 C 186.23 268.31 185.37 263.15 184.08 253.79 C 183.76 263.35 182.14 267.55 182.55 270.98 C 183.18 276.19 182.43 289.13 182.43 289.13 C 182.43 289.13 181.05 291.65 179.54 291.31 L 179.45 291.31 C 178.54087970076 291.10332056351 177.648412076 290.82922938287 176.78 290.49 C 176.78 290.49 175.02 272.67 175.02 267.97 C 175.02 263.27 175.22 259.06 175.22 259.06 L 174.3 244.18 L 178.22 238.48 L 178.54 238.35 L 178.84 238.05 L 183.19 234.86 C 183.19 234.86 183.19 235.6 183.11 236.86 L 186.49 238.67 L 186.81 238.91 L 187.14 238.99 L 192.8 239.99 C 192.8 239.99 194.28 262.82 194.8 267.49 C 195.32 272.16 193.9 290.42 193.9 290.42 Z"/>
    <path fill="#a67c52" stroke="none" transform="matrix(1 0 0 1 -34.98 -23.65)" d="M 220.54 210.84 C 220.61016826708 210.78987099268 220.69378798194 210.76199775439 220.78 210.76 C 221.01 210.76 221.02 211.13 220.94 211.35 C 220.73091413954 211.96340485745 220.42725040402 212.54036595495 220.04 213.06 C 219.91457334232 213.18955253104 219.84002114365 213.35995755657 219.83 213.54 C 219.83 213.72 219.99 213.85 220.11 213.98 C 220.85624435292 214.8461338235 221.14252412055 216.01727832743 220.88 217.13 C 220.6026952339 218.2253155422 220.03227813327 219.22440973663 219.23 220.02 C 218.83977715794 220.51669536424 218.26742427375 220.83706899124 217.64 220.91 C 216.56 220.91 215.21 219.58 214.78 218.66 C 214.46146321167 217.72507879679 214.659060697 216.69149195046 215.3 215.94 C 216.57589052599 213.81518464202 218.38141965641 212.05789483951 220.54 210.84 Z"/>
    <path fill="#a67c52" stroke="none" transform="matrix(1 0 0 1 -34.98 -23.65)" d="M 189.21 200.34 C 189.56 200.7 190.1 201.07 189.95 201.54 C 189.87 201.79 189.6 201.94 189.4 202.12 C 188.9065071161 202.64337357159 188.64043168587 203.34092267246 188.66 204.06 C 188.68114274168 204.77529971985 188.57967728558 205.48894009445 188.36 206.17 C 188.10266760742 206.8647085967 187.39222813645 207.28261416787 186.66 207.17 C 186.25 207.06 185.84 206.7 185.44 206.87 C 185.04 207.04 185.04 207.37 184.88 207.65 C 184.43444142614 208.35310017696 183.62738862575 208.74110633099 182.8 208.65 C 181.99780053094 208.52946111178 181.22480555127 208.26162513198 180.52 207.86 C 180.22059982399 207.74074813237 179.96072589235 207.53977895856 179.77 207.28 C 179.65371270178 207.02648654239 179.62555243238 206.74136381473 179.69 206.47 C 179.93716358436 205.65605890614 180.34144944049 204.89844759591 180.88 204.24 C 181.74222816767 202.91106948743 182.2610771681 201.38888334711 182.39 199.81 C 182.47 198.71 182.39 197.5 183.1 196.65 C 184.1 195.49 186.37 195.5 187.56 196.35 C 188.75 197.2 188.11 199.21 189.21 200.34 Z"/>
    <path fill="#2f3554" stroke="none" transform="matrix(1 0 0 1 -34.98 -23.65)" d="M 187.79 195.36 C 187.65061188625 195.63412127758 187.4398802986 195.86558056237 187.18 196.03 C 186.65 196.34 186.18 196.7 185.7 197.03 C 185.21600475129 197.34903928169 184.87526493887 197.84400869342 184.75 198.41 C 184.54 199.41 185.1 200.55 184.75 201.56 C 184.62 201.77 184.29 201.64 184.16 201.44 C 184.03 201.24 183.95 200.99 183.75 200.87 C 183.4 200.67 182.98 201.01 182.83 201.38 C 182.50799059144 202.27404551774 182.94941157284 203.26282851606 183.83 203.62 C 183.78 203.94 183.37 204.07 183.04 204.03 C 182.7143126809 203.94048008424 182.37775039975 203.89672698769 182.04 203.9 C 181.29 204.04 181.04 205.11 180.26 205.22 C 179.73647537152 205.18515704974 179.25929122406 204.90772440587 178.97 204.47 L 178.06 203.47 C 177.91331658787 203.27545792266 177.75290738004 203.09165570535 177.58 202.92 C 177.37 202.76 177.03 202.75 176.86 202.56 C 176.69 202.37 176.86 201.92 176.68 201.68 C 176.59490975235 201.59083306996 176.48807321647 201.52535261248 176.37 201.49 C 175.83048052934 201.21732620852 175.55527759763 200.60437422427 175.71 200.02 C 175.73438112154 199.94869316356 175.73438112154 199.87130683644 175.71 199.8 C 175.71 199.7 175.57 199.66 175.47 199.61 C 174.89968342605 199.24044940609 174.6833041325 198.51069963178 174.96 197.89 C 175.11215035674 197.5450103125 175.32945813681 197.23263037866 175.6 196.97 C 175.79478745257 196.66999489677 176.14580530418 196.51008676437 176.5 196.56 L 176.65 195.25 C 176.64264856817 194.80064795167 176.8371621838 194.37167449878 177.18001675822 194.0811197747 C 177.52287133264 193.79056505061 177.97793925254 193.66904567678 178.42 193.75 L 178.12 192.67 C 178.06490525284 192.53196102335 178.06490525284 192.37803897665 178.12 192.24 C 178.20236938781 192.14446675177 178.31558392179 192.0807835764 178.44 192.06 C 178.78888507664 191.96049314743 179.14776039466 191.90012159861 179.51 191.88 C 179.38008692817 191.57701225654 179.2796241511 191.26222888838 179.21 190.94 C 179.16326077639 190.84513081664 179.17864276273 190.73140388015 179.24890443553 190.65235949825 C 179.31916610833 190.57331511635 179.43030531583 190.54470570978 179.53 190.58 C 179.66258238964 190.60001257866 179.79741761036 190.60001257866 179.93 190.58 C 179.93 190.58 179.73 189.66 179.72 189.58 C 179.65937378051 189.29113964617 179.71314437619 188.99002431038 179.87 188.74 C 180.09223085213 188.48723802607 180.42670310582 188.36322022415 180.76 188.41 C 181.08450622466 188.46749761225 181.3960918345 188.58264881589 181.68 188.75 C 181.68 188.4 182.11 188.22 182.46 188.19 C 183.82961705749 188.11311867595 185.1430982398 188.74343866861 185.94 189.86 C 186.00472721357 189.95668278387 186.07838336364 190.04707896804 186.16 190.13 C 186.31985822533 190.23180662628 186.4956151753 190.30616533588 186.68 190.35 C 187.25462793871 190.60438286383 187.68429411971 191.10382389473 187.85 191.71 C 187.99978538995 192.30440750959 188.06044734476 192.91776727489 188.03 193.53 C 188.05282489798 194.00046037889 188.00905894946 194.47178597838 187.9 194.93 C 187.88016845613 195.07712107015 187.84325260129 195.22142850268 187.79 195.36 Z"/>
    <path fill="#ffffff" stroke="none" transform="matrix(1 0 0 1 -34.98 -23.65)" d="M 182.82 206.7 C 183.65276475691 207.0488775308 184.46123912121 207.45311471295 185.24 207.91 C 185.48028623367 208.0390050961 185.68870015367 208.220086043 185.85 208.44 C 186.02556842746 208.68532067418 186.05610441835 209.0059485786 185.93 209.28 C 185.72 209.65 185.22 209.52 184.84 209.38 C 183.07789882564 208.78211232037 181.21830432189 208.52421235269 179.36 208.62 C 179.10666898491 208.66182183982 178.85138221329 208.55738634234 178.7 208.35 C 178.6125602838 208.10178923254 178.63813796909 207.8277426044 178.77 207.6 C 179.72 205.69 181.27 206 182.82 206.7 Z"/>
    <path fill="#ffffff" stroke="none" transform="matrix(1 0 0 1 -34.98 -23.65)" d="M 217.05 221.44 C 216.68863883502 222.33792746302 216.15531411058 223.15659789988 215.48 223.85 C 214.83 224.58 214.16 225.28 213.48 225.96 C 211.83707663388 227.54821239087 210.10421855692 229.0406739716 208.29 230.43 C 207.05756564299 231.51876727918 205.58891879788 232.30615369964 204 232.73 C 203.35553244724 232.8808099337 202.68096893692 232.83908435574 202.06 232.61 C 201.55503805585 232.35808926555 201.09812761101 232.01963708419 200.71 231.61 C 200.25 231.15 194.91 225 194.82 225 C 194.51698523968 225.16252013187 194.28267544081 225.42878126695 194.16 225.75 C 193.3886076862 227.34839919762 192.91100394522 229.07251482994 192.75 230.84 C 192.68501499348 231.62866359143 192.68501499348 232.42133640857 192.75 233.21 C 192.96 235.9 193.9 238.67 192.97 241.21 C 192.78424758721 241.74675577363 192.47611946172 242.23291348273 192.07 242.63 C 191.67859461666 242.97229485543 191.22783087841 243.24004173754 190.74 243.42 C 189.87796547862 243.77295140791 188.97898820388 244.02788526194 188.06 244.18 C 187.53504179012 244.27665717394 187.00352695595 244.33348580401 186.47 244.35 C 184.47 244.43 182.57 244.05 180.61 244.14 C 178.95 244.23 177.3 244.66 175.61 244.6 C 175.12757217664 244.6939197922 174.62821067823 244.57187427799 174.24348879638 244.26602038191 C 173.85876691453 243.96016648584 173.62727235104 243.50118143085 173.61 243.01 C 172.96239390414 239.44941198008 172.62778288018 235.83895903157 172.61 232.22 C 172.61 230.96 172.54 229.69 172.46 228.43 C 172.39 227.36 172.68 224.64 171.46 224.43 C 168.36 223.83 165.14 224.59 162.01 224.15 C 162.09695998963 222.10193904453 162.96679089506 220.16540192586 164.44 218.74 C 165.16255955849 218.13003448801 165.94680789304 217.59714779915 166.78 217.15 C 167.7391834711 216.4632250122 168.60042227842 215.64908520216 169.34 214.73 C 171.46649621924 212.10411347312 174.1607034305 209.99456290288 177.22 208.56 C 177.70734472473 208.32130340015 178.22079285623 208.14008641256 178.75 208.02 L 178.88 208.02 C 178.95641149739 208.01115398887 179.03358850261 208.01115398887 179.11 208.02 C 179.77897182746 207.96389008626 180.45253652926 208.00430396836 181.11 208.14 C 185.57161010927 208.88026626365 189.98588050356 209.88199176916 194.33 211.14 C 194.90321732439 211.26878540162 195.44638060292 211.50641933598 195.93 211.84 C 196.26754957843 212.14503562055 196.55744064454 212.49897238731 196.79 212.89 C 198.01 214.73 199.2 216.59 200.43 218.43 C 201.49 220.01 202.53 221.99 204.09 223.15 C 207.48584634332 221.76965355913 210.69172439516 219.96172652361 213.63 217.77 C 214.04 217.46 214.57 217.12 215.04 217.33 C 215.19635650997 217.39985926506 215.33610297313 217.5021127747 215.45 217.63 C 216.6 218.63 217.61 219.73 217.05 221.44 Z"/>
</svg>
